<svg  viewBox="0 0 258 255" fill="none" xmlns="http://www.w3.org/2000/svg">
<circle cx="128" cy="127.239" r="125" fill="#C8EBD3"/>
<path d="M177.038 12.0497C177.625 9.94262 174.948 8.74104 174.948 8.74104C172.936 8.19009 172.075 8.44844 170.953 8.14118C170.217 7.93987 169.159 8.91717 168.492 8.46835C167.757 8.26704 167.828 7.28562 166.909 7.03398L165.148 6.5519C164.422 6.35324 164.242 5.56899 163.381 5.82734C162.336 6.03536 161.607 5.08835 160.872 4.88704C160.32 4.73606 159.337 4.72015 158.601 4.51884C157.498 4.21688 157.012 3.83017 156.092 3.57854L150.926 2.16408C149.272 1.71114 149.514 2.27145 148.411 1.96949L145.102 1.0636C144.857 0.94672 144.589 0.892514 144.314 0.90424C144.04 0.915966 143.765 0.993382 143.505 1.13183C143.246 1.27029 143.008 1.46692 142.805 1.70991C142.602 1.9529 142.439 2.23723 142.325 2.54581L142.186 3.05261L176.899 12.5565L177.038 12.0497Z" fill="#C8EBD3"/>
<path d="M207.815 30.4891C208.955 28.6221 206.708 26.736 206.708 26.736C204.922 25.657 204.023 25.6706 203.027 25.0689C202.375 24.6746 201.09 25.3263 200.571 24.7124C199.918 24.3181 200.254 23.3933 199.439 22.9005L197.876 21.9564C197.232 21.5673 197.273 20.7636 196.374 20.7773C195.312 20.6923 194.869 19.5825 194.217 19.1882C193.727 18.8925 192.785 18.6089 192.133 18.2146C191.154 17.6233 190.791 17.1184 189.976 16.6256L185.391 13.8555C183.923 12.9684 184.003 13.5735 183.024 12.9821L180.088 11.208C179.884 11.0286 179.641 10.9033 179.374 10.8398C179.106 10.7762 178.821 10.7756 178.533 10.8381C178.246 10.9005 177.963 11.0247 177.702 11.2031C177.44 11.3816 177.206 11.6106 177.012 11.8764L176.74 12.3262L207.544 30.9388L207.815 30.4891Z" fill="#C8EBD3"/>
<path d="M231.801 56.98C233.807 55.1545 232.261 52.6388 232.261 52.6388C230.851 51.1009 229.901 50.9384 229.114 50.0807C228.599 49.5188 226.967 49.9808 226.687 49.2039C226.171 48.6419 226.925 47.6925 226.281 46.9901L225.047 45.6445C224.539 45.0899 224.929 44.215 223.978 44.0525C222.899 43.7494 222.914 42.4429 222.399 41.8809C222.012 41.4595 221.145 40.9619 220.63 40.4C219.857 39.5571 219.694 38.9308 219.05 38.2284L215.431 34.2802C214.272 33.0158 214.094 33.6962 213.321 32.8533L211.003 30.3246C210.866 30.0872 210.664 29.9017 210.411 29.7791C210.158 29.6565 209.858 29.5994 209.528 29.6112C209.199 29.623 208.848 29.7035 208.496 29.8479C208.144 29.9923 207.799 30.1975 207.48 30.4513L207 30.8916L231.321 57.4204L231.801 56.98Z" fill="#C8EBD3"/>
<path d="M247.532 88.904C249.98 87.7347 249.225 84.8801 249.225 84.8801C248.319 83.0009 247.455 82.571 246.95 81.523C246.619 80.8363 244.923 80.808 244.878 79.9831C244.547 79.2965 245.542 78.6048 245.129 77.7465L244.335 76.1022C244.009 75.4246 244.635 74.6994 243.771 74.2695C242.825 73.6679 243.216 72.4213 242.885 71.7346C242.637 71.2197 241.95 70.493 241.619 69.8064C241.122 68.7764 241.146 68.1298 240.732 67.2715L238.406 62.4469C237.66 60.902 237.294 61.5021 236.797 60.4721L235.307 57.3822C235.244 57.1154 235.105 56.8797 234.898 56.6892C234.69 56.4988 234.42 56.3575 234.101 56.2739C233.783 56.1903 233.423 56.1662 233.045 56.2029C232.666 56.2396 232.276 56.3364 231.897 56.4875L231.311 56.7705L246.945 89.1871L247.532 88.904Z" fill="#C8EBD3"/>
<path d="M247.587 88.6919C250.262 88.2474 251.297 91.1217 251.297 91.1217C251.643 93.255 251.186 94.1291 251.379 95.3189C251.505 96.0983 250.136 97.1204 250.576 97.8489C250.703 98.6284 251.916 98.6316 252.074 99.606L252.377 101.473C252.502 102.242 253.432 102.491 252.975 103.365C252.55 104.434 253.591 105.265 253.717 106.045C253.812 106.629 253.671 107.652 253.797 108.432C253.987 109.601 254.381 110.137 254.539 111.111L255.427 116.588C255.711 118.342 255.065 118.047 255.255 119.216L255.823 122.724C255.927 122.988 255.949 123.27 255.89 123.554C255.831 123.838 255.691 124.118 255.479 124.377C255.267 124.635 254.988 124.867 254.657 125.059C254.326 125.25 253.952 125.397 253.555 125.491L252.912 125.596L246.944 88.7963L247.587 88.6919Z" fill="#C8EBD3"/>
<path d="M253.999 124.317C256.667 124.804 256.667 127.859 256.667 127.859C256.27 129.983 255.544 130.651 255.323 131.836C255.178 132.612 253.544 133.11 253.712 133.945C253.567 134.721 254.707 135.135 254.526 136.105L254.179 137.964C254.036 138.73 254.827 139.28 254.101 139.947C253.339 140.809 254.037 141.944 253.892 142.72C253.783 143.302 253.304 144.217 253.159 144.993C252.942 146.157 253.131 146.795 252.949 147.766L251.931 153.22C251.605 154.966 251.096 154.47 250.879 155.634L250.227 159.127C250.234 159.41 250.16 159.684 250.008 159.931C249.856 160.178 249.63 160.394 249.343 160.566C249.056 160.737 248.714 160.861 248.338 160.929C247.962 160.998 247.56 161.009 247.155 160.963L246.515 160.844L253.359 124.197L253.999 124.317Z" fill="#C8EBD3"/>
<path d="M232.85 194.564C235.342 195.635 237.033 193.091 237.033 193.091C237.879 191.103 237.644 190.145 238.116 189.036C238.425 188.309 237.339 186.989 237.941 186.387C238.25 185.66 239.429 185.947 239.815 185.039L240.555 183.298C240.86 182.581 241.824 182.562 241.589 181.604C241.431 180.464 242.64 179.906 242.949 179.179C243.181 178.634 243.288 177.607 243.597 176.88C244.061 175.79 244.571 175.364 244.958 174.456L247.129 169.35C247.824 167.715 247.126 167.847 247.589 166.757L248.98 163.487C249.143 163.255 249.232 162.986 249.243 162.696C249.253 162.406 249.184 162.101 249.04 161.799C248.896 161.497 248.68 161.205 248.405 160.94C248.13 160.675 247.801 160.443 247.438 160.257L246.839 160.002L232.251 194.31L232.85 194.564Z" fill="#C8EBD3"/>
<path d="M233.094 194.051C235.176 195.789 233.673 198.448 233.673 198.448C232.282 200.102 231.321 200.326 230.546 201.249C230.037 201.853 228.369 201.482 228.105 202.291C227.596 202.896 228.385 203.817 227.75 204.573L226.533 206.02C226.032 206.616 226.45 207.484 225.489 207.708C224.402 208.083 224.451 209.414 223.943 210.018C223.561 210.472 222.694 211.032 222.186 211.636C221.424 212.543 221.274 213.191 220.639 213.947L217.068 218.193C215.924 219.553 215.726 218.87 214.964 219.777L212.677 222.497C212.544 222.747 212.344 222.948 212.091 223.089C211.837 223.229 211.534 223.306 211.199 223.314C210.865 223.322 210.507 223.262 210.146 223.136C209.785 223.011 209.429 222.823 209.099 222.583L208.601 222.164L232.595 193.632L233.094 194.051Z" fill="#C8EBD3"/>
<path d="M209.311 222.307C210.737 224.615 208.469 226.661 208.469 226.661C206.626 227.79 205.644 227.698 204.616 228.328C203.943 228.74 202.478 227.861 201.971 228.544C201.297 228.957 201.754 230.081 200.913 230.596L199.3 231.584C198.635 231.991 198.758 232.947 197.776 232.855C196.625 232.867 196.25 234.145 195.577 234.557C195.072 234.866 194.072 235.124 193.399 235.536C192.389 236.155 192.042 236.722 191.2 237.238L186.468 240.136C184.953 241.064 184.981 240.354 183.971 240.972L180.941 242.828C180.736 243.024 180.483 243.152 180.197 243.205C179.912 243.257 179.6 243.234 179.281 243.136C178.961 243.038 178.641 242.867 178.338 242.634C178.035 242.401 177.757 242.11 177.52 241.778L177.18 241.223L208.971 221.752L209.311 222.307Z" fill="#C8EBD3"/>
<path d="M142.573 250.571C143.234 253.202 146.282 253.002 146.282 253.002C148.376 252.467 148.995 251.699 150.163 251.401C150.928 251.206 151.318 249.542 152.162 249.655C152.927 249.46 153.415 250.571 154.371 250.327L156.203 249.859C156.958 249.666 157.558 250.42 158.177 249.652C158.987 248.835 160.165 249.457 160.93 249.262C161.504 249.115 162.385 248.577 163.15 248.382C164.298 248.089 164.947 248.236 165.903 247.992L171.279 246.619C173.001 246.179 172.472 245.704 173.62 245.411L177.063 244.532C177.346 244.521 177.614 244.429 177.851 244.261C178.087 244.093 178.288 243.854 178.441 243.556C178.593 243.259 178.694 242.91 178.738 242.53C178.781 242.15 178.766 241.748 178.694 241.347L178.533 240.716L142.412 249.94L142.573 250.571Z" fill="#C8EBD3"/>
<path d="M105.93 250.139C105.875 252.851 108.869 253.46 108.869 253.46C111.029 253.495 111.829 252.917 113.034 252.937C113.823 252.95 114.638 251.448 115.422 251.779C116.211 251.792 116.389 252.992 117.376 253.008L119.267 253.039C120.046 253.051 120.427 253.937 121.226 253.358C122.222 252.784 123.195 253.694 123.984 253.707C124.577 253.716 125.568 253.429 126.358 253.442C127.542 253.461 128.13 253.774 129.116 253.79L134.664 253.881C136.441 253.909 136.056 253.312 137.24 253.331L140.793 253.389C141.069 253.453 141.352 253.435 141.624 253.336C141.897 253.236 142.154 253.058 142.379 252.811C142.604 252.564 142.794 252.254 142.936 251.899C143.078 251.544 143.169 251.152 143.205 250.746L143.216 250.095L105.94 249.487L105.93 250.139Z" fill="#C8EBD3"/>
<path d="M106.56 249.973C105.757 252.563 102.724 252.198 102.724 252.198C100.662 251.55 100.086 250.75 98.9363 250.389C98.1829 250.152 97.8838 248.47 97.0351 248.536C96.2817 248.3 95.7346 249.383 94.7929 249.087L92.9888 248.52C92.2454 248.286 91.6052 249.006 91.029 248.206C90.2645 247.346 89.0548 247.903 88.3015 247.666C87.7365 247.489 86.8856 246.904 86.1323 246.667C85.0023 246.312 84.3464 246.424 83.4047 246.128L78.1115 244.465C76.4164 243.932 76.9703 243.487 75.8402 243.131L72.4502 242.066C72.168 242.04 71.9053 241.933 71.6779 241.753C71.4506 241.573 71.2633 241.322 71.1273 241.017C70.9913 240.712 70.9094 240.358 70.8865 239.976C70.8636 239.595 70.9002 239.194 70.9941 238.797L71.1895 238.176L106.755 249.351L106.56 249.973Z" fill="#C8EBD3"/>
<path d="M72.1229 239.536C70.5981 241.779 67.8042 240.544 67.8042 240.544C66.0215 239.322 65.7042 238.388 64.71 237.707C64.0586 237.261 64.2638 235.564 63.4325 235.381C62.7812 234.934 61.9416 235.81 61.1274 235.252L59.5675 234.183C58.9247 233.742 58.1022 234.244 57.7849 233.31C57.3047 232.265 55.9851 232.444 55.3337 231.998C54.8452 231.663 54.2023 230.855 53.5509 230.409C52.5738 229.739 51.914 229.654 51.0997 229.096L46.5229 225.96C45.0573 224.956 45.7171 224.691 44.74 224.022L41.8088 222.013C41.5466 221.905 41.3265 221.727 41.1617 221.488C40.9969 221.249 40.8909 220.955 40.85 220.623C40.8091 220.291 40.8341 219.929 40.9236 219.557C41.0131 219.186 41.1652 218.813 41.3708 218.461L41.7391 217.924L72.4912 238.998L72.1229 239.536Z" fill="#C8EBD3"/>
<path d="M42.0203 219.014C39.8925 220.696 37.5981 218.68 37.5981 218.68C36.2643 216.979 36.242 215.993 35.4982 215.045C35.0108 214.423 35.7158 212.867 34.9781 212.442C34.4907 211.821 33.427 212.404 32.8178 211.627L31.6507 210.139C31.1698 209.526 30.2346 209.758 30.2122 208.772C30.0681 207.631 28.7554 207.406 28.2681 206.784C27.9026 206.318 27.5319 205.355 27.0445 204.733C26.3135 203.801 25.7095 203.522 25.1004 202.746L21.6762 198.38C20.5796 196.982 21.2883 196.928 20.5573 195.996L18.3642 193.2C18.1464 193.018 17.9901 192.782 17.9046 192.505C17.8191 192.227 17.8063 191.915 17.8669 191.586C17.9274 191.257 18.0601 190.919 18.257 190.592C18.4539 190.264 18.7109 189.954 19.0126 189.68L19.5253 189.278L42.5329 218.612L42.0203 219.014Z" fill="#C8EBD3"/>
<path d="M20.7869 192.887C18.249 193.844 16.6749 191.226 16.6749 191.226C15.9201 189.201 16.198 188.255 15.7771 187.125C15.5013 186.385 16.6454 185.116 16.0714 184.487C15.7956 183.747 14.605 183.98 14.2602 183.056L13.5997 181.284C13.3276 180.553 12.3662 180.49 12.6441 179.544C12.8531 178.413 11.6706 177.8 11.3948 177.06C11.188 176.505 11.1272 175.474 10.8514 174.734C10.4377 173.625 9.94691 173.175 9.60216 172.251L7.66433 167.052C7.04378 165.387 7.73543 165.55 7.32173 164.44L6.08064 161.111C5.92816 160.872 5.85095 160.599 5.85366 160.309C5.85636 160.019 5.93893 159.717 6.0964 159.422C6.25386 159.127 6.48298 158.845 6.76997 158.593C7.05696 158.341 7.39589 158.123 7.76641 157.954L8.37695 157.727L21.3975 192.659L20.7869 192.887Z" fill="#C8EBD3"/>
<path d="M144.106 2.74935C144.058 0.562508 141.148 0.187444 141.148 0.187444C139.062 0.242798 138.313 0.73943 137.15 0.770301C136.388 0.790527 135.658 2.03231 134.889 1.79601C134.127 1.81623 133.911 0.85626 132.959 0.881543L131.134 0.929978C130.382 0.949938 129.982 0.251549 129.232 0.748181C128.292 1.24987 127.321 0.554435 126.559 0.574661C125.987 0.58983 125.041 0.859423 124.279 0.879649C123.136 0.909987 122.558 0.680846 121.605 0.706128L116.251 0.848241C114.536 0.893749 114.93 1.36004 113.787 1.39038L110.357 1.4814C110.089 1.44059 109.817 1.4663 109.557 1.55697C109.298 1.64765 109.057 1.80143 108.849 2.00906C108.641 2.21669 108.47 2.4739 108.346 2.76521C108.222 3.05652 108.148 3.37592 108.129 3.70422L108.143 4.22949L144.12 3.27462L144.106 2.74935Z" fill="#C8EBD3"/>
<path d="M108.545 3.66836C107.885 1.58294 104.987 2.03989 104.987 2.03989C103 2.67855 102.421 3.3656 101.313 3.72178C100.587 3.95514 100.235 5.35182 99.4312 5.34088C98.7055 5.57424 98.2285 4.71355 97.3214 5.00525L95.5834 5.56408C94.8672 5.79437 94.2874 5.23632 93.7076 5.92338C92.9463 6.66877 91.8184 6.27411 91.0927 6.50746C90.5484 6.68248 89.716 7.20685 88.9903 7.4402C87.9017 7.79024 87.2826 7.7326 86.3754 8.02429L81.2762 9.66394C79.6433 10.189 80.152 10.526 79.0634 10.8761L75.7976 11.9262C75.5282 11.9624 75.2742 12.0635 75.0509 12.2233C74.8275 12.3832 74.6394 12.5984 74.4979 12.8561C74.3564 13.1139 74.2643 13.4088 74.2273 13.7231C74.1903 14.0374 74.2091 14.3647 74.2825 14.6853L74.4434 15.1855L108.706 4.16859L108.545 3.66836Z" fill="#C8EBD3"/>
<path d="M75.0789 13.9902C73.855 12.1772 71.2052 13.4366 71.2052 13.4366C69.4813 14.6119 69.1199 15.4351 68.1585 16.0906C67.5287 16.52 67.5872 17.9591 66.8127 18.1765C66.1829 18.6059 65.4816 17.9157 64.6943 18.4525L63.1859 19.4809C62.5643 19.9046 61.8501 19.5338 61.4887 20.357C60.9699 21.2875 59.7764 21.2286 59.1465 21.658C58.6741 21.9801 58.0245 22.7188 57.3946 23.1483C56.4498 23.7924 55.8397 23.9126 55.0524 24.4494L50.6268 27.4667C49.2095 28.4329 49.7929 28.612 48.8481 29.2561L46.0137 31.1886C45.7657 31.2997 45.5507 31.4686 45.3818 31.6852C45.2129 31.9017 45.0935 32.1614 45.0308 32.4487C44.9681 32.736 44.9634 33.0449 45.017 33.3568C45.0705 33.6688 45.1813 33.9773 45.3426 34.264L45.6385 34.6981L75.3749 14.4243L75.0789 13.9902Z" fill="#C8EBD3"/>
<path d="M46.2833 32.4196C44.5876 31.0379 42.4149 33.0095 42.4149 33.0095C41.1044 34.633 40.9964 35.5255 40.2655 36.4309C39.7867 37.024 40.2587 38.3848 39.5802 38.8168C39.1013 39.4099 38.2305 38.9519 37.6319 39.6933L36.4852 41.1138C36.0127 41.6992 35.2218 41.5506 35.1138 42.4431C34.8861 43.484 33.7265 43.7726 33.2477 44.3658C32.8886 44.8106 32.4802 45.7056 32.0013 46.2988C31.2831 47.1886 30.7338 47.4799 30.1352 48.2214L26.7708 52.3893C25.6934 53.7239 26.3036 53.7267 25.5854 54.6164L23.4306 57.2857C23.2252 57.4638 23.0683 57.6877 22.9692 57.9438C22.8701 58.2 22.8309 58.4831 22.8539 58.7762C22.8769 59.0694 22.9617 59.3664 23.1032 59.6496C23.2446 59.9327 23.4398 60.1961 23.6771 60.4239L24.0859 60.7539L46.6921 32.7497L46.2833 32.4196Z" fill="#C8EBD3"/>
<path d="M9.03965 90.7323C7.06661 89.788 7.92309 86.9819 7.92309 86.9819C8.83241 85.1041 9.59359 84.6257 10.1007 83.5784C10.433 82.8923 11.865 82.7388 11.9663 81.9408C12.2986 81.2547 11.5128 80.6624 11.9281 79.8048L12.7237 78.1617C13.0516 77.4846 12.5798 76.8327 13.341 76.3543C14.1853 75.7043 13.9517 74.5325 14.2839 73.8463C14.5331 73.3317 15.1684 72.5806 15.5006 71.8945C15.999 70.8653 16.0282 70.2442 16.4435 69.3866L18.778 64.5657C19.5256 63.0219 19.7884 63.5727 20.2868 62.5435L21.7819 59.456C21.8554 59.1943 21.9909 58.9569 22.1803 58.758C22.3697 58.5591 22.609 58.4028 22.884 58.2986C23.1589 58.1944 23.4638 58.1444 23.7802 58.1515C24.0966 58.1587 24.4181 58.2229 24.7253 58.3403L25.1982 58.5693L9.51257 90.9613L9.03965 90.7323Z" fill="#C8EBD3"/>
<path d="M9.3731 89.3333C7.21943 88.9508 6.28007 91.7303 6.28007 91.7303C5.92464 93.7861 6.26438 94.6185 6.06617 95.7651C5.9363 96.5162 7.01055 97.4756 6.62782 98.1831C6.49795 98.9343 5.51423 98.9576 5.35189 99.8966L5.0409 101.695C4.91274 102.437 4.14941 102.692 4.48915 103.524C4.79643 104.544 3.92366 105.36 3.79379 106.112C3.69639 106.675 3.77488 107.656 3.64501 108.407C3.45021 109.533 3.11199 110.055 2.94965 110.994L2.03717 116.272C1.74496 117.962 2.2795 117.668 2.0847 118.795L1.5003 122.175C1.40749 122.431 1.37924 122.703 1.41722 122.975C1.45521 123.247 1.55866 123.513 1.72135 123.758C1.88404 124.003 2.10261 124.221 2.36393 124.4C2.62525 124.578 2.92392 124.714 3.24199 124.797L3.75977 124.887L9.89087 89.4228L9.3731 89.3333Z" fill="#C8EBD3"/>
<path d="M2.70404 124.078C0.544898 124.428 0.576251 127.362 0.576251 127.362C0.919786 129.42 1.51538 130.093 1.70696 131.241C1.83249 131.993 3.16332 132.544 3.03572 133.338C3.16125 134.09 2.24044 134.437 2.39734 135.377L2.69793 137.177C2.8218 137.919 2.18549 138.412 2.78108 139.085C3.40805 139.947 2.85383 141.005 2.97935 141.757C3.07349 142.321 3.47145 143.221 3.59698 143.973C3.78526 145.101 3.63834 145.705 3.79525 146.645L4.67721 151.928C4.95963 153.62 5.36694 153.166 5.55522 154.293L6.12008 157.677C6.11686 157.949 6.18 158.215 6.30569 158.459C6.43138 158.703 6.61703 158.921 6.85149 159.098C7.08594 159.276 7.36436 159.409 7.67 159.492C7.97564 159.574 8.30219 159.603 8.63003 159.577L9.14832 159.49L3.22233 123.991L2.70404 124.078Z" fill="#C8EBD3"/>
</svg>
