<?xml version="1.0" encoding="UTF-8"?>
<!DOCTYPE svg PUBLIC "-//W3C//DTD SVG 1.1//EN" "http://www.w3.org/Graphics/SVG/1.1/DTD/svg11.dtd">
<svg xmlns="http://www.w3.org/2000/svg" version="1.1" width="2480px" height="2480px" style="shape-rendering:geometricPrecision; text-rendering:geometricPrecision; image-rendering:optimizeQuality; fill-rule:evenodd; clip-rule:evenodd" xmlns:xlink="http://www.w3.org/1999/xlink">
<g><path style="opacity:0.98" fill="#050301" d="M 1114.5,600.5 C 1128.85,600.046 1142.02,603.712 1154,611.5C 1156.63,608.769 1159.79,606.936 1163.5,606C 1176.54,603.904 1188.37,606.737 1199,614.5C 1208.43,606.822 1218.6,605.656 1229.5,611C 1233.7,614.03 1238.03,616.863 1242.5,619.5C 1258.34,612.253 1274.34,611.753 1290.5,618C 1293.71,621.042 1296.71,624.209 1299.5,627.5C 1315.05,621.783 1330.72,621.283 1346.5,626C 1351.48,627.731 1355.64,630.564 1359,634.5C 1379.29,627.153 1398.13,629.819 1415.5,642.5C 1432.94,635.387 1447.44,639.053 1459,653.5C 1479.98,644.49 1499.48,647.156 1517.5,661.5C 1527.37,657.785 1537.37,657.619 1547.5,661C 1556.53,665.848 1564.87,671.682 1572.5,678.5C 1592.09,670.93 1609.42,674.43 1624.5,689C 1630.42,688.661 1636.09,688.161 1641.5,687.5C 1651.98,687.702 1661.65,690.536 1670.5,696C 1673.21,698.371 1675.54,701.037 1677.5,704C 1690,703.908 1702.33,705.241 1714.5,708C 1725.41,710.258 1733.41,716.258 1738.5,726C 1750.79,727.391 1762.79,730.058 1774.5,734C 1782.77,737.273 1788.77,742.94 1792.5,751C 1807.98,750.977 1822.98,753.643 1837.5,759C 1844.36,763.025 1849.69,768.525 1853.5,775.5C 1871.31,779.034 1888.31,784.867 1904.5,793C 1913.83,799.828 1918.83,808.995 1919.5,820.5C 1938.54,825.362 1952.37,836.696 1961,854.5C 1964.27,860.112 1964.11,865.612 1960.5,871C 1971.96,877.799 1981.46,886.632 1989,897.5C 1993.01,903.278 1994.34,909.612 1993,916.5C 1992.22,918.286 1991.05,919.786 1989.5,921C 1999.47,930.658 2006.63,942.158 2011,955.5C 2011.67,960.5 2011.67,965.5 2011,970.5C 2010.18,974.135 2008.35,977.135 2005.5,979.5C 2011.09,991.435 2014.76,1003.94 2016.5,1017C 2016.38,1026.46 2011.72,1032.46 2002.5,1035C 2009.29,1047.33 2012.62,1060.33 2012.5,1074C 2011.84,1077.14 2010.51,1079.97 2008.5,1082.5C 2027.11,1095.61 2043.27,1111.27 2057,1129.5C 2060.01,1134.87 2063.01,1140.2 2066,1145.5C 2072.59,1178.03 2070.59,1210.03 2060,1241.5C 2053.15,1256.67 2043.65,1269.84 2031.5,1281C 2022.94,1287.23 2014.1,1293.06 2005,1298.5C 2006.33,1308.42 2006.66,1318.42 2006,1328.5C 2005.58,1338.63 2000.75,1345.63 1991.5,1349.5C 1990.03,1349.28 1988.53,1348.94 1987,1348.5C 1985.51,1359.96 1981.85,1370.62 1976,1380.5C 1969.28,1389.42 1960.95,1391.75 1951,1387.5C 1945.96,1401.09 1937.46,1411.92 1925.5,1420C 1921.58,1421.47 1917.58,1422.64 1913.5,1423.5C 1937.87,1468.91 1961.71,1514.58 1985,1560.5C 1991.47,1577.71 1986.63,1590.54 1970.5,1599C 1957.99,1603.21 1945.32,1605.37 1932.5,1605.5C 1905.43,1609.87 1878.6,1612.2 1852,1612.5C 1841.87,1613.64 1831.71,1614.64 1821.5,1615.5C 1820.91,1615.29 1820.41,1614.96 1820,1614.5C 1798.82,1617.1 1777.65,1620.1 1756.5,1623.5C 1756.19,1628.58 1754.69,1633.25 1752,1637.5C 1747.62,1641.55 1742.95,1645.21 1738,1648.5C 1738.76,1659.87 1737.1,1671.21 1733,1682.5C 1728.6,1690.06 1722.1,1694.73 1713.5,1696.5C 1712.88,1711.11 1709.05,1724.78 1702,1737.5C 1697.76,1744.37 1691.59,1747.71 1683.5,1747.5C 1683.88,1759.52 1680.21,1770.02 1672.5,1779C 1669.99,1780.42 1667.66,1782.09 1665.5,1784C 1666.65,1792.09 1666.81,1800.25 1666,1808.5C 1664.02,1817.15 1659.02,1823.49 1651,1827.5C 1649.73,1838.85 1647.06,1849.85 1643,1860.5C 1637.76,1865.45 1631.76,1869.12 1625,1871.5C 1624.35,1885.12 1620.68,1897.78 1614,1909.5C 1611.34,1912 1608.34,1914 1605,1915.5C 1604.68,1930.44 1601.35,1944.78 1595,1958.5C 1589.29,1964.37 1582.46,1968.37 1574.5,1970.5C 1570.95,1980.43 1565.29,1988.93 1557.5,1996C 1548.64,2000.4 1539.31,2001.9 1529.5,2000.5C 1515.31,2009.95 1500.31,2011.11 1484.5,2004C 1476.34,1999.75 1468.34,1995.25 1460.5,1990.5C 1456.13,1992.01 1451.63,1993.01 1447,1993.5C 1435.18,1991.01 1423.68,1987.51 1412.5,1983C 1407.75,1978.88 1402.58,1975.38 1397,1972.5C 1380.46,1976.41 1365.96,1972.57 1353.5,1961C 1332.28,1965.91 1315.11,1959.74 1302,1942.5C 1299.53,1944.44 1296.7,1945.6 1293.5,1946C 1287.5,1946.67 1281.5,1946.67 1275.5,1946C 1273.9,1945.73 1272.4,1945.23 1271,1944.5C 1269.94,1954.55 1265.78,1963.05 1258.5,1970C 1241.64,1982.48 1222.64,1989.31 1201.5,1990.5C 1180.92,1990.68 1160.26,1987.18 1139.5,1980C 1124.01,1972.84 1110.51,1963.01 1099,1950.5C 1090.25,1932.54 1093.59,1917.21 1109,1904.5C 1109.61,1902.69 1109.28,1902.35 1108,1903.5C 1100,1901.61 1092.17,1899.11 1084.5,1896C 1078.77,1892.94 1073.6,1889.1 1069,1884.5C 1066.93,1885.52 1064.76,1886.36 1062.5,1887C 1054.83,1887.67 1047.17,1887.67 1039.5,1887C 1034.44,1885.64 1029.78,1883.47 1025.5,1880.5C 1005.84,1894 985.502,1906.5 964.5,1918C 956.469,1921.43 948.135,1923.09 939.5,1923C 935.554,1921.69 931.888,1919.86 928.5,1917.5C 920.915,1910.41 915.082,1902.08 911,1892.5C 905.287,1876.07 899.287,1859.74 893,1843.5C 885.664,1841.5 879.164,1838 873.5,1833C 855.085,1835.14 838.752,1830.31 824.5,1818.5C 818.014,1821.64 811.348,1822.14 804.5,1820C 789.325,1816.73 775.658,1810.4 763.5,1801C 753.188,1801.47 742.855,1801.47 732.5,1801C 722.377,1797.44 713.377,1792.11 705.5,1785C 688.021,1789.08 672.355,1785.25 658.5,1773.5C 644.315,1779.98 630.315,1779.48 616.5,1772C 610.317,1767.41 604.317,1762.57 598.5,1757.5C 589.256,1760.16 580.256,1759.33 571.5,1755C 565.411,1752.21 559.578,1749.04 554,1745.5C 539.267,1750.76 525.1,1749.26 511.5,1741C 508,1738.17 504.833,1735 502,1731.5C 480.822,1737.75 462.322,1733.08 446.5,1717.5C 432.332,1724.61 420.832,1721.61 412,1708.5C 410.226,1705.29 408.726,1701.95 407.5,1698.5C 397.51,1697.59 390.344,1692.59 386,1683.5C 381.647,1672.18 380.313,1660.51 382,1648.5C 315.357,1622.24 288.523,1573.57 301.5,1502.5C 300.814,1483.05 306.481,1465.55 318.5,1450C 311.037,1438.91 310.537,1427.41 317,1415.5C 324.276,1406.3 333.776,1402.8 345.5,1405C 344.36,1403.03 343.027,1401.19 341.5,1399.5C 333.075,1396.56 326.241,1391.56 321,1384.5C 316.55,1369.89 321.383,1359.39 335.5,1353C 346.234,1352.41 356.901,1351.41 367.5,1350C 366.525,1343.06 368.025,1336.56 372,1330.5C 378.058,1320.44 385.558,1311.61 394.5,1304C 394,1303.5 393.5,1303 393,1302.5C 391.426,1295.31 393.092,1288.98 398,1283.5C 410.208,1270.47 424.708,1260.8 441.5,1254.5C 438.759,1248.75 438.926,1243.09 442,1237.5C 449.859,1227.81 459.359,1220.14 470.5,1214.5C 470.833,1214 471.167,1213.5 471.5,1213C 466.599,1203.73 468.099,1195.56 476,1188.5C 486.037,1179.23 497.204,1171.56 509.5,1165.5C 508.151,1161.13 508.318,1156.79 510,1152.5C 515.331,1143.5 522.831,1137 532.5,1133C 538.709,1130.7 545.042,1128.86 551.5,1127.5C 551.868,1119.77 554.701,1113.1 560,1107.5C 567.261,1100.79 575.427,1095.45 584.5,1091.5C 583.868,1081.58 587.535,1073.42 595.5,1067C 606.421,1057.37 619.087,1051.21 633.5,1048.5C 634.735,1041.2 637.735,1034.7 642.5,1029C 640.623,1023.62 639.789,1018.12 640,1012.5C 643.285,1004.76 647.119,997.426 651.5,990.5C 651.423,988.701 650.923,987.034 650,985.5C 644.588,980.759 639.921,975.426 636,969.5C 632.638,950.721 638.805,935.888 654.5,925C 659.712,922.811 664.545,919.977 669,916.5C 670.154,912.228 670.988,907.894 671.5,903.5C 666.963,886.078 672.296,872.578 687.5,863C 695.433,859.839 703.433,859.673 711.5,862.5C 718.381,860.393 724.714,857.226 730.5,853C 736.01,851.003 741.344,850.503 746.5,851.5C 748.029,851.471 749.196,850.804 750,849.5C 747.871,844.679 746.371,839.513 745.5,834C 747.211,819.347 752.878,806.514 762.5,795.5C 753.529,788.629 752.029,780.296 758,770.5C 761.885,763.222 766.385,756.388 771.5,750C 766.548,741.866 766.715,733.7 772,725.5C 779.931,712.902 790.431,703.068 803.5,696C 801.02,687.439 803.354,680.439 810.5,675C 823.19,666.492 837.19,661.659 852.5,660.5C 853.19,652.292 857.523,646.792 865.5,644C 879.753,639.13 894.419,636.63 909.5,636.5C 908.27,625.133 913.27,618.299 924.5,616C 933.454,614.526 942.454,614.193 951.5,615C 958.181,616.237 964.848,617.404 971.5,618.5C 972.07,614.088 974.403,610.922 978.5,609C 991.318,601.943 1004.98,599.609 1019.5,602C 1027,603.207 1034.33,605.041 1041.5,607.5C 1047.42,603.486 1053.76,601.486 1060.5,601.5C 1073.52,602.952 1085.85,606.618 1097.5,612.5C 1101.55,606.108 1107.21,602.108 1114.5,600.5 Z"/></g>
<g><path style="opacity:1" fill="#eeae41" d="M 1985.5,932.5 C 1988.49,938.84 1990.66,945.507 1992,952.5C 1992.91,959.654 1992.24,966.654 1990,973.5C 1989.31,976.266 1987.81,976.933 1985.5,975.5C 1984.79,969.267 1981.45,966.767 1975.5,968C 1975,968.5 1974.5,969 1974,969.5C 1975.39,975.67 1976.22,982.003 1976.5,988.5C 1976.37,998.644 1975.21,1008.64 1973,1018.5C 1970.65,1023.43 1966.81,1025.26 1961.5,1024C 1958.47,1020.91 1955.31,1020.74 1952,1023.5C 1950.1,1035.99 1946.43,1047.99 1941,1059.5C 1938.07,1063.62 1934.23,1066.29 1929.5,1067.5C 1928.83,1062.85 1926.16,1061.35 1921.5,1063C 1913.79,1073.71 1904.46,1082.71 1893.5,1090C 1891.17,1090.67 1888.83,1090.67 1886.5,1090C 1884.62,1086.23 1881.62,1084.89 1877.5,1086C 1871.08,1094.75 1863.08,1101.75 1853.5,1107C 1847.66,1109.99 1843.33,1108.65 1840.5,1103C 1838.64,1101.7 1836.64,1101.37 1834.5,1102C 1828.46,1108.71 1821.79,1114.71 1814.5,1120C 1812.16,1120.84 1809.83,1121.67 1807.5,1122.5C 1805.39,1121.57 1803.39,1120.4 1801.5,1119C 1799.83,1118.33 1798.17,1118.33 1796.5,1119C 1788.27,1127.63 1778.27,1131.3 1766.5,1130C 1765.1,1143.33 1762.27,1156.49 1758,1169.5C 1756.89,1171.81 1755.06,1173.31 1752.5,1174C 1749.83,1174.33 1747.17,1174.67 1744.5,1175C 1744,1175.5 1743.5,1176 1743,1176.5C 1743.57,1190.31 1741.07,1203.47 1735.5,1216C 1731.24,1215.27 1727.07,1215.77 1723,1217.5C 1723.35,1230.11 1721.69,1242.45 1718,1254.5C 1716.94,1257.56 1715.11,1260.06 1712.5,1262C 1708.77,1262.07 1705.27,1262.9 1702,1264.5C 1701.08,1266.03 1700.58,1267.7 1700.5,1269.5C 1702.66,1281.84 1700,1293.01 1692.5,1303C 1689.5,1303.33 1686.5,1303.67 1683.5,1304C 1682,1304.83 1680.83,1306 1680,1307.5C 1679.67,1316.83 1679.33,1326.17 1679,1335.5C 1678.29,1340.19 1676.46,1344.36 1673.5,1348C 1669.51,1349.33 1665.51,1350.66 1661.5,1352C 1660.79,1353.25 1659.96,1354.42 1659,1355.5C 1658.58,1366.55 1657.58,1377.55 1656,1388.5C 1655.21,1390.59 1654.04,1392.42 1652.5,1394C 1649.19,1393.79 1645.86,1393.79 1642.5,1394C 1640.95,1395.21 1639.78,1396.71 1639,1398.5C 1640.44,1412.71 1637.94,1426.21 1631.5,1439C 1628.83,1439.33 1626.17,1439.67 1623.5,1440C 1622.67,1440.83 1621.83,1441.67 1621,1442.5C 1620.86,1455.74 1618.19,1468.4 1613,1480.5C 1610,1484.83 1605.83,1486.66 1600.5,1486C 1598.67,1486.5 1597.5,1487.67 1597,1489.5C 1596.9,1500.22 1596.24,1510.89 1595,1521.5C 1593.47,1529.58 1589.63,1536.24 1583.5,1541.5C 1580.39,1539.94 1577.55,1540.27 1575,1542.5C 1574.71,1551.58 1573.71,1560.58 1572,1569.5C 1571.16,1579.33 1566,1584.83 1556.5,1586C 1555.67,1586.83 1554.83,1587.67 1554,1588.5C 1553.88,1598.67 1551.38,1608.17 1546.5,1617C 1543.72,1619.15 1540.55,1620.32 1537,1620.5C 1533.21,1619.34 1529.38,1618.84 1525.5,1619C 1522.52,1622.59 1519.52,1626.25 1516.5,1630C 1511.22,1634.32 1505.22,1635.98 1498.5,1635C 1493.4,1632.43 1488.07,1631.1 1482.5,1631C 1478.29,1636.03 1472.96,1637.7 1466.5,1636C 1461.24,1635.1 1456.24,1633.43 1451.5,1631C 1446.11,1626.61 1440.44,1622.61 1434.5,1619C 1431.67,1618.03 1429.34,1618.7 1427.5,1621C 1417.68,1621.95 1408.68,1619.62 1400.5,1614C 1397.11,1610.95 1393.45,1608.28 1389.5,1606C 1385.84,1606.3 1382.18,1606.97 1378.5,1608C 1365.23,1610.13 1353.9,1606.47 1344.5,1597C 1341.74,1596.12 1339.08,1595.12 1336.5,1594C 1318.99,1599.76 1303.99,1595.76 1291.5,1582C 1284.48,1581.9 1277.48,1582.4 1270.5,1583.5C 1266.12,1583.38 1261.79,1582.88 1257.5,1582C 1250.9,1578.4 1244.57,1574.4 1238.5,1570C 1236.35,1569.42 1234.18,1568.92 1232,1568.5C 1220.93,1573.05 1210.43,1571.89 1200.5,1565C 1196.1,1561.61 1191.44,1558.61 1186.5,1556C 1180.97,1556.25 1175.47,1557.09 1170,1558.5C 1160.6,1556.37 1152.76,1551.54 1146.5,1544C 1137.91,1545.17 1129.24,1545.51 1120.5,1545C 1112.28,1542.56 1104.95,1538.56 1098.5,1533C 1091.14,1533.12 1083.81,1533.46 1076.5,1534C 1072.89,1532.86 1069.55,1531.19 1066.5,1529C 1063.8,1525.96 1060.8,1523.3 1057.5,1521C 1050.66,1522.79 1043.66,1523.45 1036.5,1523C 1029.39,1521.95 1023.72,1518.62 1019.5,1513C 1018.27,1512.22 1016.94,1511.72 1015.5,1511.5C 1005.07,1517.93 994.404,1518.1 983.5,1512C 981.383,1510.27 979.883,1508.1 979,1505.5C 977.786,1503.95 976.286,1502.78 974.5,1502C 957.969,1505.73 942.303,1503.4 927.5,1495C 923.098,1486.94 916.432,1484.28 907.5,1487C 898.67,1490.77 890.837,1489.27 884,1482.5C 883.084,1476.26 879.584,1474.09 873.5,1476C 859.63,1481.44 846.297,1480.44 833.5,1473C 831.68,1469.86 829.68,1466.86 827.5,1464C 820.265,1463.48 813.098,1463.98 806,1465.5C 790.765,1464.63 778.598,1458.13 769.5,1446C 760.215,1446.99 750.881,1447.33 741.5,1447C 735.868,1445.79 730.534,1443.79 725.5,1441C 723.043,1437.94 720.043,1435.61 716.5,1434C 700.456,1437.53 685.123,1435.53 670.5,1428C 666.252,1425.76 662.586,1422.76 659.5,1419C 654.853,1418.91 650.186,1419.08 645.5,1419.5C 635.385,1420.44 627.719,1416.61 622.5,1408C 615.808,1407.95 609.142,1408.45 602.5,1409.5C 595.643,1409.43 588.976,1408.26 582.5,1406C 576.877,1402.05 571.543,1397.71 566.5,1393C 564.5,1392.33 562.5,1392.33 560.5,1393C 554.349,1395.84 548.016,1396.18 541.5,1394C 533.04,1393.27 526.707,1389.27 522.5,1382C 505.174,1386.12 488.507,1384.12 472.5,1376C 468.843,1373.34 465.509,1370.34 462.5,1367C 452.814,1367.58 443.147,1368.24 433.5,1369C 426.167,1367 421.5,1362.33 419.5,1355C 417.577,1354.19 415.577,1353.69 413.5,1353.5C 410.062,1355.7 406.229,1357.04 402,1357.5C 399.307,1357.64 397.14,1356.64 395.5,1354.5C 392.394,1351.57 389.894,1348.24 388,1344.5C 387.066,1337.68 387.566,1331.01 389.5,1324.5C 395.598,1315.57 403.432,1308.57 413,1303.5C 413.993,1297.5 411.493,1295.33 405.5,1297C 404.333,1298.78 403.333,1298.78 402.5,1297C 406.356,1290.14 411.356,1284.14 417.5,1279C 431.818,1269.84 447.152,1262.84 463.5,1258C 466.978,1255.29 467.311,1252.29 464.5,1249C 460.998,1248.31 457.664,1248.81 454.5,1250.5C 448.754,1249.08 447.921,1246.08 452,1241.5C 465.15,1228.09 480.817,1218.75 499,1213.5C 500.5,1207 498,1204.5 491.5,1206C 488.595,1207.04 485.761,1208.2 483,1209.5C 481.108,1207.95 479.608,1206.11 478.5,1204C 480.67,1198.82 484.003,1194.49 488.5,1191C 494.5,1187 500.5,1183 506.5,1179C 513.969,1175.46 521.635,1172.62 529.5,1170.5C 531.04,1167.71 530.706,1165.21 528.5,1163C 517.385,1163.73 515.552,1159.9 523,1151.5C 528.067,1146.78 533.901,1143.28 540.5,1141C 550.49,1138.54 560.49,1136.2 570.5,1134C 574.103,1125.76 571.436,1122.93 562.5,1125.5C 562.547,1122.07 563.713,1119.07 566,1116.5C 576.563,1105.64 589.396,1099.14 604.5,1097C 608.872,1094.81 609.539,1091.81 606.5,1088C 603.798,1087.39 601.132,1087.56 598.5,1088.5C 596.539,1087.92 595.539,1086.59 595.5,1084.5C 599.279,1077.55 604.612,1072.05 611.5,1068C 623.886,1060.99 637.219,1056.99 651.5,1056C 654.592,1051.88 653.925,1048.55 649.5,1046C 647.576,1045.82 645.909,1045.65 644.5,1045.5C 649.757,1036.54 657.09,1029.7 666.5,1025C 674.257,1022.06 682.257,1020.06 690.5,1019C 692.68,1016.58 693.013,1013.92 691.5,1011C 687.27,1009.71 682.936,1009.21 678.5,1009.5C 678.596,1001.88 681.93,996.051 688.5,992C 700.755,985.943 713.422,981.109 726.5,977.5C 728.105,974.42 727.438,971.92 724.5,970C 721.429,969.853 718.596,969.02 716,967.5C 718.745,959.918 723.578,953.751 730.5,949C 740.721,943.26 751.221,938.093 762,933.5C 762.899,925.428 759.732,923.428 752.5,927.5C 751.353,925.235 751.186,922.902 752,920.5C 761.226,908.268 771.56,896.935 783,886.5C 783.34,881.178 780.84,879.011 775.5,880C 768.039,887.627 760.373,895.127 752.5,902.5C 750.282,901.076 748.782,899.076 748,896.5C 746.741,887.214 747.741,878.214 751,869.5C 754.704,861.529 758.871,853.862 763.5,846.5C 761.934,843.425 759.767,840.758 757,838.5C 755.945,826.997 758.945,816.664 766,807.5C 771.319,802.196 775.819,796.362 779.5,790C 777.535,783.842 774.201,783.009 769.5,787.5C 765.178,784.736 764.345,781.07 767,776.5C 772.29,764.542 780.457,755.042 791.5,748C 794.103,745.906 796.103,743.406 797.5,740.5C 796.398,736.233 793.731,734.733 789.5,736C 786.938,739.065 783.938,741.565 780.5,743.5C 778.605,741.133 778.105,738.466 779,735.5C 785.447,722.72 794.947,712.886 807.5,706C 813.878,703.878 820.044,701.378 826,698.5C 827.212,695.166 826.379,692.666 823.5,691C 819.83,691.159 816.163,691.659 812.5,692.5C 812.55,687.936 814.55,684.436 818.5,682C 837.323,670.883 857.323,667.883 878.5,673C 881.167,670 881.167,667 878.5,664C 873.692,662.107 868.692,661.273 863.5,661.5C 863.162,658.675 864.162,656.508 866.5,655C 883.171,648.095 900.504,645.762 918.5,648C 923.794,649.673 929.127,650.673 934.5,651C 936.68,648.582 937.013,645.916 935.5,643C 930.98,640.993 926.313,639.493 921.5,638.5C 917.686,631.626 919.686,627.459 927.5,626C 950.22,623.681 971.553,628.015 991.5,639C 998,640.5 1000.5,638 999,631.5C 993.686,628.616 988.186,626.116 982.5,624C 981.446,622.612 981.28,621.112 982,619.5C 990.204,613.712 999.37,611.045 1009.5,611.5C 1015.54,612.007 1021.54,612.84 1027.5,614C 1033.87,617.018 1040.54,618.351 1047.5,618C 1048.5,615.667 1050.17,614 1052.5,613C 1060.27,612.287 1067.94,612.953 1075.5,615C 1085.93,619.084 1096.26,623.251 1106.5,627.5C 1110.99,627.167 1112.49,624.833 1111,620.5C 1107.42,616.99 1107.92,614.157 1112.5,612C 1117.83,611.333 1123.17,611.333 1128.5,612C 1137.55,614.695 1146.21,618.195 1154.5,622.5C 1155.5,622.333 1156.5,622.167 1157.5,622C 1162.84,615.873 1169.51,613.873 1177.5,616C 1184.69,617.262 1190.69,620.596 1195.5,626C 1197.9,626.711 1200.23,626.544 1202.5,625.5C 1209.81,617.633 1218.14,616.466 1227.5,622C 1231.87,625.179 1236.21,628.346 1240.5,631.5C 1251.99,624.918 1264.32,622.418 1277.5,624C 1281.63,624.704 1285.13,626.537 1288,629.5C 1287.54,631.526 1286.7,633.526 1285.5,635.5C 1286.17,638.167 1287.83,639.833 1290.5,640.5C 1305.35,634.897 1320.68,632.73 1336.5,634C 1343.71,635.2 1349.38,638.866 1353.5,645C 1359.65,644.963 1365.65,643.629 1371.5,641C 1380.38,640.043 1389.05,641.043 1397.5,644C 1403.56,646.927 1409.06,650.427 1414,654.5C 1417.63,652.604 1421.47,651.104 1425.5,650C 1432.79,648.491 1439.46,649.824 1445.5,654C 1448.21,657.922 1451.04,661.756 1454,665.5C 1459.09,668.838 1462.93,667.671 1465.5,662C 1484.54,654.677 1500.88,658.677 1514.5,674C 1517.73,674.913 1519.73,677.08 1520.5,680.5C 1522.76,681.647 1525.1,681.814 1527.5,681C 1529.11,676.797 1528.45,672.964 1525.5,669.5C 1530.83,668.516 1536.17,668.682 1541.5,670C 1551.61,674.777 1560.61,681.111 1568.5,689C 1570.5,689.667 1572.5,689.667 1574.5,689C 1588.29,682.355 1601.29,683.689 1613.5,693C 1616.3,695.123 1618.3,697.79 1619.5,701C 1626.09,700.097 1632.75,699.264 1639.5,698.5C 1645.61,698.573 1651.61,699.407 1657.5,701C 1660.76,702.211 1663.59,704.044 1666,706.5C 1666.12,707.95 1665.95,709.45 1665.5,711C 1665.44,712.711 1666.11,714.044 1667.5,715C 1678.5,715.333 1689.5,715.667 1700.5,716C 1707.83,716.914 1714.83,718.914 1721.5,722C 1723.98,723.309 1725.98,725.142 1727.5,727.5C 1721.38,729.798 1720.05,733.632 1723.5,739C 1741.96,735.461 1759.62,738.128 1776.5,747C 1780.67,750.165 1783.17,754.332 1784,759.5C 1784.83,760.333 1785.67,761.167 1786.5,762C 1801.89,761.214 1816.89,763.214 1831.5,768C 1838.9,770.657 1843.06,775.824 1844,783.5C 1844.83,784.333 1845.67,785.167 1846.5,786C 1864.29,788.363 1881.29,793.363 1897.5,801C 1902.51,804.838 1906.17,809.671 1908.5,815.5C 1899.19,819.495 1899.19,823.662 1908.5,828C 1924.9,830.111 1937.73,837.944 1947,851.5C 1948.67,854.167 1950.33,856.833 1952,859.5C 1952.67,861.5 1952.67,863.5 1952,865.5C 1951.48,866.516 1950.65,867.182 1949.5,867.5C 1946,865.739 1942.34,865.239 1938.5,866C 1936.6,867.808 1936.1,869.975 1937,872.5C 1944.08,875.738 1951.25,878.904 1958.5,882C 1969.83,888.334 1978,897.501 1983,909.5C 1983.85,911.607 1983.19,912.941 1981,913.5C 1978.84,912.015 1976.68,910.515 1974.5,909C 1968.5,908.007 1966.33,910.507 1968,916.5C 1972.44,919.303 1976.6,922.469 1980.5,926C 1982.79,927.777 1984.46,929.944 1985.5,932.5 Z"/></g>
<g><path style="opacity:1" fill="#050302" d="M 1594.5,813.5 C 1591.48,813.335 1588.48,813.502 1585.5,814C 1586.53,814.513 1587.53,815.013 1588.5,815.5C 1607.32,818.954 1625.65,824.121 1643.5,831C 1650.16,833.287 1652.99,837.787 1652,844.5C 1645.71,849.75 1638.37,852.416 1630,852.5C 1610.82,850.923 1591.66,849.257 1572.5,847.5C 1569.83,847.833 1567.17,848.167 1564.5,848.5C 1577.15,867.039 1580.32,887.039 1574,908.5C 1566.85,916.967 1558.02,923.134 1547.5,927C 1507.45,939.714 1469.79,934.714 1434.5,912C 1430.32,906.992 1425.99,902.159 1421.5,897.5C 1416.94,910.795 1409.27,921.962 1398.5,931C 1444.86,946.183 1489.52,965.183 1532.5,988C 1559.64,1004.14 1584.14,1023.64 1606,1046.5C 1614.83,1058.82 1623.16,1071.49 1631,1084.5C 1637.19,1100.75 1643.19,1117.08 1649,1133.5C 1649.66,1138.56 1649.33,1143.56 1648,1148.5C 1647.65,1150.85 1646.49,1152.68 1644.5,1154C 1640.93,1155.4 1637.26,1155.74 1633.5,1155C 1631.33,1153.41 1629,1152.08 1626.5,1151C 1617.23,1140.29 1609.06,1128.79 1602,1116.5C 1593.05,1104.54 1583.71,1092.88 1574,1081.5C 1566.46,1074.29 1558.63,1067.46 1550.5,1061C 1530.4,1051.63 1510.07,1042.63 1489.5,1034C 1446.39,1016.78 1403.05,1000.11 1359.5,984C 1301.23,969.012 1242.89,954.345 1184.5,940C 1160.85,936.225 1137.18,932.558 1113.5,929C 1084.23,925.512 1054.9,924.512 1025.5,926C 1019.24,927.655 1012.91,928.988 1006.5,930C 979.006,939.276 951.339,947.943 923.5,956C 915.185,957.441 906.852,958.775 898.5,960C 889.747,960.525 881.081,959.858 872.5,958C 864.595,952.185 864.595,946.185 872.5,940C 889.911,927.623 908.577,917.29 928.5,909C 949.11,900.018 970.11,892.018 991.5,885C 1007.62,881.382 1023.96,879.382 1040.5,879C 1066.17,878.333 1091.83,878.333 1117.5,879C 1162.86,883.628 1207.86,890.628 1252.5,900C 1256.48,900.785 1260.31,901.951 1264,903.5C 1263.98,900.43 1263.32,897.43 1262,894.5C 1261.83,885.814 1261.33,877.148 1260.5,868.5C 1239.78,865.484 1220.78,858.151 1203.5,846.5C 1184.47,831.782 1177.97,812.782 1184,789.5C 1185.66,785.504 1187.83,781.837 1190.5,778.5C 1195.32,774.182 1199.99,769.682 1204.5,765C 1207.53,762.484 1210.87,760.484 1214.5,759C 1200.05,752.607 1185.71,745.94 1171.5,739C 1167.42,736.925 1163.92,734.092 1161,730.5C 1158.29,725.696 1159.46,722.196 1164.5,720C 1168.11,719.116 1171.78,718.616 1175.5,718.5C 1184.83,719.998 1194.16,721.165 1203.5,722C 1193.75,715.241 1183.75,708.907 1173.5,703C 1171.33,700.833 1169.17,698.667 1167,696.5C 1163.6,689.499 1165.43,684.665 1172.5,682C 1179.62,681.283 1186.62,681.95 1193.5,684C 1241.6,697.048 1284.93,719.048 1323.5,750C 1332.36,758.53 1340.86,767.363 1349,776.5C 1353.5,782.504 1356.67,789.17 1358.5,796.5C 1357.78,798.944 1356.78,801.278 1355.5,803.5C 1357.27,804.187 1358.94,805.02 1360.5,806C 1377.95,807.308 1392.78,814.141 1405,826.5C 1409.78,834.839 1413.78,843.506 1417,852.5C 1418.84,848.828 1420.67,845.162 1422.5,841.5C 1415.48,831.553 1415.98,821.886 1424,812.5C 1440.08,800.712 1457.92,792.545 1477.5,788C 1504.13,781.573 1531.13,778.073 1558.5,777.5C 1579.65,778.603 1600.65,781.103 1621.5,785C 1627.62,787.029 1633.62,789.363 1639.5,792C 1645.35,797.909 1644.68,802.909 1637.5,807C 1623.49,811.21 1609.16,813.377 1594.5,813.5 Z"/></g>
<g><path style="opacity:1" fill="#fcfcfc" d="M 1247.5,756.5 C 1256.21,756.299 1264.87,756.799 1273.5,758C 1268.26,759.737 1263.76,762.57 1260,766.5C 1258.45,768.768 1257.61,771.268 1257.5,774C 1259.12,781.898 1263.46,787.898 1270.5,792C 1283.05,798.841 1296.39,800.841 1310.5,798C 1313.38,796.749 1315.21,794.583 1316,791.5C 1316.5,787.35 1316.16,783.35 1315,779.5C 1322.77,786.884 1328.94,795.384 1333.5,805C 1306.3,810.173 1284.8,824.006 1269,846.5C 1267.5,850.838 1265.5,854.838 1263,858.5C 1238.33,855.956 1217.33,845.956 1200,828.5C 1192.33,819.143 1189.66,808.476 1192,796.5C 1204.16,774.188 1222.66,760.855 1247.5,756.5 Z"/></g>
<g><path style="opacity:1" fill="#805d23" d="M 1594.5,813.5 C 1592.5,814.167 1590.5,814.833 1588.5,815.5C 1587.53,815.013 1586.53,814.513 1585.5,814C 1588.48,813.502 1591.48,813.335 1594.5,813.5 Z"/></g>
<g><path style="opacity:1" fill="#e697ba" d="M 1334.5,814.5 C 1351.03,813.842 1367.03,816.342 1382.5,822C 1393.46,826.958 1400.96,835.125 1405,846.5C 1406.93,850.693 1408.59,855.026 1410,859.5C 1418.71,905.236 1399.88,930.403 1353.5,935C 1328.4,938.809 1306.07,932.809 1286.5,917C 1278.49,910.818 1273.65,902.651 1272,892.5C 1268.39,870.335 1274.56,851.502 1290.5,836C 1296.66,831.42 1302.99,827.086 1309.5,823C 1317.84,819.831 1326.17,816.998 1334.5,814.5 Z"/></g>
<g><path style="opacity:1" fill="#fdfdfd" d="M 1503.5,823.5 C 1513.22,823.625 1522.55,826.125 1531.5,831C 1548.71,841.871 1560.21,857.037 1566,876.5C 1569.31,888.327 1567.47,899.16 1560.5,909C 1539.56,921.588 1516.9,926.255 1492.5,923C 1468.37,920.515 1447.87,910.681 1431,893.5C 1426.5,888.007 1423.34,881.84 1421.5,875C 1422.57,865.869 1425.4,857.369 1430,849.5C 1438.67,839.255 1449.17,831.588 1461.5,826.5C 1461.83,826.667 1462.17,826.833 1462.5,827C 1452.13,838.054 1453.46,847.388 1466.5,855C 1482.13,858.686 1496.79,856.353 1510.5,848C 1517.27,842.593 1518.27,836.259 1513.5,829C 1510.3,826.901 1506.97,825.067 1503.5,823.5 Z"/></g>
<g><path style="opacity:1" fill="#399f62" d="M 735.5,861.5 C 738.187,861.336 740.854,861.503 743.5,862C 737.876,873.177 736.043,885.01 738,897.5C 739.33,902.829 742.163,907.162 746.5,910.5C 741.737,916.801 740.237,923.801 742,931.5C 726.468,937.903 714.468,948.237 706,962.5C 705.196,966.204 705.696,969.704 707.5,973C 696.951,975.954 687.285,980.621 678.5,987C 670.097,993.877 667.097,1002.54 669.5,1013C 663.139,1015.26 657.306,1018.43 652,1022.5C 650.43,1019.37 650.097,1016.03 651,1012.5C 653.171,1008.16 655.837,1004.16 659,1000.5C 663.867,992.913 663.534,985.58 658,978.5C 641.698,964.779 641.531,950.613 657.5,936C 663.407,933.097 669.073,929.764 674.5,926C 679.401,919.047 681.734,911.213 681.5,902.5C 677.735,890.51 680.735,880.676 690.5,873C 693.009,871.664 695.676,870.83 698.5,870.5C 707.413,873.641 716.079,873.141 724.5,869C 728.233,866.477 731.899,863.977 735.5,861.5 Z"/></g>
<g><path style="opacity:1" fill="#c23e81" d="M 1039.5,888.5 C 1093.28,886.619 1146.61,890.452 1199.5,900C 1215.76,903.371 1232.1,906.371 1248.5,909C 1255.44,911.203 1262.44,913.203 1269.5,915C 1291.49,938.973 1318.83,948.973 1351.5,945C 1363.63,943.843 1375.46,941.343 1387,937.5C 1447.07,956.786 1503.9,982.953 1557.5,1016C 1567.35,1023.76 1577.02,1031.76 1586.5,1040C 1598.19,1053.87 1609.02,1068.37 1619,1083.5C 1627.19,1100.95 1633.86,1118.95 1639,1137.5C 1639.9,1140.47 1639.4,1143.13 1637.5,1145.5C 1634.86,1144.03 1632.36,1142.36 1630,1140.5C 1615.49,1118.32 1599.83,1096.99 1583,1076.5C 1569.23,1060.87 1552.73,1049.03 1533.5,1041C 1490.78,1024.2 1448.11,1007.2 1405.5,990C 1380.83,982 1356.17,974 1331.5,966C 1282.72,954.306 1234.06,942.306 1185.5,930C 1163.16,926.415 1140.82,922.749 1118.5,919C 1101.17,917.597 1083.84,916.263 1066.5,915C 1044.82,913.335 1023.48,915.335 1002.5,921C 975.883,929.539 949.217,937.872 922.5,946C 912.369,947.76 902.202,949.26 892,950.5C 887.405,950.439 882.905,949.772 878.5,948.5C 886.148,942.006 894.481,936.506 903.5,932C 925.904,921.634 948.571,911.634 971.5,902C 981.272,899.277 990.939,896.277 1000.5,893C 1013.61,891.069 1026.61,889.569 1039.5,888.5 Z"/></g>
<g><path style="opacity:1" fill="#cfa152" d="M 1985.5,932.5 C 1995.59,942.006 2000.75,953.673 2001,967.5C 1998.75,969.816 1996.42,972.15 1994,974.5C 1993.83,975.5 1993.67,976.5 1993.5,977.5C 1996.95,985.694 2000.12,994.027 2003,1002.5C 2005.26,1008.66 2005.93,1015 2005,1021.5C 2002.67,1023.17 2000.33,1024.83 1998,1026.5C 1997.21,1020.71 1994.05,1018.54 1988.5,1020C 1987.2,1020.8 1986.53,1021.97 1986.5,1023.5C 1990.33,1032.49 1994.16,1041.49 1998,1050.5C 2001.08,1058.24 2002.08,1066.24 2001,1074.5C 1998.16,1077.34 1995.99,1076.84 1994.5,1073C 1990.02,1070.28 1987.02,1071.28 1985.5,1076C 1989.46,1084.76 1993.3,1093.6 1997,1102.5C 1999.26,1110.37 1999.92,1118.37 1999,1126.5C 1998.16,1130.5 1995.66,1132.5 1991.5,1132.5C 1990.19,1126.12 1986.86,1124.45 1981.5,1127.5C 1981.34,1137.78 1981.18,1148.11 1981,1158.5C 1980.03,1164.75 1977.53,1170.25 1973.5,1175C 1971.26,1175.98 1968.93,1176.48 1966.5,1176.5C 1967.13,1173.51 1967.3,1170.51 1967,1167.5C 1962.82,1163.21 1959.49,1163.87 1957,1169.5C 1953.58,1184.51 1946.42,1197.34 1935.5,1208C 1931.92,1211.03 1927.92,1211.86 1923.5,1210.5C 1925.72,1207.39 1927.39,1204.06 1928.5,1200.5C 1928.17,1196.01 1925.83,1194.51 1921.5,1196C 1917.79,1201.92 1913.96,1207.75 1910,1213.5C 1906.57,1216.26 1903.91,1219.59 1902,1223.5C 1896.53,1230.65 1889.36,1233.49 1880.5,1232C 1883.23,1230.12 1884.9,1227.62 1885.5,1224.5C 1884.89,1220.52 1882.55,1219.02 1878.5,1220C 1873.27,1225.24 1868.77,1231.07 1865,1237.5C 1861.45,1240.72 1857.61,1243.55 1853.5,1246C 1850.83,1246.67 1848.17,1246.67 1845.5,1246C 1843.83,1244.33 1842.17,1242.67 1840.5,1241C 1838.83,1240.33 1837.17,1240.33 1835.5,1241C 1831.83,1245.33 1828.17,1249.67 1824.5,1254C 1818.04,1259.81 1810.54,1263.65 1802,1265.5C 1800.17,1265.48 1798.67,1264.81 1797.5,1263.5C 1796.08,1262.55 1794.41,1262.22 1792.5,1262.5C 1792.82,1258.3 1792.48,1254.3 1791.5,1250.5C 1789.37,1244.84 1786.21,1244.18 1782,1248.5C 1782.3,1262.67 1780.64,1276.67 1777,1290.5C 1775.22,1295.11 1772.06,1298.11 1767.5,1299.5C 1769.32,1292.18 1766.65,1288.68 1759.5,1289C 1759,1289.5 1758.5,1290 1758,1290.5C 1758.89,1304.17 1758.56,1317.84 1757,1331.5C 1756.26,1335.39 1754.93,1339.05 1753,1342.5C 1751.89,1344.04 1750.39,1344.7 1748.5,1344.5C 1748.66,1341.48 1748.5,1338.48 1748,1335.5C 1745,1332.83 1742,1332.83 1739,1335.5C 1740.18,1349.63 1739.18,1363.63 1736,1377.5C 1735.41,1382.36 1733.08,1386.03 1729,1388.5C 1728.23,1384.85 1727.56,1381.19 1727,1377.5C 1723.19,1374.46 1720.19,1375.13 1718,1379.5C 1719.04,1388.44 1719.38,1397.44 1719,1406.5C 1718.22,1413.42 1716.55,1420.09 1714,1426.5C 1711.71,1430.03 1709.05,1430.7 1706,1428.5C 1705.94,1425.22 1705.11,1422.22 1703.5,1419.5C 1700.38,1417.91 1697.88,1418.57 1696,1421.5C 1696.92,1431.6 1697.42,1441.77 1697.5,1452C 1698.04,1463.04 1696.88,1473.87 1694,1484.5C 1692.11,1487.24 1689.61,1488.91 1686.5,1489.5C 1686.51,1485.01 1685.51,1480.84 1683.5,1477C 1679.79,1474.79 1676.96,1475.62 1675,1479.5C 1675.54,1492.47 1675.54,1505.47 1675,1518.5C 1673.6,1525.04 1671.6,1531.37 1669,1537.5C 1667.74,1539.61 1665.9,1540.61 1663.5,1540.5C 1663.67,1537.15 1663.5,1533.82 1663,1530.5C 1660.29,1527.02 1657.29,1526.69 1654,1529.5C 1653.78,1544.19 1653.11,1558.86 1652,1573.5C 1650.53,1578.24 1648.86,1582.91 1647,1587.5C 1645.59,1590.41 1643.43,1592.41 1640.5,1593.5C 1638.9,1591.14 1637.9,1588.48 1637.5,1585.5C 1634.71,1582.91 1631.87,1582.91 1629,1585.5C 1629.92,1603.31 1627.59,1620.65 1622,1637.5C 1619.81,1639.54 1617.31,1640.87 1614.5,1641.5C 1615.76,1636.58 1613.93,1633.91 1609,1633.5C 1607.29,1633.44 1605.96,1634.11 1605,1635.5C 1603.71,1646.4 1603.04,1657.4 1603,1668.5C 1602.32,1674.23 1601.32,1679.89 1600,1685.5C 1598.13,1691.84 1593.96,1694.84 1587.5,1694.5C 1587.01,1686.18 1583.51,1684.51 1577,1689.5C 1577.98,1695.76 1578.98,1702.1 1580,1708.5C 1580.67,1715.5 1580.67,1722.5 1580,1729.5C 1579.19,1734.48 1576.36,1737.15 1571.5,1737.5C 1571.4,1730.2 1568.23,1728.2 1562,1731.5C 1562.89,1740.61 1561.22,1749.28 1557,1757.5C 1552.56,1763.27 1546.72,1765.1 1539.5,1763C 1535.02,1761.93 1531.35,1759.59 1528.5,1756C 1526.17,1755.33 1523.83,1755.33 1521.5,1756C 1521.04,1760.44 1521.04,1764.77 1521.5,1769C 1512.04,1772.7 1502.38,1773.36 1492.5,1771C 1484.05,1767.02 1475.55,1763.19 1467,1759.5C 1462.6,1760.59 1461.43,1763.25 1463.5,1767.5C 1464.67,1768.58 1466,1769.42 1467.5,1770C 1461.08,1774.54 1454.08,1775.54 1446.5,1773C 1434.06,1766.24 1423.06,1757.57 1413.5,1747C 1410.65,1746.06 1408.15,1746.56 1406,1748.5C 1405.95,1751.28 1405.78,1753.94 1405.5,1756.5C 1402.9,1757.56 1400.23,1757.73 1397.5,1757C 1389.63,1753.46 1383.29,1748.12 1378.5,1741C 1376.83,1740.33 1375.17,1740.33 1373.5,1741C 1370.82,1743.9 1367.49,1745.07 1363.5,1744.5C 1355.87,1744.52 1349.21,1742.02 1343.5,1737C 1339.81,1733.31 1336.14,1729.64 1332.5,1726C 1329.07,1725.54 1326.07,1726.54 1323.5,1729C 1311.82,1730.33 1302.82,1725.99 1296.5,1716C 1294.09,1714.12 1291.42,1713.45 1288.5,1714C 1280.58,1719.59 1271.91,1720.92 1262.5,1718C 1255.47,1715.49 1249.47,1711.49 1244.5,1706C 1242,1705.5 1239.5,1705 1237,1704.5C 1234.48,1705.51 1231.98,1706.67 1229.5,1708C 1221.02,1710.3 1213.36,1708.63 1206.5,1703C 1203.84,1700.33 1202,1697.16 1201,1693.5C 1198.72,1692.91 1196.55,1692.08 1194.5,1691C 1187.88,1691.55 1181.21,1692.05 1174.5,1692.5C 1170.1,1692.52 1165.76,1692.02 1161.5,1691C 1149.75,1686.62 1138.75,1680.96 1128.5,1674C 1120.34,1674.24 1112.18,1674.74 1104,1675.5C 1093.98,1675.61 1084.48,1673.44 1075.5,1669C 1069.91,1664.25 1063.91,1660.08 1057.5,1656.5C 1048.56,1660.33 1039.22,1661.5 1029.5,1660C 1020.47,1656.64 1012.81,1651.31 1006.5,1644C 1002.6,1643.26 998.932,1643.93 995.5,1646C 979.905,1647.97 965.905,1644.13 953.5,1634.5C 951.31,1632.14 949.31,1629.64 947.5,1627C 928.694,1632.18 913.694,1626.84 902.5,1611C 900.5,1610.33 898.5,1610.33 896.5,1611C 884.615,1618.06 874.281,1616.06 865.5,1605C 847.239,1609.02 831.572,1604.36 818.5,1591C 811.015,1592.44 803.349,1593.1 795.5,1593C 787.057,1590.95 780.057,1586.61 774.5,1580C 763.625,1581.75 752.625,1582.75 741.5,1583C 730.71,1580.11 721.71,1574.44 714.5,1566C 700.44,1569.19 687.107,1567.19 674.5,1560C 671.848,1556.5 668.514,1554 664.5,1552.5C 657.59,1553.07 650.59,1554.07 643.5,1555.5C 628.585,1553.71 616.252,1547.21 606.5,1536C 598.607,1537.3 590.607,1537.96 582.5,1538C 576.023,1535.2 570.356,1531.2 565.5,1526C 555.63,1527.97 545.63,1528.64 535.5,1528C 522.652,1526.24 511.319,1521.24 501.5,1513C 493.307,1513.24 485.14,1514.08 477,1515.5C 468.555,1514.35 460.388,1512.18 452.5,1509C 445.187,1504.21 441.687,1497.37 442,1488.5C 435.278,1484.53 431.945,1486.53 432,1494.5C 423.644,1498.68 415.644,1498.02 408,1492.5C 406.39,1488.56 403.723,1485.56 400,1483.5C 394.989,1473.79 392.322,1463.46 392,1452.5C 389.847,1450.56 387.347,1450.06 384.5,1451C 383.089,1454 382.089,1457.16 381.5,1460.5C 378.435,1459.6 376.602,1457.6 376,1454.5C 374.995,1445.17 376.329,1436.17 380,1427.5C 383.994,1418.84 388.494,1410.51 393.5,1402.5C 392.359,1398.01 389.692,1396.68 385.5,1398.5C 383.823,1400.54 382.156,1402.54 380.5,1404.5C 376.685,1402.61 375.019,1399.45 375.5,1395C 375.859,1388.87 377.359,1383.03 380,1377.5C 383.985,1371.02 387.818,1364.52 391.5,1358C 389.721,1352.17 386.221,1351.01 381,1354.5C 379.012,1353.18 377.845,1351.35 377.5,1349C 378.727,1339.38 382.727,1331.21 389.5,1324.5C 387.566,1331.01 387.066,1337.68 388,1344.5C 389.894,1348.24 392.394,1351.57 395.5,1354.5C 397.14,1356.64 399.307,1357.64 402,1357.5C 406.229,1357.04 410.062,1355.7 413.5,1353.5C 415.577,1353.69 417.577,1354.19 419.5,1355C 421.5,1362.33 426.167,1367 433.5,1369C 443.147,1368.24 452.814,1367.58 462.5,1367C 465.509,1370.34 468.843,1373.34 472.5,1376C 488.507,1384.12 505.174,1386.12 522.5,1382C 526.707,1389.27 533.04,1393.27 541.5,1394C 548.016,1396.18 554.349,1395.84 560.5,1393C 562.5,1392.33 564.5,1392.33 566.5,1393C 571.543,1397.71 576.877,1402.05 582.5,1406C 588.976,1408.26 595.643,1409.43 602.5,1409.5C 609.142,1408.45 615.808,1407.95 622.5,1408C 627.719,1416.61 635.385,1420.44 645.5,1419.5C 650.186,1419.08 654.853,1418.91 659.5,1419C 662.586,1422.76 666.252,1425.76 670.5,1428C 685.123,1435.53 700.456,1437.53 716.5,1434C 720.043,1435.61 723.043,1437.94 725.5,1441C 730.534,1443.79 735.868,1445.79 741.5,1447C 750.881,1447.33 760.215,1446.99 769.5,1446C 778.598,1458.13 790.765,1464.63 806,1465.5C 813.098,1463.98 820.265,1463.48 827.5,1464C 829.68,1466.86 831.68,1469.86 833.5,1473C 846.297,1480.44 859.63,1481.44 873.5,1476C 879.584,1474.09 883.084,1476.26 884,1482.5C 890.837,1489.27 898.67,1490.77 907.5,1487C 916.432,1484.28 923.098,1486.94 927.5,1495C 942.303,1503.4 957.969,1505.73 974.5,1502C 976.286,1502.78 977.786,1503.95 979,1505.5C 979.883,1508.1 981.383,1510.27 983.5,1512C 994.404,1518.1 1005.07,1517.93 1015.5,1511.5C 1016.94,1511.72 1018.27,1512.22 1019.5,1513C 1023.72,1518.62 1029.39,1521.95 1036.5,1523C 1043.66,1523.45 1050.66,1522.79 1057.5,1521C 1060.8,1523.3 1063.8,1525.96 1066.5,1529C 1069.55,1531.19 1072.89,1532.86 1076.5,1534C 1083.81,1533.46 1091.14,1533.12 1098.5,1533C 1104.95,1538.56 1112.28,1542.56 1120.5,1545C 1129.24,1545.51 1137.91,1545.17 1146.5,1544C 1152.76,1551.54 1160.6,1556.37 1170,1558.5C 1175.47,1557.09 1180.97,1556.25 1186.5,1556C 1191.44,1558.61 1196.1,1561.61 1200.5,1565C 1210.43,1571.89 1220.93,1573.05 1232,1568.5C 1234.18,1568.92 1236.35,1569.42 1238.5,1570C 1244.57,1574.4 1250.9,1578.4 1257.5,1582C 1261.79,1582.88 1266.12,1583.38 1270.5,1583.5C 1277.48,1582.4 1284.48,1581.9 1291.5,1582C 1303.99,1595.76 1318.99,1599.76 1336.5,1594C 1339.08,1595.12 1341.74,1596.12 1344.5,1597C 1353.9,1606.47 1365.23,1610.13 1378.5,1608C 1382.18,1606.97 1385.84,1606.3 1389.5,1606C 1393.45,1608.28 1397.11,1610.95 1400.5,1614C 1408.68,1619.62 1417.68,1621.95 1427.5,1621C 1429.34,1618.7 1431.67,1618.03 1434.5,1619C 1440.44,1622.61 1446.11,1626.61 1451.5,1631C 1456.24,1633.43 1461.24,1635.1 1466.5,1636C 1472.96,1637.7 1478.29,1636.03 1482.5,1631C 1488.07,1631.1 1493.4,1632.43 1498.5,1635C 1505.22,1635.98 1511.22,1634.32 1516.5,1630C 1519.52,1626.25 1522.52,1622.59 1525.5,1619C 1529.38,1618.84 1533.21,1619.34 1537,1620.5C 1540.55,1620.32 1543.72,1619.15 1546.5,1617C 1551.38,1608.17 1553.88,1598.67 1554,1588.5C 1554.83,1587.67 1555.67,1586.83 1556.5,1586C 1566,1584.83 1571.16,1579.33 1572,1569.5C 1573.71,1560.58 1574.71,1551.58 1575,1542.5C 1577.55,1540.27 1580.39,1539.94 1583.5,1541.5C 1589.63,1536.24 1593.47,1529.58 1595,1521.5C 1596.24,1510.89 1596.9,1500.22 1597,1489.5C 1597.5,1487.67 1598.67,1486.5 1600.5,1486C 1605.83,1486.66 1610,1484.83 1613,1480.5C 1618.19,1468.4 1620.86,1455.74 1621,1442.5C 1621.83,1441.67 1622.67,1440.83 1623.5,1440C 1626.17,1439.67 1628.83,1439.33 1631.5,1439C 1637.94,1426.21 1640.44,1412.71 1639,1398.5C 1639.78,1396.71 1640.95,1395.21 1642.5,1394C 1645.86,1393.79 1649.19,1393.79 1652.5,1394C 1654.04,1392.42 1655.21,1390.59 1656,1388.5C 1657.58,1377.55 1658.58,1366.55 1659,1355.5C 1659.96,1354.42 1660.79,1353.25 1661.5,1352C 1665.51,1350.66 1669.51,1349.33 1673.5,1348C 1676.46,1344.36 1678.29,1340.19 1679,1335.5C 1679.33,1326.17 1679.67,1316.83 1680,1307.5C 1680.83,1306 1682,1304.83 1683.5,1304C 1686.5,1303.67 1689.5,1303.33 1692.5,1303C 1700,1293.01 1702.66,1281.84 1700.5,1269.5C 1700.58,1267.7 1701.08,1266.03 1702,1264.5C 1705.27,1262.9 1708.77,1262.07 1712.5,1262C 1715.11,1260.06 1716.94,1257.56 1718,1254.5C 1721.69,1242.45 1723.35,1230.11 1723,1217.5C 1727.07,1215.77 1731.24,1215.27 1735.5,1216C 1741.07,1203.47 1743.57,1190.31 1743,1176.5C 1743.5,1176 1744,1175.5 1744.5,1175C 1747.17,1174.67 1749.83,1174.33 1752.5,1174C 1755.06,1173.31 1756.89,1171.81 1758,1169.5C 1762.27,1156.49 1765.1,1143.33 1766.5,1130C 1778.27,1131.3 1788.27,1127.63 1796.5,1119C 1798.17,1118.33 1799.83,1118.33 1801.5,1119C 1803.39,1120.4 1805.39,1121.57 1807.5,1122.5C 1809.83,1121.67 1812.16,1120.84 1814.5,1120C 1821.79,1114.71 1828.46,1108.71 1834.5,1102C 1836.64,1101.37 1838.64,1101.7 1840.5,1103C 1843.33,1108.65 1847.66,1109.99 1853.5,1107C 1863.08,1101.75 1871.08,1094.75 1877.5,1086C 1881.62,1084.89 1884.62,1086.23 1886.5,1090C 1888.83,1090.67 1891.17,1090.67 1893.5,1090C 1904.46,1082.71 1913.79,1073.71 1921.5,1063C 1926.16,1061.35 1928.83,1062.85 1929.5,1067.5C 1934.23,1066.29 1938.07,1063.62 1941,1059.5C 1946.43,1047.99 1950.1,1035.99 1952,1023.5C 1955.31,1020.74 1958.47,1020.91 1961.5,1024C 1966.81,1025.26 1970.65,1023.43 1973,1018.5C 1975.21,1008.64 1976.37,998.644 1976.5,988.5C 1976.22,982.003 1975.39,975.67 1974,969.5C 1974.5,969 1975,968.5 1975.5,968C 1981.45,966.767 1984.79,969.267 1985.5,975.5C 1987.81,976.933 1989.31,976.266 1990,973.5C 1992.24,966.654 1992.91,959.654 1992,952.5C 1990.66,945.507 1988.49,938.84 1985.5,932.5 Z"/></g>
<g><path style="opacity:1" fill="#fefefe" d="M 1188.5,1046.5 C 1203.82,1048.8 1219.15,1051.96 1234.5,1056C 1238.21,1057.69 1239.38,1060.52 1238,1064.5C 1227.13,1077.54 1217.63,1091.54 1209.5,1106.5C 1210.09,1107.8 1211.09,1108.63 1212.5,1109C 1223.62,1111.76 1234.79,1114.26 1246,1116.5C 1246.5,1116.17 1247,1115.83 1247.5,1115.5C 1258.29,1100.09 1268.96,1084.59 1279.5,1069C 1284.21,1068.5 1288.87,1068.84 1293.5,1070C 1303.34,1072.97 1313.34,1075.3 1323.5,1077C 1327.91,1077.75 1329.41,1080.25 1328,1084.5C 1317,1100.49 1306.5,1116.83 1296.5,1133.5C 1308.17,1137.8 1320.17,1140.96 1332.5,1143C 1359.49,1152.32 1377.32,1170.49 1386,1197.5C 1388.71,1212.58 1384.21,1225.08 1372.5,1235C 1365.83,1240.34 1358.49,1244.67 1350.5,1248C 1338.64,1251.8 1326.64,1254.96 1314.5,1257.5C 1330.67,1267.69 1345.5,1279.69 1359,1293.5C 1368.54,1306.05 1371.2,1320.05 1367,1335.5C 1365.33,1338.5 1363.67,1341.5 1362,1344.5C 1338.12,1372.37 1307.95,1389.87 1271.5,1397C 1245.71,1400.8 1220.05,1400.14 1194.5,1395C 1182.12,1391.82 1169.79,1388.49 1157.5,1385C 1154.2,1384 1150.87,1383.67 1147.5,1384C 1139.7,1399.1 1130.54,1413.27 1120,1426.5C 1118.33,1429.83 1116.67,1433.17 1115,1436.5C 1113.87,1437.94 1112.37,1438.61 1110.5,1438.5C 1097.54,1435.51 1084.54,1432.68 1071.5,1430C 1066.95,1428.14 1062.78,1425.64 1059,1422.5C 1058.43,1418.96 1059.1,1415.62 1061,1412.5C 1069.77,1397.4 1078.94,1382.57 1088.5,1368C 1086.61,1367.03 1084.61,1366.36 1082.5,1366C 1070.81,1364.19 1059.31,1361.69 1048,1358.5C 1043.85,1362.8 1040.18,1367.47 1037,1372.5C 1030.82,1386.21 1022.65,1398.54 1012.5,1409.5C 1011.5,1409.83 1010.5,1410.17 1009.5,1410.5C 992.753,1407.47 976.087,1404.3 959.5,1401C 958.17,1398.12 958.336,1395.29 960,1392.5C 968.753,1379.33 977.753,1366.33 987,1353.5C 988.358,1351.14 989.358,1348.81 990,1346.5C 968.82,1342.99 947.987,1337.83 927.5,1331C 915.425,1329.05 903.425,1326.72 891.5,1324C 887.787,1322.31 886.621,1319.48 888,1315.5C 898.167,1303.33 908.333,1291.17 918.5,1279C 929.353,1281.27 940.353,1283.1 951.5,1284.5C 958.667,1284.19 965.667,1283.03 972.5,1281C 982.172,1275.34 990.672,1268.17 998,1259.5C 1009.14,1245.7 1019.47,1231.37 1029,1216.5C 1052.39,1190.5 1070.72,1161.5 1084,1129.5C 1084.52,1125.45 1084.18,1121.45 1083,1117.5C 1077.41,1113.95 1071.57,1110.79 1065.5,1108C 1054.71,1104.79 1044.04,1101.29 1033.5,1097.5C 1031.02,1093.65 1030.86,1089.65 1033,1085.5C 1039.07,1076.78 1045.74,1068.78 1053,1061.5C 1076.92,1070.61 1101.42,1077.77 1126.5,1083C 1132.61,1084.69 1138.61,1086.69 1144.5,1089C 1147.49,1089.87 1150.49,1090.2 1153.5,1090C 1165.38,1075.63 1177.05,1061.13 1188.5,1046.5 Z"/></g>
<g><path style="opacity:1" fill="#f74e57" d="M 1830.5,1271.5 C 1828.5,1271.5 1826.5,1271.5 1824.5,1271.5C 1823.97,1270.28 1823.31,1269.11 1822.5,1268C 1828.63,1264.03 1833.97,1259.2 1838.5,1253.5C 1839.7,1254.53 1841.03,1255.36 1842.5,1256C 1847.83,1256.33 1853.17,1256.67 1858.5,1257C 1871.62,1260.2 1884.95,1261.7 1898.5,1261.5C 1912.1,1262.01 1925.1,1259.51 1937.5,1254C 1952.57,1242.22 1957.23,1227.05 1951.5,1208.5C 1954.93,1203.31 1958.09,1197.98 1961,1192.5C 1971.83,1200.83 1984,1206.33 1997.5,1209C 2019.75,1210.42 2031.92,1199.92 2034,1177.5C 2035.95,1153.07 2028.12,1132.41 2010.5,1115.5C 2009.26,1108.28 2007.26,1101.28 2004.5,1094.5C 2004.83,1094.17 2005.17,1093.83 2005.5,1093.5C 2023.9,1106.73 2039.4,1122.73 2052,1141.5C 2058.39,1152.85 2060.06,1164.85 2057,1177.5C 2046.64,1219.52 2021.14,1248.02 1980.5,1263C 1943.59,1276.04 1905.59,1280.37 1866.5,1276C 1856.42,1274.14 1846.42,1271.97 1836.5,1269.5C 1834.16,1269.36 1832.16,1270.03 1830.5,1271.5 Z"/></g>
<g><path style="opacity:1" fill="#d3000a" d="M 2008.5,1128.5 C 2023.46,1144.91 2027.96,1163.91 2022,1185.5C 2017.78,1196.87 2009.61,1201.37 1997.5,1199C 1987.62,1196.89 1978.62,1192.89 1970.5,1187C 1978.5,1185 1984,1180.16 1987,1172.5C 1990.97,1162.89 1992.47,1152.89 1991.5,1142.5C 2000.73,1142.28 2006.4,1137.61 2008.5,1128.5 Z"/></g>
<g><path style="opacity:1" fill="#efaf43" d="M 1187.5,1147.5 C 1208.11,1152.86 1228.77,1158.02 1249.5,1163C 1263.84,1166.09 1276.01,1172.92 1286,1183.5C 1297.04,1202.7 1291.88,1215.2 1270.5,1221C 1261.18,1223.76 1251.68,1225.59 1242,1226.5C 1210.42,1222.55 1179.25,1216.88 1148.5,1209.5C 1148.49,1207.69 1148.99,1206.02 1150,1204.5C 1161.5,1189.51 1171.5,1173.51 1180,1156.5C 1182.33,1153.33 1184.83,1150.33 1187.5,1147.5 Z"/></g>
<g><path style="opacity:1" fill="#d4000a" d="M 1824.5,1271.5 C 1826.5,1271.5 1828.5,1271.5 1830.5,1271.5C 1830.34,1273.53 1830.5,1275.53 1831,1277.5C 1842.87,1281.34 1855.04,1284.18 1867.5,1286C 1911.44,1290.72 1953.78,1284.72 1994.5,1268C 2020.35,1256.15 2040.51,1237.99 2055,1213.5C 2053.86,1233.95 2046.02,1251.45 2031.5,1266C 2018.39,1279.22 2003.05,1288.89 1985.5,1295C 1943.27,1310.68 1900.27,1313.35 1856.5,1303C 1851.41,1301.62 1846.41,1299.95 1841.5,1298C 1835.95,1289.05 1830.28,1280.22 1824.5,1271.5 Z"/></g>
<g><path style="opacity:1" fill="#d2000a" d="M 1940.5,1216.5 C 1941.5,1216.41 1942.33,1216.75 1943,1217.5C 1943.67,1221.17 1943.67,1224.83 1943,1228.5C 1940.3,1241.2 1932.46,1248.37 1919.5,1250C 1902.11,1252.07 1884.78,1251.74 1867.5,1249C 1870.05,1246.11 1872.88,1243.61 1876,1241.5C 1888.32,1244.95 1898.99,1242.28 1908,1233.5C 1911.34,1228.67 1914.84,1224 1918.5,1219.5C 1926.49,1222.7 1933.82,1221.7 1940.5,1216.5 Z"/></g>
<g><path style="opacity:1" fill="#efaf42" d="M 1117.5,1251.5 C 1149.96,1254.71 1181.63,1261.55 1212.5,1272C 1218.95,1274.73 1225.29,1277.73 1231.5,1281C 1242.48,1289.13 1247.98,1299.97 1248,1313.5C 1243.25,1324.58 1235.08,1331.75 1223.5,1335C 1209.76,1337.39 1195.93,1338.89 1182,1339.5C 1163.05,1338.03 1144.22,1335.53 1125.5,1332C 1109.62,1327.32 1093.62,1323.15 1077.5,1319.5C 1087.71,1300.1 1099.21,1281.43 1112,1263.5C 1114.12,1259.6 1115.95,1255.6 1117.5,1251.5 Z"/></g>
<g><path style="opacity:1" fill="#4c3b1f" d="M 1791.5,1250.5 C 1792.48,1254.3 1792.82,1258.3 1792.5,1262.5C 1794.41,1262.22 1796.08,1262.55 1797.5,1263.5C 1795.5,1263.5 1793.5,1263.5 1791.5,1263.5C 1791.5,1259.17 1791.5,1254.83 1791.5,1250.5 Z"/></g>
<g><path style="opacity:1" fill="#fec047" d="M 1637.5,1612.5 C 1638.47,1610.05 1638.81,1607.39 1638.5,1604.5C 1639.79,1604.74 1640.79,1604.4 1641.5,1603.5C 1644.47,1603.01 1647.13,1601.84 1649.5,1600C 1655.98,1593.92 1659.81,1586.42 1661,1577.5C 1662.49,1568.89 1663.49,1560.22 1664,1551.5C 1671.81,1549.69 1677.14,1545.03 1680,1537.5C 1683.95,1525.6 1686.45,1513.43 1687.5,1501C 1689.94,1499.7 1692.44,1498.53 1695,1497.5C 1705.87,1505.13 1717.37,1506.3 1729.5,1501C 1731.33,1499.17 1733.17,1497.33 1735,1495.5C 1737.99,1489.2 1740.99,1482.87 1744,1476.5C 1750.61,1464.81 1758.45,1463.64 1767.5,1473C 1779.99,1477.35 1789.15,1473.51 1795,1461.5C 1796.22,1452.23 1796.89,1442.89 1797,1433.5C 1800.02,1427.47 1803.02,1421.47 1806,1415.5C 1807.98,1409.64 1808.64,1403.64 1808,1397.5C 1804.47,1391.78 1801.47,1385.78 1799,1379.5C 1798.59,1374.39 1799.25,1369.39 1801,1364.5C 1804.41,1358 1808.08,1351.67 1812,1345.5C 1817.4,1327.37 1812.9,1312.21 1798.5,1300C 1795.33,1297.91 1791.99,1296.08 1788.5,1294.5C 1788.17,1293.5 1787.83,1292.5 1787.5,1291.5C 1788.51,1284.74 1789.84,1278.07 1791.5,1271.5C 1798.59,1275.15 1805.92,1275.48 1813.5,1272.5C 1836.84,1309.18 1858.68,1346.84 1879,1385.5C 1881.62,1389.78 1884.62,1393.78 1888,1397.5C 1903.08,1424.66 1917.42,1452.33 1931,1480.5C 1948.16,1509.35 1963.16,1539.35 1976,1570.5C 1977.81,1579.05 1974.64,1585.21 1966.5,1589C 1943,1593.7 1919.34,1597.37 1895.5,1600C 1856.38,1601.56 1817.38,1604.56 1778.5,1609C 1749.3,1614.45 1719.96,1619.12 1690.5,1623C 1671.47,1626.04 1652.81,1630.54 1634.5,1636.5C 1634.17,1635.83 1633.83,1635.17 1633.5,1634.5C 1635.74,1627.32 1637.07,1619.99 1637.5,1612.5 Z"/></g>
<g><path style="opacity:1" fill="#399f62" d="M 1780.5,1302.5 C 1798.4,1308.28 1806.23,1320.61 1804,1339.5C 1797.63,1348.9 1792.3,1358.9 1788,1369.5C 1787.33,1373.17 1787.33,1376.83 1788,1380.5C 1792.59,1388.34 1796.09,1396.68 1798.5,1405.5C 1795.52,1414.47 1791.69,1423.13 1787,1431.5C 1786.67,1439.83 1786.33,1448.17 1786,1456.5C 1784.28,1462.94 1780.11,1465.78 1773.5,1465C 1767.91,1456.38 1760.25,1453.71 1750.5,1457C 1743.67,1461.17 1738.17,1466.67 1734,1473.5C 1731.93,1480.81 1728.43,1487.31 1723.5,1493C 1719.29,1494.53 1714.96,1494.87 1710.5,1494C 1707.34,1493.26 1704.68,1491.76 1702.5,1489.5C 1703.77,1486.2 1704.93,1482.87 1706,1479.5C 1707.24,1466.53 1707.74,1453.53 1707.5,1440.5C 1716.12,1439.39 1721.95,1434.72 1725,1426.5C 1727.48,1417.33 1729.15,1408 1730,1398.5C 1738.07,1396.09 1743.07,1390.76 1745,1382.5C 1747.15,1373.28 1748.31,1363.95 1748.5,1354.5C 1755.2,1354.65 1760.04,1351.65 1763,1345.5C 1766.96,1333.86 1768.96,1321.86 1769,1309.5C 1774.02,1309.07 1777.86,1306.74 1780.5,1302.5 Z"/></g>
<g><path style="opacity:1" fill="#cea052" d="M 1991.5,1309.5 C 1992.83,1309.5 1994.17,1309.5 1995.5,1309.5C 1997.29,1318.41 1996.46,1327.07 1993,1335.5C 1991.74,1337.61 1989.9,1338.61 1987.5,1338.5C 1987.5,1333.01 1984.83,1331.18 1979.5,1333C 1979,1333.5 1978.5,1334 1978,1334.5C 1976.56,1343.33 1975.06,1352.16 1973.5,1361C 1971.7,1367.61 1968.37,1373.27 1963.5,1378C 1960.5,1380 1957.5,1380 1954.5,1378C 1957.5,1370.67 1955.17,1368 1947.5,1370C 1943.35,1380.13 1938.52,1389.96 1933,1399.5C 1928.41,1405.6 1922.58,1409.93 1915.5,1412.5C 1912.66,1410.46 1909.66,1410.13 1906.5,1411.5C 1902.78,1405.06 1899.28,1398.39 1896,1391.5C 1880.38,1367.93 1866.55,1343.27 1854.5,1317.5C 1855.5,1317.17 1856.5,1316.83 1857.5,1316.5C 1897.58,1323.53 1937.58,1323.03 1977.5,1315C 1982.61,1314.02 1987.28,1312.19 1991.5,1309.5 Z"/></g>
<g><path style="opacity:1" fill="#399f62" d="M 368.5,1360.5 C 371.765,1360.3 374.431,1361.47 376.5,1364C 368.735,1374.96 365.235,1387.13 366,1400.5C 366.737,1406.65 369.904,1410.99 375.5,1413.5C 368.063,1426.91 364.896,1441.25 366,1456.5C 368.301,1466.09 374.467,1471.09 384.5,1471.5C 388.001,1486.04 396.001,1497.21 408.5,1505C 417,1507.84 425.5,1508 434,1505.5C 437.822,1509.57 441.988,1513.4 446.5,1517C 462.797,1525.9 479.797,1527.73 497.5,1522.5C 510.055,1532.46 524.388,1537.46 540.5,1537.5C 536.479,1567.96 542.646,1595.96 559,1621.5C 568.833,1632.67 578.667,1643.83 588.5,1655C 598.314,1662.74 608.648,1669.74 619.5,1676C 626.5,1679 633.5,1682 640.5,1685C 633.887,1688.07 626.887,1689.74 619.5,1690C 607.809,1690.65 596.143,1690.32 584.5,1689C 577.851,1687.26 572.017,1684.09 567,1679.5C 565.703,1675.85 566.703,1673.18 570,1671.5C 573.454,1665.65 573.12,1659.99 569,1654.5C 561.723,1646.94 552.89,1642.11 542.5,1640C 528.27,1640.41 519.104,1633.91 515,1620.5C 513.339,1613.55 512.006,1606.55 511,1599.5C 506.484,1584.98 496.65,1577.15 481.5,1576C 475.429,1575.52 469.429,1576.02 463.5,1577.5C 459.933,1577.59 456.6,1576.76 453.5,1575C 450.667,1572.17 447.833,1569.33 445,1566.5C 443.156,1557.46 441.156,1548.46 439,1539.5C 433.884,1530.19 426.051,1524.69 415.5,1523C 405.5,1523 395.5,1523 385.5,1523C 372.905,1518.75 365.905,1510.08 364.5,1497C 369.856,1480.05 365.856,1465.71 352.5,1454C 343.95,1451.12 335.617,1447.78 327.5,1444C 321.098,1435.75 321.098,1427.41 327.5,1419C 329.167,1418 330.833,1417 332.5,1416C 338.167,1415.67 343.833,1415.33 349.5,1415C 353.585,1413.09 355.918,1409.92 356.5,1405.5C 353.367,1394.87 346.367,1388.04 335.5,1385C 327.024,1376.51 328.024,1369.18 338.5,1363C 348.692,1362.65 358.692,1361.82 368.5,1360.5 Z"/></g>
<g><path style="opacity:1" fill="#f74e57" d="M 327.5,1455.5 C 333.194,1457.51 338.861,1459.68 344.5,1462C 335.416,1472.58 331.082,1484.92 331.5,1499C 331.852,1508.8 333.685,1518.3 337,1527.5C 344.125,1537.91 353.292,1540.07 364.5,1534C 366.31,1531.36 368.31,1528.86 370.5,1526.5C 375.013,1529.76 380.013,1531.92 385.5,1533C 395.165,1532.96 404.832,1532.96 414.5,1533C 418.133,1535.66 418.466,1538.83 415.5,1542.5C 409.542,1545.15 403.876,1548.31 398.5,1552C 390.609,1560.19 390.609,1568.52 398.5,1577C 407.273,1582.04 416.607,1585.7 426.5,1588C 449.124,1589.74 471.791,1590.74 494.5,1591C 498.987,1596.8 501.653,1603.3 502.5,1610.5C 474.086,1612.37 445.753,1611.54 417.5,1608C 388.49,1601.49 362.49,1589.16 339.5,1571C 316.324,1545.48 307.824,1515.64 314,1481.5C 316.682,1471.8 321.182,1463.13 327.5,1455.5 Z"/></g>
<g><path style="opacity:1" fill="#d1000a" d="M 351.5,1468.5 C 352.558,1469.6 353.392,1470.93 354,1472.5C 354.082,1477.22 354.915,1481.72 356.5,1486C 352.778,1498.22 354.778,1509.39 362.5,1519.5C 360.834,1525.83 356.834,1528.33 350.5,1527C 348.43,1526.05 346.93,1524.55 346,1522.5C 340.914,1509.04 340.247,1495.37 344,1481.5C 345.497,1476.52 347.997,1472.19 351.5,1468.5 Z"/></g>
<g><path style="opacity:1" fill="#f64d56" d="M 787.5,1671.5 C 784.5,1672.83 781.5,1674.17 778.5,1675.5C 778.822,1673.28 778.155,1671.44 776.5,1670C 754.92,1669.25 733.587,1666.58 712.5,1662C 682.275,1653.2 653.275,1641.54 625.5,1627C 612.073,1618.07 599.74,1607.9 588.5,1596.5C 585.557,1595.02 582.891,1595.36 580.5,1597.5C 578.833,1596.5 577.5,1595.17 576.5,1593.5C 577.908,1592.09 578.908,1590.42 579.5,1588.5C 578.299,1585.13 576.466,1582.13 574,1579.5C 570.702,1576.07 567.202,1575.73 563.5,1578.5C 558.634,1571.43 554.301,1564.09 550.5,1556.5C 550.334,1550.49 550.501,1544.49 551,1538.5C 554.785,1537.23 558.618,1536.4 562.5,1536C 567.859,1542.6 574.692,1546.76 583,1548.5C 587.478,1563.33 595.645,1575.83 607.5,1586C 640.946,1614.56 679.279,1633.22 722.5,1642C 737.78,1643.91 753.113,1645.25 768.5,1646C 775.821,1653.81 782.154,1662.31 787.5,1671.5 Z"/></g>
<g><path style="opacity:1" fill="#d0000a" d="M 427.5,1540.5 C 428.966,1541.35 429.8,1542.68 430,1544.5C 431.025,1552.65 432.691,1560.65 435,1568.5C 436.923,1572.26 439.423,1575.59 442.5,1578.5C 428.915,1579.37 416.248,1576.2 404.5,1569C 402.045,1566.34 401.878,1563.5 404,1560.5C 409.337,1556.41 415.171,1553.25 421.5,1551C 424.411,1548.01 426.411,1544.51 427.5,1540.5 Z"/></g>
<g><path style="opacity:1" fill="#d4000a" d="M 598.5,1546.5 C 600.655,1546.37 602.655,1546.87 604.5,1548C 612.843,1555 622.177,1560.33 632.5,1564C 639.5,1564.67 646.5,1564.67 653.5,1564C 656,1563.63 658.333,1562.79 660.5,1561.5C 673.339,1572.62 688.339,1578.12 705.5,1578C 723.893,1596.72 741.893,1615.72 759.5,1635C 726.419,1634.79 695.086,1627.45 665.5,1613C 647.64,1602.91 630.64,1591.57 614.5,1579C 606.137,1571.31 599.303,1562.48 594,1552.5C 593.219,1551.06 593.386,1549.72 594.5,1548.5C 596.026,1548.01 597.359,1547.34 598.5,1546.5 Z"/></g>
<g><path style="opacity:1" fill="#d4000a" d="M 310.5,1546.5 C 315.316,1555.51 320.816,1564.17 327,1572.5C 358.22,1601.02 395.053,1616.85 437.5,1620C 454.008,1620.29 470.508,1620.79 487,1621.5C 490.521,1621.37 494.021,1621.03 497.5,1620.5C 498.5,1620.83 499.5,1621.17 500.5,1621.5C 504.566,1630.04 508.232,1638.71 511.5,1647.5C 476.713,1650.92 442.046,1650.08 407.5,1645C 398.489,1642.66 389.489,1640.33 380.5,1638C 379.833,1637 379.167,1636 378.5,1635C 351.709,1624.54 331.543,1606.7 318,1581.5C 313.795,1570.19 311.295,1558.52 310.5,1546.5 Z"/></g>
<g><path style="opacity:1" fill="#d4000b" d="M 550.5,1556.5 C 554.301,1564.09 558.634,1571.43 563.5,1578.5C 563.338,1580.53 563.505,1582.53 564,1584.5C 566.833,1587.33 569.667,1590.17 572.5,1593C 573.793,1593.49 575.127,1593.66 576.5,1593.5C 577.5,1595.17 578.833,1596.5 580.5,1597.5C 580.338,1599.53 580.505,1601.53 581,1603.5C 596.189,1619.03 613.355,1631.86 632.5,1642C 656.969,1653.07 681.969,1662.74 707.5,1671C 727.083,1675.51 746.916,1678.34 767,1679.5C 770.59,1679.53 774.09,1679.03 777.5,1678C 778.252,1677.33 778.586,1676.5 778.5,1675.5C 781.5,1674.17 784.5,1672.83 787.5,1671.5C 796.637,1681.77 805.304,1692.44 813.5,1703.5C 808.321,1705.05 802.987,1705.72 797.5,1705.5C 758.028,1706.1 719.361,1700.94 681.5,1690C 663.721,1683.28 646.054,1676.28 628.5,1669C 615.673,1661.84 603.673,1653.5 592.5,1644C 581.59,1633.09 571.423,1621.59 562,1609.5C 558.363,1599.24 555.03,1588.9 552,1578.5C 551.372,1571.17 550.872,1563.84 550.5,1556.5 Z"/></g>
<g><path style="opacity:1" fill="#0f0303" d="M 576.5,1593.5 C 575.127,1593.66 573.793,1593.49 572.5,1593C 569.667,1590.17 566.833,1587.33 564,1584.5C 563.505,1582.53 563.338,1580.53 563.5,1578.5C 567.202,1575.73 570.702,1576.07 574,1579.5C 576.466,1582.13 578.299,1585.13 579.5,1588.5C 578.908,1590.42 577.908,1592.09 576.5,1593.5 Z"/></g>
<g><path style="opacity:1" fill="#fec047" d="M 767.5,1589.5 C 768.552,1589.35 769.552,1589.52 770.5,1590C 782.981,1602.16 797.648,1606.16 814.5,1602C 827.747,1613.08 842.914,1617.25 860,1614.5C 865.713,1619.44 872.213,1622.94 879.5,1625C 886.146,1626.22 892.313,1625.05 898,1621.5C 910.15,1635.33 925.316,1640.83 943.5,1638C 951.986,1647.58 962.653,1653.58 975.5,1656C 984.946,1656.77 994.279,1656.44 1003.5,1655C 1010.52,1661.51 1018.52,1666.51 1027.5,1670C 1034.83,1670.67 1042.17,1670.67 1049.5,1670C 1052.21,1668.93 1054.87,1667.76 1057.5,1666.5C 1064.56,1675.04 1073.56,1680.54 1084.5,1683C 1097.6,1686.48 1110.6,1686.31 1123.5,1682.5C 1139.08,1694.69 1156.75,1701.36 1176.5,1702.5C 1181.6,1702.54 1186.6,1701.87 1191.5,1700.5C 1200.62,1714.75 1213.62,1720.59 1230.5,1718C 1233.28,1717.11 1235.95,1715.94 1238.5,1714.5C 1253.29,1729.36 1270.46,1733.02 1290,1725.5C 1291.77,1726.27 1293.27,1727.44 1294.5,1729C 1272.14,1737.56 1250.14,1746.9 1228.5,1757C 1197.28,1773.45 1165.61,1789.11 1133.5,1804C 1118.28,1813.11 1102.61,1821.45 1086.5,1829C 1046,1854.42 1005.66,1880.08 965.5,1906C 957.656,1910.29 949.322,1912.29 940.5,1912C 935.112,1909.94 930.946,1906.44 928,1901.5C 917.276,1876.66 906.943,1851.66 897,1826.5C 887.488,1808.81 878.488,1790.81 870,1772.5C 861.433,1760.25 854.099,1747.25 848,1733.5C 827.385,1705.22 806.385,1677.22 785,1649.5C 767.586,1630.08 750.086,1610.58 732.5,1591C 744.333,1594.51 756,1594.01 767.5,1589.5 Z"/></g>
<g><path style="opacity:1" fill="#634d27" d="M 1637.5,1585.5 C 1637.9,1588.48 1638.9,1591.14 1640.5,1593.5C 1639.79,1594.4 1638.79,1594.74 1637.5,1594.5C 1637.5,1591.5 1637.5,1588.5 1637.5,1585.5 Z"/></g>
<g><path style="opacity:1" fill="#080100" d="M 778.5,1675.5 C 778.586,1676.5 778.252,1677.33 777.5,1678C 774.09,1679.03 770.59,1679.53 767,1679.5C 746.916,1678.34 727.083,1675.51 707.5,1671C 681.969,1662.74 656.969,1653.07 632.5,1642C 613.355,1631.86 596.189,1619.03 581,1603.5C 580.505,1601.53 580.338,1599.53 580.5,1597.5C 582.891,1595.36 585.557,1595.02 588.5,1596.5C 599.74,1607.9 612.073,1618.07 625.5,1627C 653.275,1641.54 682.275,1653.2 712.5,1662C 733.587,1666.58 754.92,1669.25 776.5,1670C 778.155,1671.44 778.822,1673.28 778.5,1675.5 Z"/></g>
<g><path style="opacity:1" fill="#785b22" d="M 1641.5,1603.5 C 1640.79,1604.4 1639.79,1604.74 1638.5,1604.5C 1638.81,1607.39 1638.47,1610.05 1637.5,1612.5C 1637.5,1609.5 1637.5,1606.5 1637.5,1603.5C 1638.83,1603.5 1640.17,1603.5 1641.5,1603.5 Z"/></g>
<g><path style="opacity:1" fill="#39a062" d="M 1692.5,1632.5 C 1694.83,1632.5 1697.17,1632.5 1699.5,1632.5C 1701.02,1644.65 1699.19,1656.32 1694,1667.5C 1690.48,1674.85 1684.64,1679.19 1676.5,1680.5C 1667.93,1678.46 1659.26,1677.63 1650.5,1678C 1646.58,1679.54 1643.08,1681.71 1640,1684.5C 1634.58,1691.67 1631.08,1699.67 1629.5,1708.5C 1629.68,1714.7 1632.68,1718.87 1638.5,1721C 1642.11,1721.03 1645.44,1721.86 1648.5,1723.5C 1652.77,1736.53 1648.77,1746.03 1636.5,1752C 1630.5,1757.48 1627.5,1764.32 1627.5,1772.5C 1628.63,1778.8 1629.63,1785.13 1630.5,1791.5C 1630.09,1801.4 1627.09,1810.4 1621.5,1818.5C 1616.09,1822.95 1610.59,1827.29 1605,1831.5C 1601.5,1835.83 1598.5,1840.49 1596,1845.5C 1594.91,1856.14 1593.91,1866.8 1593,1877.5C 1588.96,1892.53 1579.12,1899.36 1563.5,1898C 1553.03,1900.81 1547.2,1907.64 1546,1918.5C 1536.4,1928.38 1525.56,1930.22 1513.5,1924C 1512,1922.5 1510.5,1921 1509,1919.5C 1507.76,1910.91 1507.09,1902.24 1507,1893.5C 1503.84,1881.66 1496.17,1876 1484,1876.5C 1469.51,1881.74 1457.18,1878.74 1447,1867.5C 1445.41,1862.62 1444.24,1857.62 1443.5,1852.5C 1445.8,1848.7 1448.63,1845.37 1452,1842.5C 1456.13,1830.22 1453.3,1819.72 1443.5,1811C 1441.11,1809.14 1438.45,1807.81 1435.5,1807C 1418.68,1803.43 1402.01,1804.09 1385.5,1809C 1377.17,1809.67 1368.83,1809.67 1360.5,1809C 1348.97,1805.31 1347.47,1799.15 1356,1790.5C 1358.09,1772.57 1349.93,1763.07 1331.5,1762C 1319.17,1761.67 1306.83,1761.33 1294.5,1761C 1285.48,1761.12 1279.82,1756.96 1277.5,1748.5C 1277.61,1747.56 1277.94,1746.72 1278.5,1746C 1286.77,1742.24 1295.27,1739.08 1304,1736.5C 1312.22,1740 1320.55,1740.34 1329,1737.5C 1335.53,1743.52 1342.7,1748.69 1350.5,1753C 1358.61,1755.1 1366.61,1754.93 1374.5,1752.5C 1380.89,1759.36 1388.56,1764.2 1397.5,1767C 1403.94,1767.96 1409.78,1766.46 1415,1762.5C 1423.91,1770.7 1433.74,1777.53 1444.5,1783C 1454.75,1785.8 1464.42,1784.46 1473.5,1779C 1474.38,1777.41 1475.38,1775.91 1476.5,1774.5C 1493.89,1784.61 1511.56,1785.11 1529.5,1776C 1530.73,1774.37 1532.06,1772.87 1533.5,1771.5C 1551.54,1777.73 1563.71,1771.73 1570,1753.5C 1570.5,1751.53 1570.66,1749.53 1570.5,1747.5C 1578.59,1748.26 1584.43,1744.93 1588,1737.5C 1590.7,1726.62 1591.2,1715.62 1589.5,1704.5C 1597.89,1703.95 1604.05,1699.95 1608,1692.5C 1609,1689.83 1610,1687.17 1611,1684.5C 1612.47,1673.88 1613.3,1663.21 1613.5,1652.5C 1625.67,1649.95 1637.67,1646.45 1649.5,1642C 1664.02,1639.07 1678.36,1635.91 1692.5,1632.5 Z"/></g>
<g><path style="opacity:1" fill="#cea052" d="M 1711.5,1636.5 C 1717.21,1636.17 1722.87,1636.5 1728.5,1637.5C 1727.05,1639.96 1726.39,1642.62 1726.5,1645.5C 1728.5,1657.64 1727,1669.31 1722,1680.5C 1720.02,1682.66 1717.69,1684.32 1715,1685.5C 1712.17,1679.8 1708.5,1679.13 1704,1683.5C 1703.71,1697.52 1701.38,1711.19 1697,1724.5C 1695.59,1727.66 1693.92,1730.66 1692,1733.5C 1689.7,1735.57 1687.03,1736.91 1684,1737.5C 1684.06,1729.53 1680.72,1727.53 1674,1731.5C 1673.11,1739.82 1672.45,1748.15 1672,1756.5C 1671.51,1763.15 1668.68,1768.48 1663.5,1772.5C 1662.48,1765.42 1658.98,1763.76 1653,1767.5C 1652.86,1773.97 1653.86,1780.31 1656,1786.5C 1657.37,1795.82 1656.37,1804.82 1653,1813.5C 1652.17,1814.33 1651.33,1815.17 1650.5,1816C 1648.42,1814.48 1646.08,1812.98 1643.5,1811.5C 1641.62,1811.88 1640.12,1812.88 1639,1814.5C 1640.6,1828.23 1638.93,1841.57 1634,1854.5C 1631.81,1856.54 1629.31,1857.87 1626.5,1858.5C 1627.76,1853.58 1625.93,1850.91 1621,1850.5C 1619.29,1850.44 1617.96,1851.11 1617,1852.5C 1615.15,1860.38 1614.15,1868.38 1614,1876.5C 1612.94,1883.34 1611.27,1890 1609,1896.5C 1607.88,1899.25 1606.38,1901.75 1604.5,1904C 1600.64,1905.18 1597.14,1907.01 1594,1909.5C 1595.32,1924.55 1592.65,1938.88 1586,1952.5C 1579.77,1959.91 1577.1,1958.57 1578,1948.5C 1574.71,1945.69 1571.71,1946.02 1569,1949.5C 1567.42,1965.84 1560.25,1979.01 1547.5,1989C 1544.24,1989.94 1540.9,1990.44 1537.5,1990.5C 1530.4,1989.4 1523.4,1988.23 1516.5,1987C 1513.89,1989.8 1513.89,1992.63 1516.5,1995.5C 1510.13,1998.89 1503.46,1999.39 1496.5,1997C 1481.39,1991.95 1468.39,1983.61 1457.5,1972C 1455.23,1971.24 1453.06,1971.41 1451,1972.5C 1450.51,1976.03 1451.34,1979.19 1453.5,1982C 1442.52,1982.67 1432.19,1980.34 1422.5,1975C 1415,1971.42 1408,1967.09 1401.5,1962C 1396.09,1962.07 1390.76,1962.91 1385.5,1964.5C 1381.44,1963.98 1377.44,1963.15 1373.5,1962C 1366.79,1958.65 1360.79,1954.31 1355.5,1949C 1350.33,1950.32 1345,1951.15 1339.5,1951.5C 1333.05,1951.71 1327.05,1950.21 1321.5,1947C 1316.11,1941.27 1310.44,1935.94 1304.5,1931C 1303.17,1930.33 1301.83,1930.33 1300.5,1931C 1292.25,1936.64 1283.25,1937.98 1273.5,1935C 1269.76,1933.86 1266.09,1932.53 1262.5,1931C 1252.34,1923.42 1242.01,1916.09 1231.5,1909C 1223.85,1900.24 1221.35,1890.08 1224,1878.5C 1225.7,1867.69 1228.03,1857.02 1231,1846.5C 1233.3,1842.2 1236.3,1838.54 1240,1835.5C 1241.33,1848.84 1248.5,1857.34 1261.5,1861C 1266.5,1861.67 1271.5,1861.67 1276.5,1861C 1285.9,1858.17 1295.24,1858.17 1304.5,1861C 1313,1866.49 1317.5,1874.32 1318,1884.5C 1322.37,1889.44 1327.87,1891.77 1334.5,1891.5C 1342.52,1891.04 1349.69,1888.37 1356,1883.5C 1357.59,1881.33 1358.92,1879 1360,1876.5C 1361.39,1866.12 1365.89,1857.46 1373.5,1850.5C 1384.7,1858.3 1387.7,1868.63 1382.5,1881.5C 1384.22,1890.4 1389.22,1896.9 1397.5,1901C 1413.24,1909.53 1428.9,1909.53 1444.5,1901C 1449.37,1896.75 1452.87,1891.58 1455,1885.5C 1458.88,1887.62 1463.04,1888.62 1467.5,1888.5C 1475.07,1886.77 1482.74,1886.27 1490.5,1887C 1493,1889.14 1495.17,1891.64 1497,1894.5C 1497.09,1903.57 1497.75,1912.57 1499,1921.5C 1509.06,1937.41 1522.89,1941.91 1540.5,1935C 1545.86,1932.65 1550.36,1929.15 1554,1924.5C 1555.43,1919.31 1557.6,1914.47 1560.5,1910C 1561.83,1909.33 1563.17,1908.67 1564.5,1908C 1584.72,1908.44 1597.56,1898.94 1603,1879.5C 1604.07,1870.2 1604.73,1860.86 1605,1851.5C 1607.27,1847.96 1609.27,1844.29 1611,1840.5C 1636.38,1824.56 1645.21,1801.89 1637.5,1772.5C 1637.19,1763.98 1641.19,1758.81 1649.5,1757C 1661.4,1744.97 1663.57,1731.47 1656,1716.5C 1651.54,1712.69 1646.38,1710.69 1640.5,1710.5C 1639.72,1706.28 1640.55,1702.28 1643,1698.5C 1645.14,1694.03 1648.31,1690.53 1652.5,1688C 1660.22,1688.03 1667.89,1688.86 1675.5,1690.5C 1689.28,1689.2 1698.78,1682.2 1704,1669.5C 1705.27,1664.36 1706.93,1659.36 1709,1654.5C 1709.51,1648.41 1710.34,1642.41 1711.5,1636.5 Z"/></g>
<g><path style="opacity:1" fill="#cea152" d="M 546.5,1652.5 C 547.496,1652.41 548.329,1652.75 549,1653.5C 551.818,1661.26 553.485,1669.26 554,1677.5C 558.713,1687.21 566.213,1693.71 576.5,1697C 597.156,1701.64 617.823,1701.64 638.5,1697C 643.72,1695.33 648.386,1692.83 652.5,1689.5C 662.455,1693.43 672.455,1697.26 682.5,1701C 692.145,1703.33 701.812,1705.5 711.5,1707.5C 711.697,1730.53 723.364,1742.7 746.5,1744C 754.383,1746.68 760.883,1751.18 766,1757.5C 765.561,1769.56 770.394,1778.73 780.5,1785C 790.828,1790.67 801.828,1793 813.5,1792C 818.723,1789.44 823.39,1786.11 827.5,1782C 829.833,1781 832.167,1780 834.5,1779C 844.247,1778.19 853.913,1778.69 863.5,1780.5C 871.027,1796.88 878.527,1813.22 886,1829.5C 882.87,1827.37 880.037,1824.87 877.5,1822C 859.239,1826.02 843.572,1821.36 830.5,1808C 826.738,1807.07 823.238,1807.57 820,1809.5C 818.457,1807.12 816.29,1805.79 813.5,1805.5C 800.952,1808.56 789.285,1806.39 778.5,1799C 774.217,1796.38 770.217,1793.38 766.5,1790C 755.881,1791.07 745.214,1791.41 734.5,1791C 724.296,1786.74 715.296,1780.74 707.5,1773C 690.053,1779.22 675.053,1775.55 662.5,1762C 661.667,1761.83 660.833,1761.67 660,1761.5C 655.169,1763.33 650.336,1765.17 645.5,1767C 640.5,1767.67 635.5,1767.67 630.5,1767C 619.3,1762.41 609.967,1755.41 602.5,1746C 599.351,1745.73 596.351,1746.39 593.5,1748C 589.833,1748.67 586.167,1748.67 582.5,1748C 572.859,1744.51 563.859,1740.01 555.5,1734.5C 536.185,1742.67 520.185,1738.5 507.5,1722C 499.471,1722.24 491.471,1723.07 483.5,1724.5C 466.918,1722.07 454.584,1713.57 446.5,1699C 438.562,1697.95 436.562,1700.95 440.5,1708C 433.474,1712.55 427.307,1711.38 422,1704.5C 421,1702.83 420,1701.17 419,1699.5C 417.07,1691.62 415.737,1683.62 415,1675.5C 411.626,1672.59 408.626,1672.93 406,1676.5C 405.721,1680.17 405.888,1683.84 406.5,1687.5C 398.226,1685 393.726,1679.34 393,1670.5C 392.333,1667.17 392.333,1663.83 393,1660.5C 397.648,1662.11 402.481,1662.94 407.5,1663C 419.5,1663.67 431.5,1663.67 443.5,1663C 469.181,1661.15 494.848,1659.15 520.5,1657C 529.364,1655.74 538.031,1654.24 546.5,1652.5 Z"/></g>
<g><path style="opacity:1" fill="#399f62" d="M 721.5,1709.5 C 746.612,1713.85 771.946,1715.85 797.5,1715.5C 805.373,1715.74 813.039,1714.91 820.5,1713C 833.746,1730.26 845.413,1748.6 855.5,1768C 838.422,1765.47 823.756,1770.14 811.5,1782C 799.389,1782.43 788.556,1778.93 779,1771.5C 776.96,1766.05 775.96,1760.39 776,1754.5C 769.875,1745.06 761.375,1738.56 750.5,1735C 743.31,1733.6 736.31,1731.6 729.5,1729C 723.808,1723.76 721.142,1717.26 721.5,1709.5 Z"/></g>
<g><path style="opacity:1" fill="#399f62" d="M 1266.5,1750.5 C 1271.05,1763.51 1280.38,1770.35 1294.5,1771C 1306.5,1771.33 1318.5,1771.67 1330.5,1772C 1336.52,1772.23 1341.69,1774.39 1346,1778.5C 1347.42,1781.03 1347.75,1783.7 1347,1786.5C 1335.6,1799.33 1337.76,1809.5 1353.5,1817C 1359.65,1819.01 1365.98,1819.84 1372.5,1819.5C 1384.33,1819.31 1395.99,1817.81 1407.5,1815C 1419.7,1813.13 1430.7,1815.8 1440.5,1823C 1444.53,1827.68 1445.36,1832.85 1443,1838.5C 1433.95,1844.1 1430.95,1852.1 1434,1862.5C 1436.07,1869.65 1439.91,1875.65 1445.5,1880.5C 1443.73,1889.43 1438.4,1894.93 1429.5,1897C 1417.81,1898.4 1407.14,1895.73 1397.5,1889C 1394.82,1887.16 1393.15,1884.66 1392.5,1881.5C 1398.16,1859.99 1390.49,1845.49 1369.5,1838C 1352.62,1834.82 1344.78,1841.66 1346,1858.5C 1350.2,1864.06 1351.2,1870.06 1349,1876.5C 1343.06,1880.48 1336.56,1881.98 1329.5,1881C 1328.07,1880.53 1326.9,1879.7 1326,1878.5C 1324.76,1862.58 1316.26,1852.75 1300.5,1849C 1298.33,1848.83 1296.17,1848.67 1294,1848.5C 1283.92,1850.45 1273.75,1851.28 1263.5,1851C 1259.58,1849.46 1256.08,1847.29 1253,1844.5C 1249.18,1838.44 1250.01,1833.11 1255.5,1828.5C 1270.97,1822.23 1274.47,1811.9 1266,1797.5C 1256.92,1788.88 1246.09,1784.55 1233.5,1784.5C 1221.53,1786.71 1209.53,1788.71 1197.5,1790.5C 1196.67,1788.25 1196.67,1786.08 1197.5,1784C 1220.32,1772.26 1243.32,1761.09 1266.5,1750.5 Z"/></g>
<g><path style="opacity:1" fill="#fd8e0d" d="M 1228.5,1794.5 C 1238.71,1793.91 1248.04,1796.41 1256.5,1802C 1260.9,1806.13 1261.57,1810.8 1258.5,1816C 1249.62,1820.61 1240.62,1824.94 1231.5,1829C 1227.13,1833.56 1223.63,1838.73 1221,1844.5C 1218.41,1854.77 1216.08,1865.11 1214,1875.5C 1210.53,1892.63 1215.03,1907.13 1227.5,1919C 1237.63,1925.48 1247.47,1932.31 1257,1939.5C 1260.21,1943.19 1260.88,1947.19 1259,1951.5C 1253.56,1960.99 1245.73,1967.82 1235.5,1972C 1201.03,1983.59 1167.36,1981.59 1134.5,1966C 1126.1,1960.94 1118.27,1955.1 1111,1948.5C 1103.78,1939.83 1102.78,1930.5 1108,1920.5C 1119.21,1908.14 1133.04,1900.31 1149.5,1897C 1152.34,1895.41 1155.01,1893.58 1157.5,1891.5C 1158.05,1895.35 1159.38,1898.85 1161.5,1902C 1164.67,1904.17 1166.84,1903.34 1168,1899.5C 1171.33,1880.83 1171.33,1862.16 1168,1843.5C 1164.08,1832.31 1156.92,1823.98 1146.5,1818.5C 1145.48,1818 1145.31,1817.33 1146,1816.5C 1158.31,1809.51 1171.14,1803.67 1184.5,1799C 1191.96,1800.47 1199.63,1800.8 1207.5,1800C 1214.6,1798.01 1221.6,1796.18 1228.5,1794.5 Z"/></g>
<g><path style="opacity:1" fill="#cea052" d="M 1132.5,1823.5 C 1146,1826.98 1154.83,1835.32 1159,1848.5C 1160.37,1857.13 1160.7,1865.8 1160,1874.5C 1155.63,1881.53 1149.46,1886.36 1141.5,1889C 1136.28,1889.02 1131.28,1890.02 1126.5,1892C 1112.85,1894.07 1099.85,1892.07 1087.5,1886C 1081.91,1881.25 1075.91,1877.08 1069.5,1873.5C 1064.52,1876.44 1059.18,1877.61 1053.5,1877C 1061.54,1869.95 1069.88,1863.29 1078.5,1857C 1096.41,1845.57 1114.41,1834.41 1132.5,1823.5 Z"/></g>
<g><path style="opacity:0.945" fill="#030100" d="M 1242.5,2014.5 C 1262.24,2015.62 1279.41,2022.95 1294,2036.5C 1307.66,2053.66 1304.83,2067.16 1285.5,2077C 1260.24,2085.27 1235.9,2083.6 1212.5,2072C 1189.24,2054.11 1189.91,2037.11 1214.5,2021C 1223.79,2018.07 1233.13,2015.9 1242.5,2014.5 Z"/></g>
<g><path style="opacity:1" fill="#fc8d0d" d="M 1235.5,2025.5 C 1255.65,2023.83 1272.81,2030.16 1287,2044.5C 1288.41,2047.66 1290.08,2050.66 1292,2053.5C 1292.03,2060.49 1288.53,2064.99 1281.5,2067C 1259.63,2073.97 1238.3,2072.64 1217.5,2063C 1212.92,2059.09 1209.08,2054.59 1206,2049.5C 1205.33,2047.5 1205.33,2045.5 1206,2043.5C 1209.83,2038.33 1214.33,2033.83 1219.5,2030C 1225.04,2028.8 1230.38,2027.3 1235.5,2025.5 Z"/></g>
</svg>
