<svg fill="currentColor"   viewBox="0 0 5 68"  xmlns="http://www.w3.org/2000/svg">
<path d="M4.04367 67.9999C0.692731 68.0189 7.77245e-05 62.5418 7.77245e-05 62.5418C7.77245e-05 58.5997 0.730171 57.1594 0.730171 54.9609C0.730171 53.5206 2.60221 52.0802 2.20908 50.6399C2.20908 49.1995 0.730171 48.8394 0.730171 47.039V43.5897C0.730171 42.1683 -0.355609 41.4481 0.374485 40.0078C1.10458 38.2073 7.77245e-05 36.4069 7.77245e-05 34.9665C7.77245e-05 33.8863 0.374485 32.0858 0.374485 30.6455C0.374485 28.4849 7.77245e-05 27.4047 7.77245e-05 25.6042V15.4838C7.77245e-05 12.243 0.730171 12.9632 0.730171 10.8027V4.32107C0.656752 3.81552 0.685059 3.30017 0.813389 2.80598C0.941719 2.3118 1.16742 1.84898 1.47694 1.44535C1.78645 1.04172 2.17338 0.705619 2.61447 0.457238C3.05556 0.208856 3.5417 0.0533278 4.04367 0L4.84865 0V67.9999H4.04367Z"/>
</svg>
