<svg fill="currentColor"  viewBox="0 0 5 68"  xmlns="http://www.w3.org/2000/svg">
<path d="M0.956342 67.9999C4.30728 68.0189 4.99994 62.5418 4.99994 62.5418C4.99994 58.5997 4.26984 57.1594 4.26984 54.9609C4.26984 53.5206 2.39781 52.0802 2.79094 50.6399C2.79094 49.1995 4.26984 48.8394 4.26984 47.039V43.5897C4.26984 42.1683 5.35562 41.4481 4.62553 40.0078C3.89544 38.2073 4.99994 36.4069 4.99994 34.9665C4.99994 33.8863 4.62553 32.0858 4.62553 30.6455C4.62553 28.4849 4.99994 27.4047 4.99994 25.6042V15.4838C4.99994 12.243 4.26984 12.9632 4.26984 10.8027V4.32107C4.34326 3.81552 4.31496 3.30017 4.18663 2.80598C4.0583 2.3118 3.83259 1.84898 3.52308 1.44535C3.21357 1.04172 2.82664 0.705619 2.38555 0.457238C1.94446 0.208856 1.45832 0.0533278 0.956342 0L0.151367 0V67.9999H0.956342Z"/>
</svg>
