<?xml version="1.0" encoding="UTF-8" standalone="no"?>
<!DOCTYPE svg PUBLIC "-//W3C//DTD SVG 1.1//EN" "http://www.w3.org/Graphics/SVG/1.1/DTD/svg11.dtd">
<svg xmlns="http://www.w3.org/2000/svg" version="1.1" viewBox="0.00 0.00 1448.00 1448.00">
<g stroke-width="2.00" fill="none" stroke-linecap="butt">
<path stroke="#801d00" vector-effect="non-scaling-stroke" d="
  M 500.47 719.49
  Q 509.88 722.64 509.84 731.89
  Q 509.84 732.42 510.32 732.65
  C 516.14 735.49 520.30 741.20 519.27 748.00
  Q 519.19 748.50 519.52 748.89
  Q 525.38 755.91 520.89 764.38
  Q 520.40 765.30 517.89 767.40
  A 1.38 1.36 -14.9 0 0 517.41 768.21
  Q 517.11 769.86 516.85 770.85
  Q 514.28 780.49 504.54 778.80
  Q 504.06 778.72 503.77 779.12
  L 501.12 782.79"
/>
<path stroke="#801d00" vector-effect="non-scaling-stroke" d="
  M 1276.06 807.71
  L 1276.12 805.54"
/>
<path stroke="#801d00" vector-effect="non-scaling-stroke" d="
  M 1276.12 804.54
  L 1276.14 802.54"
/>
<path stroke="#785821" vector-effect="non-scaling-stroke" d="
  M 327.65 591.16
  Q 325.70 591.47 324.57 592.41
  C 322.53 594.08 323.94 596.98 320.49 598.46
  Q 319.11 599.05 316.56 598.52
  C 311.47 597.46 305.27 597.69 301.82 601.97
  Q 301.50 602.37 301.53 602.88
  C 301.61 604.34 302.23 605.86 301.82 607.17
  C 301.24 609.05 299.53 609.65 297.61 609.20
  C 292.72 608.03 287.69 608.73 284.35 612.30
  A 3.06 3.06 0.0 0 0 283.77 615.60
  C 285.09 618.64 285.46 621.07 281.26 621.49
  C 276.19 622.00 271.04 623.44 267.98 627.82
  A 1.95 1.94 38.8 0 0 268.26 630.38
  Q 271.00 632.89 268.91 636.75
  Q 268.30 637.88 266.57 638.09
  C 260.74 638.78 252.77 642.43 252.60 649.08
  A 2.39 2.38 7.5 0 0 254.43 651.46
  C 258.53 652.45 258.31 656.54 254.50 657.72
  Q 251.26 658.71 250.36 659.86
  Q 248.74 661.89 245.71 664.94
  Q 242.35 668.33 242.91 672.70
  A 1.75 1.74 88.6 0 0 244.50 674.22
  Q 248.07 674.51 248.80 678.54
  Q 249.18 680.62 247.65 681.48
  C 243.09 684.05 238.58 688.12 237.75 693.33
  A 2.87 2.85 18.6 0 0 239.24 696.30
  C 240.57 697.01 242.50 697.52 243.10 698.80
  C 244.00 700.68 243.26 701.89 241.85 703.30
  C 237.35 707.86 234.07 711.57 233.46 718.17
  A 2.02 2.02 0.0 0 0 234.52 720.13
  Q 235.94 720.88 236.56 721.15
  C 238.71 722.13 239.38 724.46 237.75 726.28
  C 234.72 729.67 229.48 738.84 231.71 743.63
  Q 231.95 744.14 232.43 744.42
  L 234.72 745.74
  Q 235.23 746.03 235.33 746.61
  Q 235.81 749.50 232.67 751.11
  Q 232.23 751.34 231.92 751.74
  Q 228.19 756.65 228.35 763.51
  C 228.43 766.67 229.42 766.16 231.71 767.31
  C 234.48 768.69 233.54 771.73 231.68 773.38
  C 227.40 777.18 223.61 782.36 224.18 788.01
  Q 224.23 788.57 224.63 788.95
  Q 226.81 791.10 227.80 795.60
  C 228.18 797.28 227.38 798.08 226.23 799.11
  C 223.80 801.25 222.93 804.47 223.45 807.55
  A 2.26 2.25 -4.3 0 0 225.64 809.43
  L 232.53 809.53
  A 2.93 2.93 0.0 0 1 235.40 812.18
  Q 235.64 814.73 237.17 816.40
  C 240.59 820.14 244.46 815.54 247.40 813.07
  A 0.80 0.78 -64.1 0 1 247.90 812.89
  L 250.38 812.93
  Q 250.85 812.94 251.05 812.51
  C 253.89 806.25 247.76 802.60 250.66 796.90
  A 1.17 1.16 5.3 0 1 251.38 796.31
  C 254.95 795.29 254.70 792.90 254.88 789.81
  Q 255.00 787.84 254.81 787.24
  Q 253.03 781.36 253.27 775.39
  Q 253.29 774.85 252.78 774.66
  Q 252.24 774.46 251.36 774.14
  C 245.21 771.90 245.34 765.28 245.85 758.99
  Q 245.90 758.44 245.36 758.30
  C 244.38 758.05 243.35 757.59 242.58 756.83
  Q 236.93 751.19 238.53 743.04
  Q 238.88 741.30 241.59 735.27
  Q 242.82 732.52 245.64 733.67
  Q 245.66 733.68 245.76 733.73
  Q 248.50 735.12 247.36 737.77
  Q 244.55 744.29 244.70 749.75
  C 244.74 751.20 245.82 752.32 247.03 752.83
  Q 247.50 753.03 247.89 752.72
  C 248.78 752.04 249.52 751.37 250.73 751.63
  C 253.30 752.20 253.74 754.20 252.63 756.57
  C 251.25 759.52 250.67 763.83 252.40 766.87
  C 253.24 768.36 254.54 768.56 256.51 769.43
  A 2.39 2.38 -75.2 0 1 257.92 771.86
  Q 257.57 775.27 258.53 779.01
  C 259.43 782.48 262.05 785.84 265.91 783.27
  C 268.51 781.54 270.29 783.57 270.58 786.17
  Q 271.23 791.93 274.35 796.10
  A 2.12 2.11 -26.2 0 0 276.63 796.87
  L 278.80 796.25
  A 2.62 2.62 0.0 0 1 282.06 798.17
  Q 283.66 804.95 289.20 809.27
  A 1.44 1.44 0.0 0 0 290.63 809.46
  Q 293.14 808.41 296.06 808.39
  A 2.48 2.48 0.0 0 1 298.43 810.10
  Q 300.36 816.11 305.98 819.34
  Q 308.35 820.70 310.70 819.68
  C 312.78 818.77 313.88 818.33 315.33 820.18
  C 316.58 821.77 316.60 823.12 315.44 824.90
  Q 312.73 829.01 312.88 833.71
  A 2.06 2.05 -78.6 0 0 314.07 835.51
  Q 315.42 836.14 316.68 836.63
  C 319.61 837.78 319.37 840.25 317.56 842.26
  Q 316.41 843.53 316.03 844.26
  C 315.33 845.58 313.90 846.50 313.39 847.91
  C 312.37 850.72 311.62 855.64 316.21 855.85
  Q 316.73 855.88 317.16 856.18
  C 319.21 857.62 319.03 859.45 317.46 861.28
  C 314.44 864.80 312.22 868.21 313.02 873.08
  Q 313.11 873.60 313.48 873.98
  L 316.55 877.05
  A 2.83 2.82 43.3 0 1 316.67 880.93
  C 314.07 883.87 311.51 888.81 312.76 892.79
  Q 312.90 893.26 313.29 893.57
  C 315.54 895.35 318.36 896.13 316.20 899.73
  C 313.48 904.27 311.08 908.92 311.12 914.28
  Q 311.12 914.82 311.60 915.09
  Q 312.46 915.58 313.57 915.75
  A 0.88 0.88 0.0 0 0 314.39 915.44
  Q 316.01 913.47 317.93 914.49
  Q 318.60 914.84 319.87 916.78
  Q 321.56 919.35 324.87 919.95
  Q 325.39 920.04 325.82 919.72
  L 329.77 916.81
  A 2.75 2.75 0.0 0 1 333.28 917.01
  C 335.95 919.50 341.51 919.74 341.82 914.92
  Q 342.07 911.02 339.91 908.07
  Q 339.60 907.65 339.63 907.13
  Q 339.73 905.09 341.65 904.29
  Q 342.11 904.09 342.60 904.18
  Q 343.26 904.30 343.83 904.19
  Q 344.33 904.09 344.52 903.62
  C 346.48 898.85 344.09 895.02 342.04 891.11
  Q 341.73 890.52 341.82 890.18
  C 342.28 888.37 344.21 886.54 345.52 885.55
  C 348.63 883.21 345.53 876.09 344.10 873.34
  A 2.74 2.74 0.0 0 1 345.22 869.66
  Q 346.33 869.06 346.91 868.68
  C 349.00 867.33 348.71 862.61 348.18 860.44
  C 347.80 858.84 346.41 857.25 346.17 855.79
  Q 345.47 851.66 349.16 850.86
  A 1.53 1.52 -86.0 0 0 350.25 849.91
  C 352.15 844.87 350.91 839.15 348.74 834.50
  Q 348.51 834.02 348.01 834.17
  Q 340.62 836.31 335.07 830.53
  Q 333.42 828.81 335.20 826.87
  Q 335.21 826.86 335.27 826.80
  Q 337.21 825.07 339.10 826.66
  C 340.89 828.15 344.23 830.11 346.25 828.29
  C 347.62 827.07 348.61 826.77 350.40 827.38
  Q 351.95 827.92 357.12 829.87
  Q 357.97 830.19 362.07 830.12
  C 364.53 830.07 365.74 827.53 368.14 826.70
  Q 368.63 826.53 369.11 826.69
  Q 373.66 828.17 378.38 827.14
  C 380.02 826.78 380.68 824.65 383.30 825.46
  Q 384.45 825.82 384.92 826.95
  Q 385.97 829.54 382.79 831.38
  Q 378.06 834.11 371.88 833.27
  Q 371.35 833.20 371.09 833.66
  Q 369.49 836.45 369.19 841.50
  Q 368.91 846.14 372.64 847.29
  Q 374.75 847.95 375.26 848.64
  Q 376.32 850.08 375.24 852.08
  C 374.76 852.96 373.84 853.20 373.38 853.93
  Q 373.10 854.36 373.11 854.87
  Q 373.13 855.44 372.76 855.81
  Q 372.41 856.17 372.30 856.67
  C 371.37 860.71 370.24 866.09 375.07 867.23
  A 2.38 2.38 0.0 0 1 376.64 870.62
  Q 373.44 876.90 372.90 878.11
  Q 371.39 881.51 372.73 885.54
  Q 372.90 886.04 373.41 886.18
  C 376.57 887.05 380.84 889.57 377.94 893.21
  Q 374.00 898.13 374.80 904.01
  A 1.35 1.31 -76.9 0 0 375.35 904.92
  Q 377.04 906.08 380.32 906.50
  Q 380.82 906.56 381.14 906.94
  C 383.21 909.39 381.67 911.32 380.28 913.99
  Q 379.09 916.27 379.44 919.85
  A 1.99 1.92 1.4 0 0 381.13 921.57
  L 385.11 922.13
  Q 385.66 922.21 386.15 921.89
  C 388.64 920.26 391.79 917.28 394.15 919.35
  C 396.77 921.64 402.15 923.27 404.60 919.87
  C 406.98 916.57 405.90 912.22 403.93 908.93
  A 1.21 1.19 54.9 0 1 404.19 907.39
  L 408.17 904.10
  Q 408.56 903.78 408.48 903.28
  Q 407.96 899.91 407.18 899.08
  Q 403.60 895.29 402.93 894.53
  A 1.66 1.61 21.5 0 1 402.52 893.63
  C 402.24 891.40 403.31 888.50 405.82 887.63
  Q 406.76 887.30 407.91 886.72
  A 1.04 1.00 -9.8 0 0 408.45 885.98
  C 408.87 883.27 405.69 879.54 403.75 876.80
  C 401.20 873.20 405.95 872.40 406.19 869.47
  Q 406.66 863.92 403.50 859.96
  A 2.46 2.46 0.0 0 1 403.99 856.43
  C 407.03 854.26 408.63 854.08 407.06 849.43
  Q 406.06 846.49 403.83 840.44
  C 402.90 837.92 404.06 836.11 406.68 836.11
  A 1.86 1.85 87.0 0 0 408.53 834.05
  Q 407.90 828.55 405.73 824.91
  Q 404.67 823.13 404.54 822.40
  Q 404.18 820.37 405.77 819.52
  C 411.38 816.49 412.39 814.40 414.94 809.46
  C 416.39 806.64 421.78 808.82 420.22 812.14
  Q 419.45 813.79 421.13 813.04
  Q 426.75 810.53 427.93 804.81
  Q 428.54 801.80 428.66 801.29
  Q 428.81 800.64 429.14 800.42
  Q 431.71 798.65 433.52 800.87
  Q 433.86 801.30 433.94 801.83
  Q 434.01 802.24 434.27 802.66
  Q 434.56 803.12 434.98 802.79
  C 438.92 799.78 440.94 795.20 441.64 790.44
  C 441.98 788.08 443.36 787.18 445.59 787.81
  Q 446.19 787.98 446.53 788.50
  Q 447.12 789.41 447.67 789.79
  Q 448.04 790.04 448.39 789.76
  C 452.97 786.14 453.23 780.17 453.52 774.85
  C 453.73 771.05 458.19 769.92 459.40 773.83
  A 0.50 0.50 0.0 0 0 460.23 774.04
  C 463.93 770.41 463.19 766.57 463.00 760.38
  C 462.92 757.99 463.30 756.17 466.13 756.29
  C 467.37 756.34 467.89 757.15 468.73 757.97
  Q 469.02 758.25 469.17 757.87
  L 470.48 754.50"
/>
<path stroke="#433616" vector-effect="non-scaling-stroke" d="
  M 470.48 754.50
  Q 471.87 751.68 470.68 748.56"
/>
<path stroke="#785821" vector-effect="non-scaling-stroke" d="
  M 470.68 748.56
  Q 470.06 746.57 469.34 744.40
  Q 468.74 742.58 469.04 741.53
  C 469.43 740.16 471.43 738.73 472.87 739.73
  Q 472.93 739.77 473.97 740.52
  A 0.73 0.72 -61.5 0 0 475.07 740.19
  Q 477.40 734.01 475.79 726.23
  Q 475.24 723.60 478.05 723.02
  Q 478.15 722.99 478.16 722.99
  Q 480.99 722.63 481.49 725.36
  C 482.57 731.21 482.67 739.14 479.43 743.93
  Q 478.87 744.76 479.52 745.51
  Q 483.21 749.78 488.66 755.27
  Q 490.84 757.46 489.30 760.15
  Q 489.05 760.59 488.55 760.58
  L 486.53 760.55
  Q 485.94 760.54 485.52 760.12
  L 477.86 752.47
  Q 476.97 751.58 476.88 752.84
  Q 476.52 757.74 473.51 761.81
  C 472.56 763.09 470.84 763.65 469.55 764.54
  Q 468.80 765.06 468.86 765.98
  Q 469.32 773.22 464.38 778.04
  Q 464.00 778.41 464.12 778.92
  Q 464.93 782.18 467.55 784.56
  Q 467.92 784.89 468.41 784.89
  C 470.73 784.90 472.74 786.59 474.53 786.40
  Q 477.65 786.06 479.24 784.22
  Q 482.82 780.08 484.37 778.41
  C 486.57 776.06 489.74 777.18 490.23 780.51
  Q 490.32 781.10 490.92 781.05
  Q 497.12 780.54 499.33 775.09
  Q 500.37 772.51 501.89 771.94
  Q 502.38 771.76 502.87 771.92
  C 505.31 772.70 508.45 774.31 510.12 772.12
  Q 512.23 769.35 511.16 765.46
  Q 510.66 763.63 510.77 762.94
  C 511.19 760.31 513.49 760.37 515.51 761.22
  Q 515.98 761.42 516.16 760.94
  Q 518.38 754.90 513.95 751.72
  Q 512.10 750.39 511.70 749.51
  Q 510.73 747.34 512.98 746.03
  A 1.44 1.43 -26.3 0 0 513.59 744.25
  Q 511.26 738.47 505.50 737.26
  C 503.16 736.77 501.24 735.91 502.14 733.24
  Q 502.30 732.79 502.63 732.45
  L 503.85 731.23
  Q 504.21 730.87 504.09 730.37
  Q 503.18 726.70 499.48 725.32
  Q 493.12 722.93 492.31 722.64
  Q 491.82 722.46 491.55 722.02
  Q 490.08 719.60 490.68 716.48
  A 1.18 1.15 32.3 0 0 490.46 715.55
  Q 488.13 712.46 485.55 711.12
  Q 484.29 710.46 479.86 708.62
  C 476.38 707.18 477.83 703.89 478.93 701.20
  Q 479.21 700.49 478.70 698.12
  Q 478.39 696.69 477.53 695.37
  Q 475.34 692.01 471.23 688.75
  A 1.72 1.68 11.6 0 1 470.65 687.89
  Q 469.93 685.26 472.54 684.10
  C 473.54 683.65 474.59 684.20 475.55 684.62
  A 0.43 0.43 0.0 0 0 476.15 684.31
  Q 476.79 681.15 475.69 678.83
  Q 473.52 674.27 469.37 672.07
  Q 467.37 671.01 467.09 670.02
  C 466.63 668.41 467.40 666.48 469.27 666.28
  Q 470.27 666.18 470.42 666.15
  Q 470.92 666.05 470.84 665.55
  C 469.75 658.71 465.90 656.94 460.38 654.12
  Q 458.91 653.37 458.87 652.28
  Q 458.74 648.55 462.35 648.73
  A 0.68 0.68 0.0 0 0 463.04 647.86
  Q 461.21 641.46 455.27 639.02
  C 453.88 638.45 451.58 638.41 450.04 637.35
  Q 449.62 637.06 449.45 636.58
  Q 448.50 633.85 451.15 632.49
  Q 451.60 632.25 451.64 631.75
  C 452.08 626.01 442.67 623.39 438.40 622.38
  C 436.32 621.89 434.91 620.18 435.98 618.16
  Q 436.57 617.04 436.63 616.93
  Q 436.86 616.45 436.55 616.08
  C 433.22 612.14 428.74 611.90 423.80 611.82
  C 421.28 611.77 419.33 610.67 420.14 607.84
  C 420.35 607.12 420.97 606.66 421.27 606.16
  Q 421.53 605.72 421.31 605.26
  C 418.66 599.65 413.13 599.44 407.85 601.10"
/>
<path stroke="#801d00" vector-effect="non-scaling-stroke" d="
  M 407.85 601.10
  Q 403.61 601.11 402.09 597.57
  Q 401.14 595.37 400.35 594.77
  C 397.15 592.35 391.24 592.27 387.70 592.98
  C 385.65 593.38 384.70 594.56 382.61 593.14
  C 377.55 589.71 371.15 588.65 365.87 591.66
  C 361.91 593.92 358.92 590.41 356.30 589.19
  Q 351.09 586.75 345.80 589.36
  Q 345.30 589.61 344.35 591.09
  Q 343.21 592.86 340.98 593.17
  Q 339.67 593.35 337.40 592.37
  Q 332.47 590.25 327.65 591.16"
/>
<path stroke="#f77421" vector-effect="non-scaling-stroke" d="
  M 407.85 601.10
  L 402.68 614.87"
/>
<path stroke="#801d00" vector-effect="non-scaling-stroke" d="
  M 402.68 614.87
  Q 400.62 614.14 399.52 614.44
  Q 389.24 617.25 379.88 622.35
  C 378.62 623.04 377.02 623.03 375.67 623.79
  Q 373.14 625.21 373.07 625.23
  Q 369.31 626.88 365.70 628.87
  Q 363.33 630.18 362.60 631.49
  C 360.61 635.07 365.31 636.21 363.86 639.03
  Q 363.63 639.49 363.12 639.39
  Q 360.69 638.91 358.51 639.47
  Q 358.00 639.60 357.74 639.15
  Q 357.31 638.40 357.39 637.51
  Q 357.44 637.01 357.82 636.67
  Q 363.03 631.90 355.16 627.92"
/>
<path stroke="#c32700" vector-effect="non-scaling-stroke" d="
  M 355.16 627.92
  Q 352.36 626.25 349.27 624.83
  Q 347.27 623.91 345.24 623.10
  Q 343.33 622.33 341.28 621.23
  Q 335.73 618.25 329.71 616.63"
/>
<path stroke="#801d00" vector-effect="non-scaling-stroke" d="
  M 329.71 616.63
  L 324.67 615.16"
/>
<path stroke="#f77421" vector-effect="non-scaling-stroke" d="
  M 324.67 615.16
  L 327.65 591.16"
/>
<path stroke="#440a00" vector-effect="non-scaling-stroke" d="
  M 329.71 616.63
  L 355.16 627.92"
/>
<path stroke="#801d00" vector-effect="non-scaling-stroke" d="
  M 389.20 656.84
  Q 383.23 659.27 376.35 656.65
  A 0.45 0.44 4.4 0 0 375.75 657.16
  Q 376.63 661.14 375.31 665.36
  Q 375.08 666.06 375.82 666.10
  C 388.17 666.62 399.24 667.51 410.73 673.54"
/>
<path stroke="#801d00" vector-effect="non-scaling-stroke" d="
  M 402.54 689.14
  Q 395.56 686.49 385.24 685.08
  Q 372.70 683.38 366.75 683.56
  C 359.18 683.79 352.38 683.24 344.78 684.07
  C 337.08 684.91 328.42 685.73 320.99 688.48
  Q 317.75 689.68 315.11 693.00"
/>
<path stroke="#801d00" vector-effect="non-scaling-stroke" d="
  M 316.56 670.97
  C 326.57 667.03 335.52 666.50 345.81 666.13
  Q 346.55 666.10 346.32 665.40
  Q 345.05 661.66 345.72 657.32
  Q 345.82 656.71 345.22 656.88
  Q 327.79 661.78 321.05 645.27"
/>
<path stroke="#785821" vector-effect="non-scaling-stroke" d="
  M 324.67 615.16
  Q 321.87 613.88 318.91 615.01
  Q 318.44 615.19 318.33 615.68
  Q 317.68 618.71 320.07 620.31
  Q 323.28 622.46 324.15 623.49
  Q 324.51 623.93 323.95 623.84
  C 320.57 623.35 314.64 622.27 312.32 624.20
  A 2.20 2.19 38.8 0 0 312.72 627.83
  Q 317.78 630.46 322.92 631.19
  A 0.74 0.74 0.0 0 1 323.48 632.27
  Q 320.35 638.25 321.05 645.27"
/>
<path stroke="#f77421" vector-effect="non-scaling-stroke" d="
  M 321.05 645.27
  Q 320.25 646.10 320.10 648.05
  Q 319.93 650.34 319.82 650.94
  Q 318.43 658.87 317.41 666.85
  Q 317.15 668.91 316.56 670.97"
/>
<path stroke="#785821" vector-effect="non-scaling-stroke" d="
  M 316.56 670.97
  Q 309.42 673.65 306.89 675.90
  C 304.79 677.77 302.02 679.37 300.99 681.17
  C 300.10 682.75 298.54 684.41 297.65 686.08
  Q 291.44 697.72 290.98 699.39
  Q 290.57 700.89 289.61 704.07
  Q 288.94 706.30 289.13 708.74
  Q 289.17 709.26 289.61 709.55
  Q 293.10 711.79 296.36 710.34
  Q 300.60 708.44 304.89 704.63
  Q 308.54 701.38 315.11 693.00"
/>
<path stroke="#f77421" vector-effect="non-scaling-stroke" d="
  M 315.11 693.00
  Q 317.97 694.45 320.26 694.17
  Q 334.43 692.43 348.94 692.97
  A 0.27 0.26 1.1 0 1 349.20 693.23
  Q 349.23 713.13 349.18 724.87
  Q 349.17 727.69 348.88 731.11
  C 348.44 736.34 348.76 740.69 348.18 746.71
  Q 347.33 755.46 347.05 762.33
  C 346.87 766.78 346.00 771.60 345.94 775.62
  C 345.89 779.75 350.39 782.97 352.81 778.30
  Q 357.25 769.76 361.51 763.11
  Q 364.38 758.64 366.70 754.28
  C 370.32 747.50 374.57 741.67 377.67 734.91
  Q 381.23 727.15 385.15 719.81
  Q 385.22 719.68 392.20 706.21
  Q 396.83 697.26 402.54 689.14"
/>
<path stroke="#785821" vector-effect="non-scaling-stroke" d="
  M 402.54 689.14
  Q 408.64 695.34 413.16 700.84
  Q 418.31 707.13 425.56 710.58
  C 427.75 711.61 432.84 711.13 432.59 707.78
  Q 432.33 704.19 431.21 701.29
  Q 427.64 692.04 422.40 683.62
  Q 418.69 677.65 410.73 673.54"
/>
<path stroke="#f77421" vector-effect="non-scaling-stroke" d="
  M 410.73 673.54
  Q 414.08 668.67 415.76 664.74
  C 417.08 661.66 415.39 659.05 411.87 659.26
  Q 408.96 659.43 403.32 658.57
  Q 401.69 658.32 398.52 658.73
  Q 393.15 659.40 389.20 656.84"
/>
<path stroke="#785821" vector-effect="non-scaling-stroke" d="
  M 389.20 656.84
  Q 397.41 652.31 399.88 644.38
  Q 400.19 643.39 399.90 636.61
  C 399.82 634.74 399.02 633.52 398.17 632.16
  A 0.67 0.67 0.0 0 1 398.60 631.15
  C 402.20 630.41 405.77 630.16 409.21 627.97
  A 2.41 2.40 -49.9 0 0 408.85 623.72
  C 406.27 622.65 402.07 623.11 399.29 623.74
  Q 396.79 624.30 398.71 622.60
  Q 400.14 621.33 401.29 620.49
  Q 406.07 617.01 402.68 614.87"
/>
<path stroke="#bb8e37" vector-effect="non-scaling-stroke" d="
  M 470.68 748.56
  L 470.48 754.50"
/>
<path stroke="#413c3b" vector-effect="non-scaling-stroke" d="
  M 458.64 782.70
  Q 457.85 783.59 458.32 784.06"
/>
<path stroke="#808080" vector-effect="non-scaling-stroke" d="
  M 458.32 784.06
  C 457.32 789.06 453.66 795.26 447.94 795.61
  Q 447.25 795.65 446.74 795.84
  A 1.04 1.04 0.0 0 0 446.11 796.51
  Q 444.98 800.12 442.81 803.00
  Q 442.20 803.81 442.81 804.62
  Q 447.39 810.64 455.72 810.51
  Q 458.46 810.47 461.60 807.56
  C 463.54 805.76 465.37 802.72 461.80 801.33
  C 460.07 800.66 457.57 803.63 455.69 803.86
  C 452.88 804.21 451.43 800.97 453.38 799.12
  Q 454.60 797.97 457.64 796.15
  Q 458.63 795.56 460.56 792.96
  C 461.57 791.60 461.26 789.54 461.88 787.80
  Q 462.06 787.32 461.78 786.89
  L 459.56 783.39"
/>
<path stroke="#785821" vector-effect="non-scaling-stroke" d="
  M 459.56 783.39
  Q 459.17 781.87 458.64 782.70"
/>
<path stroke="#f7d7a1" vector-effect="non-scaling-stroke" d="
  M 459.56 783.39
  L 458.83 783.78"
/>
<path stroke="#b8935c" vector-effect="non-scaling-stroke" d="
  M 458.83 783.78
  L 458.64 782.70"
/>
<path stroke="#c0bbba" vector-effect="non-scaling-stroke" d="
  M 458.83 783.78
  Q 458.58 783.98 458.32 784.06"
/>
<path stroke="#808080" vector-effect="non-scaling-stroke" d="
  M 234.32 831.57
  C 235.64 829.08 239.25 829.20 240.06 832.02
  Q 241.12 835.70 241.79 839.36
  C 242.13 841.20 242.86 842.28 244.34 843.10
  A 1.84 1.83 30.9 0 0 246.78 842.49
  Q 248.09 840.47 247.51 838.01
  Q 245.75 830.47 246.00 823.00
  A 0.33 0.33 0.0 0 0 245.51 822.70
  C 239.49 826.03 234.16 823.84 230.69 818.50
  Q 230.08 817.54 228.16 817.12
  Q 227.63 817.00 227.45 817.51
  Q 226.62 819.89 226.39 823.14
  C 225.74 832.52 225.64 840.45 230.53 848.82
  Q 232.24 851.74 236.32 851.08
  Q 236.33 851.08 236.58 850.97
  Q 239.90 849.53 238.01 846.44
  C 236.08 843.27 232.51 834.98 234.32 831.57"
/>
<path stroke="#433616" vector-effect="non-scaling-stroke" d="
  M 316.22 924.82
  Q 305.99 931.68 301.13 942.63
  C 298.90 947.65 306.74 947.53 309.76 947.41
  C 319.07 947.06 328.97 941.52 335.42 938.93
  C 337.24 938.19 343.80 935.13 342.06 931.87
  Q 341.03 929.93 339.35 926.38
  C 338.77 925.15 336.99 923.73 335.24 923.88
  Q 333.69 924.02 331.78 923.21
  Q 331.30 923.01 330.86 923.30
  Q 330.60 923.48 328.21 924.96
  C 324.48 927.26 321.00 925.00 317.67 922.92
  Q 317.11 922.57 317.12 923.23
  Q 317.13 923.61 317.04 923.94
  Q 316.94 924.33 316.22 924.82"
/>
<path stroke="#433616" vector-effect="non-scaling-stroke" d="
  M 382.50 927.96
  A 1.09 1.09 0.0 0 0 381.42 928.50
  L 378.90 932.86
  A 1.89 1.88 -52.9 0 0 379.21 935.15
  Q 381.83 937.71 385.61 939.42
  C 396.37 944.28 404.74 948.75 416.04 948.42
  C 419.44 948.32 422.12 946.87 420.27 942.97
  Q 415.71 933.41 406.18 926.79
  Q 405.75 926.50 405.26 926.67
  Q 398.80 929.00 392.12 925.29
  A 0.80 0.80 0.0 0 0 391.20 925.38
  Q 387.37 928.63 382.50 927.96"
/>
<path stroke="#808080" vector-effect="non-scaling-stroke" d="
  M 351.36 645.31
  Q 351.49 645.10 351.91 644.62
  Q 352.14 644.34 352.20 643.82
  C 352.52 640.86 352.46 635.35 347.86 635.84
  Q 347.29 635.90 347.35 636.46
  C 347.78 640.52 343.75 642.42 340.47 640.95
  C 337.46 639.61 338.26 637.41 338.12 634.76
  Q 338.09 634.31 337.65 634.24
  L 330.63 633.03
  A 0.70 0.69 15.8 0 0 329.87 633.45
  Q 327.97 637.93 327.78 638.78
  C 326.66 643.68 328.42 647.76 332.83 650.27
  Q 339.21 653.89 346.14 650.32
  Q 349.05 648.82 351.36 645.31"
/>
<path stroke="#413c3b" vector-effect="non-scaling-stroke" d="
  M 377.63 651.28
  Q 377.51 651.34 377.67 651.59
  Q 377.75 651.70 377.89 651.77
  Q 383.29 654.29 387.58 651.31"
/>
<path stroke="#808080" vector-effect="non-scaling-stroke" d="
  M 387.58 651.31
  Q 389.60 650.26 391.44 647.45
  Q 395.15 641.81 394.23 637.00
  Q 394.18 636.73 393.89 636.55
  Q 393.83 636.51 393.60 636.33
  Q 393.36 636.13 393.32 635.80
  Q 393.14 634.51 392.18 633.49
  Q 391.85 633.14 391.37 633.12
  Q 387.14 632.88 382.03 634.16
  Q 381.51 634.29 381.80 634.75
  Q 384.40 638.70 381.08 642.04
  Q 379.56 643.56 377.51 643.04
  Q 373.65 642.07 373.30 637.81
  Q 373.16 636.16 371.70 636.68
  L 370.98 636.94
  A 2.47 2.47 0.0 0 0 369.35 639.26
  L 369.35 643.68
  Q 369.35 644.17 369.63 644.56
  L 370.66 646.04
  Q 370.68 646.06 370.69 646.04
  Q 370.72 645.99 370.73 645.98
  Q 370.82 645.86 370.91 645.99
  Q 373.46 649.67 377.63 651.28"
/>
<path stroke="#c0bbba" vector-effect="non-scaling-stroke" d="
  M 387.58 651.31
  L 379.63 651.58
  Q 379.13 651.60 378.77 651.25
  Q 378.08 650.59 377.63 651.28"
/>
<path stroke="#744c5e" vector-effect="non-scaling-stroke" d="
  M 360.81 668.17
  C 363.85 668.16 368.78 667.15 369.85 663.84
  C 371.59 658.46 368.19 652.28 365.08 647.93
  Q 363.61 645.87 360.79 645.87
  Q 357.97 645.87 356.50 647.94
  C 353.40 652.29 350.01 658.48 351.76 663.86
  C 352.85 667.17 357.77 668.17 360.81 668.17"
/>
<path stroke="#622042" vector-effect="non-scaling-stroke" d="
  M 303.04 698.36
  C 304.17 697.01 305.32 696.04 306.08 695.09
  C 310.32 689.80 314.75 684.00 320.43 682.48
  C 337.13 678.00 355.06 677.21 373.83 678.20
  Q 385.40 678.81 397.78 681.59
  Q 402.40 682.63 404.60 683.98
  C 409.46 686.93 412.16 691.01 417.11 696.94
  Q 420.69 701.24 425.58 704.36
  Q 427.42 705.54 426.42 703.59
  C 423.85 698.65 421.78 693.17 418.61 688.73
  C 414.80 683.40 412.38 680.72 407.46 678.28
  C 396.35 672.77 385.23 672.18 372.34 671.53
  Q 370.50 671.44 367.66 672.36
  Q 362.63 673.99 357.19 673.21
  Q 357.17 673.20 353.26 672.15
  Q 350.72 671.47 347.28 671.65
  Q 335.45 672.28 332.34 672.72
  C 324.28 673.87 315.30 676.56 308.99 681.44
  Q 305.33 684.27 304.14 686.14
  Q 300.46 691.92 299.60 694.07
  Q 297.99 698.14 295.18 703.49
  Q 294.25 705.26 296.00 704.29
  Q 299.88 702.14 303.04 698.36"
/>
</g>
<path fill="#000000" d="
  M 500.47 719.49
  Q 509.88 722.64 509.84 731.89
  Q 509.84 732.42 510.32 732.65
  C 516.14 735.49 520.30 741.20 519.27 748.00
  Q 519.19 748.50 519.52 748.89
  Q 525.38 755.91 520.89 764.38
  Q 520.40 765.30 517.89 767.40
  A 1.38 1.36 -14.9 0 0 517.41 768.21
  Q 517.11 769.86 516.85 770.85
  Q 514.28 780.49 504.54 778.80
  Q 504.06 778.72 503.77 779.12
  L 501.12 782.79
  Q 494.20 788.91 486.47 785.71
  Q 486.01 785.52 485.65 785.86
  Q 485.44 786.05 483.55 788.00
  Q 477.32 794.44 468.98 791.05
  A 1.42 1.42 0.0 0 0 467.10 791.91
  L 465.67 796.04
  Q 465.50 796.53 465.93 796.81
  Q 470.01 799.41 469.74 804.03
  C 469.42 809.44 464.23 813.85 459.19 815.67
  Q 453.19 817.83 447.48 815.29
  Q 441.21 812.49 438.60 808.45
  Q 438.25 807.92 437.64 808.09
  L 433.13 809.37
  Q 432.72 809.49 432.47 809.82
  Q 432.14 810.26 431.43 811.44
  Q 426.33 820.00 416.45 819.13
  Q 415.93 819.08 415.60 819.49
  Q 414.05 821.41 411.84 822.63
  Q 411.37 822.90 411.57 823.40
  C 414.25 829.87 416.18 835.73 410.93 841.33
  Q 410.58 841.70 410.75 842.19
  C 412.52 847.34 415.68 853.90 410.92 858.54
  Q 410.57 858.87 410.40 859.30
  Q 410.26 859.68 410.44 860.17
  C 412.48 865.73 414.33 869.56 410.87 875.09
  Q 410.60 875.51 410.90 875.91
  C 414.23 880.44 416.45 884.87 413.68 890.02
  C 412.97 891.32 411.56 891.92 410.51 892.62
  Q 410.05 892.93 410.43 893.34
  Q 413.87 897.09 414.98 902.05
  C 415.80 905.76 414.39 907.54 412.03 909.98
  Q 411.67 910.35 411.77 910.86
  C 412.59 915.25 413.05 918.36 410.68 922.72
  A 0.26 0.25 -58.6 0 0 410.76 923.06
  Q 418.20 927.83 422.67 935.50
  C 425.52 940.39 428.09 945.31 424.20 950.05
  Q 421.58 953.25 416.15 953.90
  C 407.91 954.88 398.83 951.80 391.37 948.18
  Q 388.75 946.91 383.62 944.68
  Q 380.58 943.36 375.81 939.96
  Q 373.72 938.47 373.28 936.69
  Q 372.54 933.71 373.12 932.18
  Q 374.66 928.15 375.86 925.75
  A 0.81 0.79 -52.2 0 0 375.76 924.87
  C 372.70 921.27 373.31 916.14 374.53 911.75
  Q 374.66 911.28 374.22 911.07
  C 366.66 907.40 368.05 898.28 371.61 892.34
  Q 371.97 891.74 371.30 891.50
  L 370.51 891.23
  Q 370.01 891.06 369.63 890.69
  C 364.85 886.07 365.76 879.17 368.35 873.85
  Q 369.28 871.94 369.54 871.25
  Q 369.71 870.79 369.33 870.48
  Q 366.25 867.90 365.84 864.96
  Q 364.87 857.86 368.25 852.01
  A 0.31 0.31 0.0 0 0 368.15 851.60
  C 363.06 848.11 362.55 841.81 364.03 836.27
  A 0.32 0.32 0.0 0 0 363.67 835.87
  Q 359.86 836.60 356.07 835.57
  Q 355.46 835.40 355.62 836.01
  C 357.63 843.38 358.05 849.95 353.07 855.67
  Q 352.73 856.07 352.96 856.53
  C 355.46 861.60 354.95 868.82 350.85 873.18
  A 0.68 0.66 -36.6 0 0 350.73 873.93
  C 353.27 879.31 354.12 886.16 348.89 890.48
  Q 348.51 890.80 348.72 891.25
  C 351.59 897.37 352.59 902.90 348.20 908.32
  C 346.67 910.21 347.82 910.81 347.93 912.67
  Q 348.27 918.45 344.31 922.95
  Q 343.98 923.33 344.30 923.72
  C 347.51 927.62 349.63 936.03 345.14 939.54
  C 340.41 943.25 336.50 944.54 329.93 947.57
  Q 324.21 950.20 320.72 951.19
  Q 313.52 953.23 306.00 953.85
  C 304.67 953.96 301.24 953.12 299.78 952.43
  C 292.13 948.86 293.90 942.15 297.27 935.97
  Q 297.85 934.91 299.72 932.98
  C 300.97 931.69 301.82 930.08 302.95 928.87
  Q 307.55 923.99 309.70 922.11
  Q 310.14 921.73 309.66 921.42
  Q 303.58 917.44 305.70 909.21
  Q 307.29 903.03 309.87 899.24
  Q 310.16 898.81 309.82 898.44
  Q 307.14 895.47 306.92 894.26
  Q 305.52 886.78 310.18 880.13
  A 1.02 1.02 0.0 0 0 310.05 878.81
  C 305.09 873.98 306.78 865.84 310.53 860.74
  A 0.67 0.67 0.0 0 0 310.41 859.82
  C 304.53 855.08 306.54 845.95 310.93 841.26
  Q 311.30 840.87 310.86 840.56
  C 306.15 837.17 306.55 831.65 308.09 826.65
  Q 308.25 826.13 307.72 826.01
  Q 298.62 823.92 294.37 815.27
  A 0.88 0.87 67.5 0 0 293.32 814.83
  C 287.37 816.80 282.63 812.25 279.97 807.73
  Q 279.70 807.26 279.21 807.03
  Q 276.53 805.76 274.91 803.02
  A 1.35 1.35 0.0 0 0 274.11 802.42
  C 270.85 801.53 270.87 799.91 268.80 797.98
  C 267.12 796.42 265.80 792.04 265.45 790.33
  Q 265.34 789.77 264.76 789.82
  Q 263.06 789.97 261.97 789.67
  Q 261.38 789.51 261.39 790.12
  Q 261.46 796.82 257.01 800.86
  Q 256.62 801.22 256.79 801.72
  C 259.01 808.34 259.47 814.00 253.72 818.75
  A 3.05 3.03 -16.4 0 0 252.64 820.71
  Q 252.03 825.67 252.75 830.76
  C 253.22 834.11 254.61 838.49 253.81 842.03
  Q 252.44 848.05 246.42 849.81
  Q 245.91 849.96 245.68 850.43
  C 243.10 855.71 240.74 859.09 234.02 857.81
  Q 226.46 856.38 223.31 849.05
  Q 220.26 841.95 219.90 836.45
  Q 219.01 823.03 221.35 815.22
  Q 221.50 814.69 221.05 814.37
  C 214.55 809.72 216.21 800.69 220.94 795.32
  Q 221.26 794.96 220.93 794.60
  C 214.42 787.53 218.59 777.72 224.43 771.84
  Q 224.91 771.37 224.48 770.85
  C 219.45 764.81 222.37 754.18 226.55 748.35
  Q 226.73 748.09 226.59 747.82
  Q 223.46 741.82 224.74 737.28
  C 225.32 735.23 227.91 727.72 230.98 726.30
  Q 231.54 726.04 231.09 725.61
  C 230.02 724.60 228.89 723.78 228.38 722.15
  Q 226.87 717.34 227.09 715.97
  Q 228.38 707.78 234.44 701.98
  A 0.89 0.89 0.0 0 0 234.44 700.70
  C 227.66 694.24 233.28 684.31 239.29 679.79
  A 0.77 0.77 0.0 0 0 239.35 678.61
  C 234.89 674.47 236.00 667.59 239.17 662.88
  Q 242.55 657.86 247.94 654.40
  Q 248.36 654.13 248.14 653.68
  C 243.24 643.81 253.28 634.97 262.04 633.15
  A 0.70 0.70 0.0 0 0 262.55 632.20
  C 258.90 623.46 270.13 617.34 277.29 616.29
  A 0.48 0.48 0.0 0 0 277.70 615.79
  C 277.27 606.53 287.17 602.12 294.97 603.00
  Q 295.47 603.06 295.57 602.56
  C 297.47 593.08 308.97 591.06 317.22 592.64
  Q 317.70 592.73 317.88 592.28
  C 321.35 583.68 332.02 583.94 339.27 586.75
  A 0.90 0.89 -53.3 0 0 340.14 586.62
  C 340.61 586.25 340.90 585.65 341.46 585.22
  C 347.80 580.40 356.45 581.65 362.39 586.17
  Q 362.81 586.50 363.29 586.26
  C 370.78 582.53 377.39 583.85 384.74 587.32
  A 1.53 1.50 51.4 0 0 385.65 587.43
  C 393.62 585.81 403.73 586.59 407.47 594.77
  Q 407.67 595.20 408.13 595.10
  C 417.15 593.01 425.35 596.13 427.42 605.71
  Q 427.52 606.21 428.03 606.23
  C 434.11 606.42 442.27 610.01 442.66 617.06
  Q 442.69 617.60 443.21 617.74
  C 450.78 619.83 458.12 624.20 457.40 633.03
  Q 457.36 633.55 457.83 633.77
  C 464.11 636.66 470.50 643.69 468.24 651.09
  Q 468.08 651.63 468.56 651.92
  C 474.29 655.36 478.04 663.08 476.19 669.56
  Q 476.03 670.11 476.46 670.48
  C 481.22 674.66 484.65 682.70 480.40 688.21
  Q 479.85 688.93 480.44 689.61
  Q 486.37 696.40 484.34 703.60
  Q 484.18 704.14 484.71 704.36
  C 490.42 706.74 496.40 710.56 496.57 717.41
  Q 496.58 717.93 497.06 718.12
  L 500.47 719.49
  Z
  M 327.65 591.16
  Q 325.70 591.47 324.57 592.41
  C 322.53 594.08 323.94 596.98 320.49 598.46
  Q 319.11 599.05 316.56 598.52
  C 311.47 597.46 305.27 597.69 301.82 601.97
  Q 301.50 602.37 301.53 602.88
  C 301.61 604.34 302.23 605.86 301.82 607.17
  C 301.24 609.05 299.53 609.65 297.61 609.20
  C 292.72 608.03 287.69 608.73 284.35 612.30
  A 3.06 3.06 0.0 0 0 283.77 615.60
  C 285.09 618.64 285.46 621.07 281.26 621.49
  C 276.19 622.00 271.04 623.44 267.98 627.82
  A 1.95 1.94 38.8 0 0 268.26 630.38
  Q 271.00 632.89 268.91 636.75
  Q 268.30 637.88 266.57 638.09
  C 260.74 638.78 252.77 642.43 252.60 649.08
  A 2.39 2.38 7.5 0 0 254.43 651.46
  C 258.53 652.45 258.31 656.54 254.50 657.72
  Q 251.26 658.71 250.36 659.86
  Q 248.74 661.89 245.71 664.94
  Q 242.35 668.33 242.91 672.70
  A 1.75 1.74 88.6 0 0 244.50 674.22
  Q 248.07 674.51 248.80 678.54
  Q 249.18 680.62 247.65 681.48
  C 243.09 684.05 238.58 688.12 237.75 693.33
  A 2.87 2.85 18.6 0 0 239.24 696.30
  C 240.57 697.01 242.50 697.52 243.10 698.80
  C 244.00 700.68 243.26 701.89 241.85 703.30
  C 237.35 707.86 234.07 711.57 233.46 718.17
  A 2.02 2.02 0.0 0 0 234.52 720.13
  Q 235.94 720.88 236.56 721.15
  C 238.71 722.13 239.38 724.46 237.75 726.28
  C 234.72 729.67 229.48 738.84 231.71 743.63
  Q 231.95 744.14 232.43 744.42
  L 234.72 745.74
  Q 235.23 746.03 235.33 746.61
  Q 235.81 749.50 232.67 751.11
  Q 232.23 751.34 231.92 751.74
  Q 228.19 756.65 228.35 763.51
  C 228.43 766.67 229.42 766.16 231.71 767.31
  C 234.48 768.69 233.54 771.73 231.68 773.38
  C 227.40 777.18 223.61 782.36 224.18 788.01
  Q 224.23 788.57 224.63 788.95
  Q 226.81 791.10 227.80 795.60
  C 228.18 797.28 227.38 798.08 226.23 799.11
  C 223.80 801.25 222.93 804.47 223.45 807.55
  A 2.26 2.25 -4.3 0 0 225.64 809.43
  L 232.53 809.53
  A 2.93 2.93 0.0 0 1 235.40 812.18
  Q 235.64 814.73 237.17 816.40
  C 240.59 820.14 244.46 815.54 247.40 813.07
  A 0.80 0.78 -64.1 0 1 247.90 812.89
  L 250.38 812.93
  Q 250.85 812.94 251.05 812.51
  C 253.89 806.25 247.76 802.60 250.66 796.90
  A 1.17 1.16 5.3 0 1 251.38 796.31
  C 254.95 795.29 254.70 792.90 254.88 789.81
  Q 255.00 787.84 254.81 787.24
  Q 253.03 781.36 253.27 775.39
  Q 253.29 774.85 252.78 774.66
  Q 252.24 774.46 251.36 774.14
  C 245.21 771.90 245.34 765.28 245.85 758.99
  Q 245.90 758.44 245.36 758.30
  C 244.38 758.05 243.35 757.59 242.58 756.83
  Q 236.93 751.19 238.53 743.04
  Q 238.88 741.30 241.59 735.27
  Q 242.82 732.52 245.64 733.67
  Q 245.66 733.68 245.76 733.73
  Q 248.50 735.12 247.36 737.77
  Q 244.55 744.29 244.70 749.75
  C 244.74 751.20 245.82 752.32 247.03 752.83
  Q 247.50 753.03 247.89 752.72
  C 248.78 752.04 249.52 751.37 250.73 751.63
  C 253.30 752.20 253.74 754.20 252.63 756.57
  C 251.25 759.52 250.67 763.83 252.40 766.87
  C 253.24 768.36 254.54 768.56 256.51 769.43
  A 2.39 2.38 -75.2 0 1 257.92 771.86
  Q 257.57 775.27 258.53 779.01
  C 259.43 782.48 262.05 785.84 265.91 783.27
  C 268.51 781.54 270.29 783.57 270.58 786.17
  Q 271.23 791.93 274.35 796.10
  A 2.12 2.11 -26.2 0 0 276.63 796.87
  L 278.80 796.25
  A 2.62 2.62 0.0 0 1 282.06 798.17
  Q 283.66 804.95 289.20 809.27
  A 1.44 1.44 0.0 0 0 290.63 809.46
  Q 293.14 808.41 296.06 808.39
  A 2.48 2.48 0.0 0 1 298.43 810.10
  Q 300.36 816.11 305.98 819.34
  Q 308.35 820.70 310.70 819.68
  C 312.78 818.77 313.88 818.33 315.33 820.18
  C 316.58 821.77 316.60 823.12 315.44 824.90
  Q 312.73 829.01 312.88 833.71
  A 2.06 2.05 -78.6 0 0 314.07 835.51
  Q 315.42 836.14 316.68 836.63
  C 319.61 837.78 319.37 840.25 317.56 842.26
  Q 316.41 843.53 316.03 844.26
  C 315.33 845.58 313.90 846.50 313.39 847.91
  C 312.37 850.72 311.62 855.64 316.21 855.85
  Q 316.73 855.88 317.16 856.18
  C 319.21 857.62 319.03 859.45 317.46 861.28
  C 314.44 864.80 312.22 868.21 313.02 873.08
  Q 313.11 873.60 313.48 873.98
  L 316.55 877.05
  A 2.83 2.82 43.3 0 1 316.67 880.93
  C 314.07 883.87 311.51 888.81 312.76 892.79
  Q 312.90 893.26 313.29 893.57
  C 315.54 895.35 318.36 896.13 316.20 899.73
  C 313.48 904.27 311.08 908.92 311.12 914.28
  Q 311.12 914.82 311.60 915.09
  Q 312.46 915.58 313.57 915.75
  A 0.88 0.88 0.0 0 0 314.39 915.44
  Q 316.01 913.47 317.93 914.49
  Q 318.60 914.84 319.87 916.78
  Q 321.56 919.35 324.87 919.95
  Q 325.39 920.04 325.82 919.72
  L 329.77 916.81
  A 2.75 2.75 0.0 0 1 333.28 917.01
  C 335.95 919.50 341.51 919.74 341.82 914.92
  Q 342.07 911.02 339.91 908.07
  Q 339.60 907.65 339.63 907.13
  Q 339.73 905.09 341.65 904.29
  Q 342.11 904.09 342.60 904.18
  Q 343.26 904.30 343.83 904.19
  Q 344.33 904.09 344.52 903.62
  C 346.48 898.85 344.09 895.02 342.04 891.11
  Q 341.73 890.52 341.82 890.18
  C 342.28 888.37 344.21 886.54 345.52 885.55
  C 348.63 883.21 345.53 876.09 344.10 873.34
  A 2.74 2.74 0.0 0 1 345.22 869.66
  Q 346.33 869.06 346.91 868.68
  C 349.00 867.33 348.71 862.61 348.18 860.44
  C 347.80 858.84 346.41 857.25 346.17 855.79
  Q 345.47 851.66 349.16 850.86
  A 1.53 1.52 -86.0 0 0 350.25 849.91
  C 352.15 844.87 350.91 839.15 348.74 834.50
  Q 348.51 834.02 348.01 834.17
  Q 340.62 836.31 335.07 830.53
  Q 333.42 828.81 335.20 826.87
  Q 335.21 826.86 335.27 826.80
  Q 337.21 825.07 339.10 826.66
  C 340.89 828.15 344.23 830.11 346.25 828.29
  C 347.62 827.07 348.61 826.77 350.40 827.38
  Q 351.95 827.92 357.12 829.87
  Q 357.97 830.19 362.07 830.12
  C 364.53 830.07 365.74 827.53 368.14 826.70
  Q 368.63 826.53 369.11 826.69
  Q 373.66 828.17 378.38 827.14
  C 380.02 826.78 380.68 824.65 383.30 825.46
  Q 384.45 825.82 384.92 826.95
  Q 385.97 829.54 382.79 831.38
  Q 378.06 834.11 371.88 833.27
  Q 371.35 833.20 371.09 833.66
  Q 369.49 836.45 369.19 841.50
  Q 368.91 846.14 372.64 847.29
  Q 374.75 847.95 375.26 848.64
  Q 376.32 850.08 375.24 852.08
  C 374.76 852.96 373.84 853.20 373.38 853.93
  Q 373.10 854.36 373.11 854.87
  Q 373.13 855.44 372.76 855.81
  Q 372.41 856.17 372.30 856.67
  C 371.37 860.71 370.24 866.09 375.07 867.23
  A 2.38 2.38 0.0 0 1 376.64 870.62
  Q 373.44 876.90 372.90 878.11
  Q 371.39 881.51 372.73 885.54
  Q 372.90 886.04 373.41 886.18
  C 376.57 887.05 380.84 889.57 377.94 893.21
  Q 374.00 898.13 374.80 904.01
  A 1.35 1.31 -76.9 0 0 375.35 904.92
  Q 377.04 906.08 380.32 906.50
  Q 380.82 906.56 381.14 906.94
  C 383.21 909.39 381.67 911.32 380.28 913.99
  Q 379.09 916.27 379.44 919.85
  A 1.99 1.92 1.4 0 0 381.13 921.57
  L 385.11 922.13
  Q 385.66 922.21 386.15 921.89
  C 388.64 920.26 391.79 917.28 394.15 919.35
  C 396.77 921.64 402.15 923.27 404.60 919.87
  C 406.98 916.57 405.90 912.22 403.93 908.93
  A 1.21 1.19 54.9 0 1 404.19 907.39
  L 408.17 904.10
  Q 408.56 903.78 408.48 903.28
  Q 407.96 899.91 407.18 899.08
  Q 403.60 895.29 402.93 894.53
  A 1.66 1.61 21.5 0 1 402.52 893.63
  C 402.24 891.40 403.31 888.50 405.82 887.63
  Q 406.76 887.30 407.91 886.72
  A 1.04 1.00 -9.8 0 0 408.45 885.98
  C 408.87 883.27 405.69 879.54 403.75 876.80
  C 401.20 873.20 405.95 872.40 406.19 869.47
  Q 406.66 863.92 403.50 859.96
  A 2.46 2.46 0.0 0 1 403.99 856.43
  C 407.03 854.26 408.63 854.08 407.06 849.43
  Q 406.06 846.49 403.83 840.44
  C 402.90 837.92 404.06 836.11 406.68 836.11
  A 1.86 1.85 87.0 0 0 408.53 834.05
  Q 407.90 828.55 405.73 824.91
  Q 404.67 823.13 404.54 822.40
  Q 404.18 820.37 405.77 819.52
  C 411.38 816.49 412.39 814.40 414.94 809.46
  C 416.39 806.64 421.78 808.82 420.22 812.14
  Q 419.45 813.79 421.13 813.04
  Q 426.75 810.53 427.93 804.81
  Q 428.54 801.80 428.66 801.29
  Q 428.81 800.64 429.14 800.42
  Q 431.71 798.65 433.52 800.87
  Q 433.86 801.30 433.94 801.83
  Q 434.01 802.24 434.27 802.66
  Q 434.56 803.12 434.98 802.79
  C 438.92 799.78 440.94 795.20 441.64 790.44
  C 441.98 788.08 443.36 787.18 445.59 787.81
  Q 446.19 787.98 446.53 788.50
  Q 447.12 789.41 447.67 789.79
  Q 448.04 790.04 448.39 789.76
  C 452.97 786.14 453.23 780.17 453.52 774.85
  C 453.73 771.05 458.19 769.92 459.40 773.83
  A 0.50 0.50 0.0 0 0 460.23 774.04
  C 463.93 770.41 463.19 766.57 463.00 760.38
  C 462.92 757.99 463.30 756.17 466.13 756.29
  C 467.37 756.34 467.89 757.15 468.73 757.97
  Q 469.02 758.25 469.17 757.87
  L 470.48 754.50
  Q 471.87 751.68 470.68 748.56
  Q 470.06 746.57 469.34 744.40
  Q 468.74 742.58 469.04 741.53
  C 469.43 740.16 471.43 738.73 472.87 739.73
  Q 472.93 739.77 473.97 740.52
  A 0.73 0.72 -61.5 0 0 475.07 740.19
  Q 477.40 734.01 475.79 726.23
  Q 475.24 723.60 478.05 723.02
  Q 478.15 722.99 478.16 722.99
  Q 480.99 722.63 481.49 725.36
  C 482.57 731.21 482.67 739.14 479.43 743.93
  Q 478.87 744.76 479.52 745.51
  Q 483.21 749.78 488.66 755.27
  Q 490.84 757.46 489.30 760.15
  Q 489.05 760.59 488.55 760.58
  L 486.53 760.55
  Q 485.94 760.54 485.52 760.12
  L 477.86 752.47
  Q 476.97 751.58 476.88 752.84
  Q 476.52 757.74 473.51 761.81
  C 472.56 763.09 470.84 763.65 469.55 764.54
  Q 468.80 765.06 468.86 765.98
  Q 469.32 773.22 464.38 778.04
  Q 464.00 778.41 464.12 778.92
  Q 464.93 782.18 467.55 784.56
  Q 467.92 784.89 468.41 784.89
  C 470.73 784.90 472.74 786.59 474.53 786.40
  Q 477.65 786.06 479.24 784.22
  Q 482.82 780.08 484.37 778.41
  C 486.57 776.06 489.74 777.18 490.23 780.51
  Q 490.32 781.10 490.92 781.05
  Q 497.12 780.54 499.33 775.09
  Q 500.37 772.51 501.89 771.94
  Q 502.38 771.76 502.87 771.92
  C 505.31 772.70 508.45 774.31 510.12 772.12
  Q 512.23 769.35 511.16 765.46
  Q 510.66 763.63 510.77 762.94
  C 511.19 760.31 513.49 760.37 515.51 761.22
  Q 515.98 761.42 516.16 760.94
  Q 518.38 754.90 513.95 751.72
  Q 512.10 750.39 511.70 749.51
  Q 510.73 747.34 512.98 746.03
  A 1.44 1.43 -26.3 0 0 513.59 744.25
  Q 511.26 738.47 505.50 737.26
  C 503.16 736.77 501.24 735.91 502.14 733.24
  Q 502.30 732.79 502.63 732.45
  L 503.85 731.23
  Q 504.21 730.87 504.09 730.37
  Q 503.18 726.70 499.48 725.32
  Q 493.12 722.93 492.31 722.64
  Q 491.82 722.46 491.55 722.02
  Q 490.08 719.60 490.68 716.48
  A 1.18 1.15 32.3 0 0 490.46 715.55
  Q 488.13 712.46 485.55 711.12
  Q 484.29 710.46 479.86 708.62
  C 476.38 707.18 477.83 703.89 478.93 701.20
  Q 479.21 700.49 478.70 698.12
  Q 478.39 696.69 477.53 695.37
  Q 475.34 692.01 471.23 688.75
  A 1.72 1.68 11.6 0 1 470.65 687.89
  Q 469.93 685.26 472.54 684.10
  C 473.54 683.65 474.59 684.20 475.55 684.62
  A 0.43 0.43 0.0 0 0 476.15 684.31
  Q 476.79 681.15 475.69 678.83
  Q 473.52 674.27 469.37 672.07
  Q 467.37 671.01 467.09 670.02
  C 466.63 668.41 467.40 666.48 469.27 666.28
  Q 470.27 666.18 470.42 666.15
  Q 470.92 666.05 470.84 665.55
  C 469.75 658.71 465.90 656.94 460.38 654.12
  Q 458.91 653.37 458.87 652.28
  Q 458.74 648.55 462.35 648.73
  A 0.68 0.68 0.0 0 0 463.04 647.86
  Q 461.21 641.46 455.27 639.02
  C 453.88 638.45 451.58 638.41 450.04 637.35
  Q 449.62 637.06 449.45 636.58
  Q 448.50 633.85 451.15 632.49
  Q 451.60 632.25 451.64 631.75
  C 452.08 626.01 442.67 623.39 438.40 622.38
  C 436.32 621.89 434.91 620.18 435.98 618.16
  Q 436.57 617.04 436.63 616.93
  Q 436.86 616.45 436.55 616.08
  C 433.22 612.14 428.74 611.90 423.80 611.82
  C 421.28 611.77 419.33 610.67 420.14 607.84
  C 420.35 607.12 420.97 606.66 421.27 606.16
  Q 421.53 605.72 421.31 605.26
  C 418.66 599.65 413.13 599.44 407.85 601.10
  Q 403.61 601.11 402.09 597.57
  Q 401.14 595.37 400.35 594.77
  C 397.15 592.35 391.24 592.27 387.70 592.98
  C 385.65 593.38 384.70 594.56 382.61 593.14
  C 377.55 589.71 371.15 588.65 365.87 591.66
  C 361.91 593.92 358.92 590.41 356.30 589.19
  Q 351.09 586.75 345.80 589.36
  Q 345.30 589.61 344.35 591.09
  Q 343.21 592.86 340.98 593.17
  Q 339.67 593.35 337.40 592.37
  Q 332.47 590.25 327.65 591.16
  Z
  M 458.64 782.70
  Q 457.85 783.59 458.32 784.06
  C 457.32 789.06 453.66 795.26 447.94 795.61
  Q 447.25 795.65 446.74 795.84
  A 1.04 1.04 0.0 0 0 446.11 796.51
  Q 444.98 800.12 442.81 803.00
  Q 442.20 803.81 442.81 804.62
  Q 447.39 810.64 455.72 810.51
  Q 458.46 810.47 461.60 807.56
  C 463.54 805.76 465.37 802.72 461.80 801.33
  C 460.07 800.66 457.57 803.63 455.69 803.86
  C 452.88 804.21 451.43 800.97 453.38 799.12
  Q 454.60 797.97 457.64 796.15
  Q 458.63 795.56 460.56 792.96
  C 461.57 791.60 461.26 789.54 461.88 787.80
  Q 462.06 787.32 461.78 786.89
  L 459.56 783.39
  Q 459.17 781.87 458.64 782.70
  Z
  M 234.32 831.57
  C 235.64 829.08 239.25 829.20 240.06 832.02
  Q 241.12 835.70 241.79 839.36
  C 242.13 841.20 242.86 842.28 244.34 843.10
  A 1.84 1.83 30.9 0 0 246.78 842.49
  Q 248.09 840.47 247.51 838.01
  Q 245.75 830.47 246.00 823.00
  A 0.33 0.33 0.0 0 0 245.51 822.70
  C 239.49 826.03 234.16 823.84 230.69 818.50
  Q 230.08 817.54 228.16 817.12
  Q 227.63 817.00 227.45 817.51
  Q 226.62 819.89 226.39 823.14
  C 225.74 832.52 225.64 840.45 230.53 848.82
  Q 232.24 851.74 236.32 851.08
  Q 236.33 851.08 236.58 850.97
  Q 239.90 849.53 238.01 846.44
  C 236.08 843.27 232.51 834.98 234.32 831.57
  Z
  M 316.22 924.82
  Q 305.99 931.68 301.13 942.63
  C 298.90 947.65 306.74 947.53 309.76 947.41
  C 319.07 947.06 328.97 941.52 335.42 938.93
  C 337.24 938.19 343.80 935.13 342.06 931.87
  Q 341.03 929.93 339.35 926.38
  C 338.77 925.15 336.99 923.73 335.24 923.88
  Q 333.69 924.02 331.78 923.21
  Q 331.30 923.01 330.86 923.30
  Q 330.60 923.48 328.21 924.96
  C 324.48 927.26 321.00 925.00 317.67 922.92
  Q 317.11 922.57 317.12 923.23
  Q 317.13 923.61 317.04 923.94
  Q 316.94 924.33 316.22 924.82
  Z
  M 382.50 927.96
  A 1.09 1.09 0.0 0 0 381.42 928.50
  L 378.90 932.86
  A 1.89 1.88 -52.9 0 0 379.21 935.15
  Q 381.83 937.71 385.61 939.42
  C 396.37 944.28 404.74 948.75 416.04 948.42
  C 419.44 948.32 422.12 946.87 420.27 942.97
  Q 415.71 933.41 406.18 926.79
  Q 405.75 926.50 405.26 926.67
  Q 398.80 929.00 392.12 925.29
  A 0.80 0.80 0.0 0 0 391.20 925.38
  Q 387.37 928.63 382.50 927.96
  Z"
/>
<path fill="#ff3900" d="
  M 407.85 601.10
  L 402.68 614.87
  Q 400.62 614.14 399.52 614.44
  Q 389.24 617.25 379.88 622.35
  C 378.62 623.04 377.02 623.03 375.67 623.79
  Q 373.14 625.21 373.07 625.23
  Q 369.31 626.88 365.70 628.87
  Q 363.33 630.18 362.60 631.49
  C 360.61 635.07 365.31 636.21 363.86 639.03
  Q 363.63 639.49 363.12 639.39
  Q 360.69 638.91 358.51 639.47
  Q 358.00 639.60 357.74 639.15
  Q 357.31 638.40 357.39 637.51
  Q 357.44 637.01 357.82 636.67
  Q 363.03 631.90 355.16 627.92
  Q 352.36 626.25 349.27 624.83
  Q 347.27 623.91 345.24 623.10
  Q 343.33 622.33 341.28 621.23
  Q 335.73 618.25 329.71 616.63
  L 324.67 615.16
  L 327.65 591.16
  Q 332.47 590.25 337.40 592.37
  Q 339.67 593.35 340.98 593.17
  Q 343.21 592.86 344.35 591.09
  Q 345.30 589.61 345.80 589.36
  Q 351.09 586.75 356.30 589.19
  C 358.92 590.41 361.91 593.92 365.87 591.66
  C 371.15 588.65 377.55 589.71 382.61 593.14
  C 384.70 594.56 385.65 593.38 387.70 592.98
  C 391.24 592.27 397.15 592.35 400.35 594.77
  Q 401.14 595.37 402.09 597.57
  Q 403.61 601.11 407.85 601.10
  Z"
/>
<path fill="#ff3900" d="
  M 1180.58 740.64
  A 1.37 1.35 -56.4 0 0 1180.33 739.35
  C 1174.64 732.58 1168.97 724.70 1164.08 718.67
  Q 1155.96 708.67 1155.33 707.90
  Q 1152.69 704.63 1151.89 701.85
  Q 1151.41 700.17 1152.22 699.09
  Q 1153.49 697.41 1154.91 697.40
  Q 1192.69 697.22 1197.78 697.39
  Q 1220.73 698.18 1227.41 697.85
  C 1234.69 697.50 1242.36 698.27 1249.92 697.84
  C 1253.92 697.60 1255.82 699.81 1256.00 703.46
  Q 1256.19 707.34 1255.76 710.84
  Q 1254.41 722.09 1252.39 734.42
  C 1251.32 740.92 1249.56 750.71 1245.62 758.21
  C 1243.90 761.48 1241.60 767.61 1239.17 771.43
  Q 1235.70 776.86 1229.66 785.67
  C 1226.79 789.85 1224.20 793.32 1220.44 796.47
  Q 1217.08 799.28 1205.30 808.63
  C 1201.08 811.97 1196.15 814.06 1191.40 816.86
  Q 1183.25 821.66 1174.64 824.83
  Q 1171.76 825.89 1164.72 827.26
  C 1158.45 828.48 1154.60 829.66 1149.85 829.56
  C 1145.93 829.48 1142.86 829.45 1139.35 829.89
  C 1133.86 830.58 1128.71 829.66 1123.00 829.52
  Q 1119.86 829.44 1109.37 827.14
  Q 1107.20 826.66 1096.50 823.01
  Q 1089.69 820.69 1084.11 817.69
  Q 1072.89 811.66 1065.83 806.98
  Q 1058.66 802.23 1053.52 796.44
  Q 1049.36 791.76 1041.66 781.68
  Q 1030.04 766.45 1023.81 746.68
  Q 1021.90 740.63 1021.08 735.87
  C 1020.16 730.55 1018.53 726.50 1018.37 721.35
  Q 1018.02 710.32 1018.59 701.33
  C 1018.75 698.84 1019.47 695.75 1019.75 692.94
  Q 1019.97 690.74 1020.24 689.60
  Q 1023.14 677.34 1025.97 667.61
  C 1027.72 661.59 1031.48 654.70 1033.73 649.82
  C 1035.89 645.15 1039.20 641.78 1041.65 637.80
  C 1044.87 632.58 1049.22 628.58 1054.54 622.79
  Q 1058.40 618.60 1068.50 611.74
  Q 1076.08 606.58 1091.89 598.64
  Q 1093.87 597.65 1097.29 596.57
  Q 1108.95 592.88 1122.04 591.69
  Q 1139.98 590.05 1160.53 592.64
  C 1166.07 593.34 1170.64 594.79 1176.34 596.34
  C 1181.53 597.76 1187.07 600.44 1190.83 601.98
  Q 1194.94 603.66 1198.91 606.08
  Q 1208.29 611.82 1215.81 617.54
  Q 1217.78 619.04 1221.44 622.43
  A 3.42 3.41 44.4 0 1 1221.49 627.40
  Q 1217.22 631.51 1208.52 638.77
  Q 1197.25 648.18 1178.46 667.19
  Q 1176.63 669.05 1175.21 669.11
  C 1172.82 669.21 1171.95 666.82 1170.69 665.82
  Q 1167.04 662.92 1165.03 661.98
  C 1159.68 659.46 1156.27 657.58 1151.63 656.32
  Q 1140.58 653.32 1128.48 654.82
  Q 1121.79 655.64 1113.17 659.77
  Q 1108.97 661.77 1105.28 665.89
  Q 1097.63 674.44 1096.36 676.37
  Q 1080.75 700.19 1088.72 728.51
  Q 1094.26 748.19 1111.43 759.77
  C 1116.90 763.45 1123.04 764.66 1129.58 765.72
  C 1137.28 766.97 1145.47 765.17 1152.38 763.31
  Q 1157.78 761.86 1164.20 757.79
  Q 1173.17 752.10 1179.16 743.20
  Q 1180.29 741.53 1180.58 740.64
  Z"
/>
<path fill="#efaf42" d="
  M 327.65 591.16
  L 324.67 615.16
  Q 321.87 613.88 318.91 615.01
  Q 318.44 615.19 318.33 615.68
  Q 317.68 618.71 320.07 620.31
  Q 323.28 622.46 324.15 623.49
  Q 324.51 623.93 323.95 623.84
  C 320.57 623.35 314.64 622.27 312.32 624.20
  A 2.20 2.19 38.8 0 0 312.72 627.83
  Q 317.78 630.46 322.92 631.19
  A 0.74 0.74 0.0 0 1 323.48 632.27
  Q 320.35 638.25 321.05 645.27
  Q 320.25 646.10 320.10 648.05
  Q 319.93 650.34 319.82 650.94
  Q 318.43 658.87 317.41 666.85
  Q 317.15 668.91 316.56 670.97
  Q 309.42 673.65 306.89 675.90
  C 304.79 677.77 302.02 679.37 300.99 681.17
  C 300.10 682.75 298.54 684.41 297.65 686.08
  Q 291.44 697.72 290.98 699.39
  Q 290.57 700.89 289.61 704.07
  Q 288.94 706.30 289.13 708.74
  Q 289.17 709.26 289.61 709.55
  Q 293.10 711.79 296.36 710.34
  Q 300.60 708.44 304.89 704.63
  Q 308.54 701.38 315.11 693.00
  Q 317.97 694.45 320.26 694.17
  Q 334.43 692.43 348.94 692.97
  A 0.27 0.26 1.1 0 1 349.20 693.23
  Q 349.23 713.13 349.18 724.87
  Q 349.17 727.69 348.88 731.11
  C 348.44 736.34 348.76 740.69 348.18 746.71
  Q 347.33 755.46 347.05 762.33
  C 346.87 766.78 346.00 771.60 345.94 775.62
  C 345.89 779.75 350.39 782.97 352.81 778.30
  Q 357.25 769.76 361.51 763.11
  Q 364.38 758.64 366.70 754.28
  C 370.32 747.50 374.57 741.67 377.67 734.91
  Q 381.23 727.15 385.15 719.81
  Q 385.22 719.68 392.20 706.21
  Q 396.83 697.26 402.54 689.14
  Q 408.64 695.34 413.16 700.84
  Q 418.31 707.13 425.56 710.58
  C 427.75 711.61 432.84 711.13 432.59 707.78
  Q 432.33 704.19 431.21 701.29
  Q 427.64 692.04 422.40 683.62
  Q 418.69 677.65 410.73 673.54
  Q 414.08 668.67 415.76 664.74
  C 417.08 661.66 415.39 659.05 411.87 659.26
  Q 408.96 659.43 403.32 658.57
  Q 401.69 658.32 398.52 658.73
  Q 393.15 659.40 389.20 656.84
  Q 397.41 652.31 399.88 644.38
  Q 400.19 643.39 399.90 636.61
  C 399.82 634.74 399.02 633.52 398.17 632.16
  A 0.67 0.67 0.0 0 1 398.60 631.15
  C 402.20 630.41 405.77 630.16 409.21 627.97
  A 2.41 2.40 -49.9 0 0 408.85 623.72
  C 406.27 622.65 402.07 623.11 399.29 623.74
  Q 396.79 624.30 398.71 622.60
  Q 400.14 621.33 401.29 620.49
  Q 406.07 617.01 402.68 614.87
  L 407.85 601.10
  C 413.13 599.44 418.66 599.65 421.31 605.26
  Q 421.53 605.72 421.27 606.16
  C 420.97 606.66 420.35 607.12 420.14 607.84
  C 419.33 610.67 421.28 611.77 423.80 611.82
  C 428.74 611.90 433.22 612.14 436.55 616.08
  Q 436.86 616.45 436.63 616.93
  Q 436.57 617.04 435.98 618.16
  C 434.91 620.18 436.32 621.89 438.40 622.38
  C 442.67 623.39 452.08 626.01 451.64 631.75
  Q 451.60 632.25 451.15 632.49
  Q 448.50 633.85 449.45 636.58
  Q 449.62 637.06 450.04 637.35
  C 451.58 638.41 453.88 638.45 455.27 639.02
  Q 461.21 641.46 463.04 647.86
  A 0.68 0.68 0.0 0 1 462.35 648.73
  Q 458.74 648.55 458.87 652.28
  Q 458.91 653.37 460.38 654.12
  C 465.90 656.94 469.75 658.71 470.84 665.55
  Q 470.92 666.05 470.42 666.15
  Q 470.27 666.18 469.27 666.28
  C 467.40 666.48 466.63 668.41 467.09 670.02
  Q 467.37 671.01 469.37 672.07
  Q 473.52 674.27 475.69 678.83
  Q 476.79 681.15 476.15 684.31
  A 0.43 0.43 0.0 0 1 475.55 684.62
  C 474.59 684.20 473.54 683.65 472.54 684.10
  Q 469.93 685.26 470.65 687.89
  A 1.72 1.68 11.6 0 0 471.23 688.75
  Q 475.34 692.01 477.53 695.37
  Q 478.39 696.69 478.70 698.12
  Q 479.21 700.49 478.93 701.20
  C 477.83 703.89 476.38 707.18 479.86 708.62
  Q 484.29 710.46 485.55 711.12
  Q 488.13 712.46 490.46 715.55
  A 1.18 1.15 32.3 0 1 490.68 716.48
  Q 490.08 719.60 491.55 722.02
  Q 491.82 722.46 492.31 722.64
  Q 493.12 722.93 499.48 725.32
  Q 503.18 726.70 504.09 730.37
  Q 504.21 730.87 503.85 731.23
  L 502.63 732.45
  Q 502.30 732.79 502.14 733.24
  C 501.24 735.91 503.16 736.77 505.50 737.26
  Q 511.26 738.47 513.59 744.25
  A 1.44 1.43 -26.3 0 1 512.98 746.03
  Q 510.73 747.34 511.70 749.51
  Q 512.10 750.39 513.95 751.72
  Q 518.38 754.90 516.16 760.94
  Q 515.98 761.42 515.51 761.22
  C 513.49 760.37 511.19 760.31 510.77 762.94
  Q 510.66 763.63 511.16 765.46
  Q 512.23 769.35 510.12 772.12
  C 508.45 774.31 505.31 772.70 502.87 771.92
  Q 502.38 771.76 501.89 771.94
  Q 500.37 772.51 499.33 775.09
  Q 497.12 780.54 490.92 781.05
  Q 490.32 781.10 490.23 780.51
  C 489.74 777.18 486.57 776.06 484.37 778.41
  Q 482.82 780.08 479.24 784.22
  Q 477.65 786.06 474.53 786.40
  C 472.74 786.59 470.73 784.90 468.41 784.89
  Q 467.92 784.89 467.55 784.56
  Q 464.93 782.18 464.12 778.92
  Q 464.00 778.41 464.38 778.04
  Q 469.32 773.22 468.86 765.98
  Q 468.80 765.06 469.55 764.54
  C 470.84 763.65 472.56 763.09 473.51 761.81
  Q 476.52 757.74 476.88 752.84
  Q 476.97 751.58 477.86 752.47
  L 485.52 760.12
  Q 485.94 760.54 486.53 760.55
  L 488.55 760.58
  Q 489.05 760.59 489.30 760.15
  Q 490.84 757.46 488.66 755.27
  Q 483.21 749.78 479.52 745.51
  Q 478.87 744.76 479.43 743.93
  C 482.67 739.14 482.57 731.21 481.49 725.36
  Q 480.99 722.63 478.16 722.99
  Q 478.15 722.99 478.05 723.02
  Q 475.24 723.60 475.79 726.23
  Q 477.40 734.01 475.07 740.19
  A 0.73 0.72 -61.5 0 1 473.97 740.52
  Q 472.93 739.77 472.87 739.73
  C 471.43 738.73 469.43 740.16 469.04 741.53
  Q 468.74 742.58 469.34 744.40
  Q 470.06 746.57 470.68 748.56
  L 470.48 754.50
  L 469.17 757.87
  Q 469.02 758.25 468.73 757.97
  C 467.89 757.15 467.37 756.34 466.13 756.29
  C 463.30 756.17 462.92 757.99 463.00 760.38
  C 463.19 766.57 463.93 770.41 460.23 774.04
  A 0.50 0.50 0.0 0 1 459.40 773.83
  C 458.19 769.92 453.73 771.05 453.52 774.85
  C 453.23 780.17 452.97 786.14 448.39 789.76
  Q 448.04 790.04 447.67 789.79
  Q 447.12 789.41 446.53 788.50
  Q 446.19 787.98 445.59 787.81
  C 443.36 787.18 441.98 788.08 441.64 790.44
  C 440.94 795.20 438.92 799.78 434.98 802.79
  Q 434.56 803.12 434.27 802.66
  Q 434.01 802.24 433.94 801.83
  Q 433.86 801.30 433.52 800.87
  Q 431.71 798.65 429.14 800.42
  Q 428.81 800.64 428.66 801.29
  Q 428.54 801.80 427.93 804.81
  Q 426.75 810.53 421.13 813.04
  Q 419.45 813.79 420.22 812.14
  C 421.78 808.82 416.39 806.64 414.94 809.46
  C 412.39 814.40 411.38 816.49 405.77 819.52
  Q 404.18 820.37 404.54 822.40
  Q 404.67 823.13 405.73 824.91
  Q 407.90 828.55 408.53 834.05
  A 1.86 1.85 87.0 0 1 406.68 836.11
  C 404.06 836.11 402.90 837.92 403.83 840.44
  Q 406.06 846.49 407.06 849.43
  C 408.63 854.08 407.03 854.26 403.99 856.43
  A 2.46 2.46 0.0 0 0 403.50 859.96
  Q 406.66 863.92 406.19 869.47
  C 405.95 872.40 401.20 873.20 403.75 876.80
  C 405.69 879.54 408.87 883.27 408.45 885.98
  A 1.04 1.00 -9.8 0 1 407.91 886.72
  Q 406.76 887.30 405.82 887.63
  C 403.31 888.50 402.24 891.40 402.52 893.63
  A 1.66 1.61 21.5 0 0 402.93 894.53
  Q 403.60 895.29 407.18 899.08
  Q 407.96 899.91 408.48 903.28
  Q 408.56 903.78 408.17 904.10
  L 404.19 907.39
  A 1.21 1.19 54.9 0 0 403.93 908.93
  C 405.90 912.22 406.98 916.57 404.60 919.87
  C 402.15 923.27 396.77 921.64 394.15 919.35
  C 391.79 917.28 388.64 920.26 386.15 921.89
  Q 385.66 922.21 385.11 922.13
  L 381.13 921.57
  A 1.99 1.92 1.4 0 1 379.44 919.85
  Q 379.09 916.27 380.28 913.99
  C 381.67 911.32 383.21 909.39 381.14 906.94
  Q 380.82 906.56 380.32 906.50
  Q 377.04 906.08 375.35 904.92
  A 1.35 1.31 -76.9 0 1 374.80 904.01
  Q 374.00 898.13 377.94 893.21
  C 380.84 889.57 376.57 887.05 373.41 886.18
  Q 372.90 886.04 372.73 885.54
  Q 371.39 881.51 372.90 878.11
  Q 373.44 876.90 376.64 870.62
  A 2.38 2.38 0.0 0 0 375.07 867.23
  C 370.24 866.09 371.37 860.71 372.30 856.67
  Q 372.41 856.17 372.76 855.81
  Q 373.13 855.44 373.11 854.87
  Q 373.10 854.36 373.38 853.93
  C 373.84 853.20 374.76 852.96 375.24 852.08
  Q 376.32 850.08 375.26 848.64
  Q 374.75 847.95 372.64 847.29
  Q 368.91 846.14 369.19 841.50
  Q 369.49 836.45 371.09 833.66
  Q 371.35 833.20 371.88 833.27
  Q 378.06 834.11 382.79 831.38
  Q 385.97 829.54 384.92 826.95
  Q 384.45 825.82 383.30 825.46
  C 380.68 824.65 380.02 826.78 378.38 827.14
  Q 373.66 828.17 369.11 826.69
  Q 368.63 826.53 368.14 826.70
  C 365.74 827.53 364.53 830.07 362.07 830.12
  Q 357.97 830.19 357.12 829.87
  Q 351.95 827.92 350.40 827.38
  C 348.61 826.77 347.62 827.07 346.25 828.29
  C 344.23 830.11 340.89 828.15 339.10 826.66
  Q 337.21 825.07 335.27 826.80
  Q 335.21 826.86 335.20 826.87
  Q 333.42 828.81 335.07 830.53
  Q 340.62 836.31 348.01 834.17
  Q 348.51 834.02 348.74 834.50
  C 350.91 839.15 352.15 844.87 350.25 849.91
  A 1.53 1.52 -86.0 0 1 349.16 850.86
  Q 345.47 851.66 346.17 855.79
  C 346.41 857.25 347.80 858.84 348.18 860.44
  C 348.71 862.61 349.00 867.33 346.91 868.68
  Q 346.33 869.06 345.22 869.66
  A 2.74 2.74 0.0 0 0 344.10 873.34
  C 345.53 876.09 348.63 883.21 345.52 885.55
  C 344.21 886.54 342.28 888.37 341.82 890.18
  Q 341.73 890.52 342.04 891.11
  C 344.09 895.02 346.48 898.85 344.52 903.62
  Q 344.33 904.09 343.83 904.19
  Q 343.26 904.30 342.60 904.18
  Q 342.11 904.09 341.65 904.29
  Q 339.73 905.09 339.63 907.13
  Q 339.60 907.65 339.91 908.07
  Q 342.07 911.02 341.82 914.92
  C 341.51 919.74 335.95 919.50 333.28 917.01
  A 2.75 2.75 0.0 0 0 329.77 916.81
  L 325.82 919.72
  Q 325.39 920.04 324.87 919.95
  Q 321.56 919.35 319.87 916.78
  Q 318.60 914.84 317.93 914.49
  Q 316.01 913.47 314.39 915.44
  A 0.88 0.88 0.0 0 1 313.57 915.75
  Q 312.46 915.58 311.60 915.09
  Q 311.12 914.82 311.12 914.28
  C 311.08 908.92 313.48 904.27 316.20 899.73
  C 318.36 896.13 315.54 895.35 313.29 893.57
  Q 312.90 893.26 312.76 892.79
  C 311.51 888.81 314.07 883.87 316.67 880.93
  A 2.83 2.82 43.3 0 0 316.55 877.05
  L 313.48 873.98
  Q 313.11 873.60 313.02 873.08
  C 312.22 868.21 314.44 864.80 317.46 861.28
  C 319.03 859.45 319.21 857.62 317.16 856.18
  Q 316.73 855.88 316.21 855.85
  C 311.62 855.64 312.37 850.72 313.39 847.91
  C 313.90 846.50 315.33 845.58 316.03 844.26
  Q 316.41 843.53 317.56 842.26
  C 319.37 840.25 319.61 837.78 316.68 836.63
  Q 315.42 836.14 314.07 835.51
  A 2.06 2.05 -78.6 0 1 312.88 833.71
  Q 312.73 829.01 315.44 824.90
  C 316.60 823.12 316.58 821.77 315.33 820.18
  C 313.88 818.33 312.78 818.77 310.70 819.68
  Q 308.35 820.70 305.98 819.34
  Q 300.36 816.11 298.43 810.10
  A 2.48 2.48 0.0 0 0 296.06 808.39
  Q 293.14 808.41 290.63 809.46
  A 1.44 1.44 0.0 0 1 289.20 809.27
  Q 283.66 804.95 282.06 798.17
  A 2.62 2.62 0.0 0 0 278.80 796.25
  L 276.63 796.87
  A 2.12 2.11 -26.2 0 1 274.35 796.10
  Q 271.23 791.93 270.58 786.17
  C 270.29 783.57 268.51 781.54 265.91 783.27
  C 262.05 785.84 259.43 782.48 258.53 779.01
  Q 257.57 775.27 257.92 771.86
  A 2.39 2.38 -75.2 0 0 256.51 769.43
  C 254.54 768.56 253.24 768.36 252.40 766.87
  C 250.67 763.83 251.25 759.52 252.63 756.57
  C 253.74 754.20 253.30 752.20 250.73 751.63
  C 249.52 751.37 248.78 752.04 247.89 752.72
  Q 247.50 753.03 247.03 752.83
  C 245.82 752.32 244.74 751.20 244.70 749.75
  Q 244.55 744.29 247.36 737.77
  Q 248.50 735.12 245.76 733.73
  Q 245.66 733.68 245.64 733.67
  Q 242.82 732.52 241.59 735.27
  Q 238.88 741.30 238.53 743.04
  Q 236.93 751.19 242.58 756.83
  C 243.35 757.59 244.38 758.05 245.36 758.30
  Q 245.90 758.44 245.85 758.99
  C 245.34 765.28 245.21 771.90 251.36 774.14
  Q 252.24 774.46 252.78 774.66
  Q 253.29 774.85 253.27 775.39
  Q 253.03 781.36 254.81 787.24
  Q 255.00 787.84 254.88 789.81
  C 254.70 792.90 254.95 795.29 251.38 796.31
  A 1.17 1.16 5.3 0 0 250.66 796.90
  C 247.76 802.60 253.89 806.25 251.05 812.51
  Q 250.85 812.94 250.38 812.93
  L 247.90 812.89
  A 0.80 0.78 -64.1 0 0 247.40 813.07
  C 244.46 815.54 240.59 820.14 237.17 816.40
  Q 235.64 814.73 235.40 812.18
  A 2.93 2.93 0.0 0 0 232.53 809.53
  L 225.64 809.43
  A 2.26 2.25 -4.3 0 1 223.45 807.55
  C 222.93 804.47 223.80 801.25 226.23 799.11
  C 227.38 798.08 228.18 797.28 227.80 795.60
  Q 226.81 791.10 224.63 788.95
  Q 224.23 788.57 224.18 788.01
  C 223.61 782.36 227.40 777.18 231.68 773.38
  C 233.54 771.73 234.48 768.69 231.71 767.31
  C 229.42 766.16 228.43 766.67 228.35 763.51
  Q 228.19 756.65 231.92 751.74
  Q 232.23 751.34 232.67 751.11
  Q 235.81 749.50 235.33 746.61
  Q 235.23 746.03 234.72 745.74
  L 232.43 744.42
  Q 231.95 744.14 231.71 743.63
  C 229.48 738.84 234.72 729.67 237.75 726.28
  C 239.38 724.46 238.71 722.13 236.56 721.15
  Q 235.94 720.88 234.52 720.13
  A 2.02 2.02 0.0 0 1 233.46 718.17
  C 234.07 711.57 237.35 707.86 241.85 703.30
  C 243.26 701.89 244.00 700.68 243.10 698.80
  C 242.50 697.52 240.57 697.01 239.24 696.30
  A 2.87 2.85 18.6 0 1 237.75 693.33
  C 238.58 688.12 243.09 684.05 247.65 681.48
  Q 249.18 680.62 248.80 678.54
  Q 248.07 674.51 244.50 674.22
  A 1.75 1.74 88.6 0 1 242.91 672.70
  Q 242.35 668.33 245.71 664.94
  Q 248.74 661.89 250.36 659.86
  Q 251.26 658.71 254.50 657.72
  C 258.31 656.54 258.53 652.45 254.43 651.46
  A 2.39 2.38 7.5 0 1 252.60 649.08
  C 252.77 642.43 260.74 638.78 266.57 638.09
  Q 268.30 637.88 268.91 636.75
  Q 271.00 632.89 268.26 630.38
  A 1.95 1.94 38.8 0 1 267.98 627.82
  C 271.04 623.44 276.19 622.00 281.26 621.49
  C 285.46 621.07 285.09 618.64 283.77 615.60
  A 3.06 3.06 0.0 0 1 284.35 612.30
  C 287.69 608.73 292.72 608.03 297.61 609.20
  C 299.53 609.65 301.24 609.05 301.82 607.17
  C 302.23 605.86 301.61 604.34 301.53 602.88
  Q 301.50 602.37 301.82 601.97
  C 305.27 597.69 311.47 597.46 316.56 598.52
  Q 319.11 599.05 320.49 598.46
  C 323.94 596.98 322.53 594.08 324.57 592.41
  Q 325.70 591.47 327.65 591.16
  Z"
/>
<path fill="#ff3900" d="
  M 689.66 658.46
  L 632.35 658.46
  A 1.51 1.51 0.0 0 1 630.84 657.02
  Q 630.32 646.64 629.91 639.80
  C 629.13 626.84 629.58 610.32 629.62 598.53
  C 629.63 596.71 630.04 595.58 631.87 594.91
  Q 634.75 593.87 635.12 593.89
  C 644.39 594.47 654.26 593.93 663.66 594.27
  Q 676.18 594.74 701.54 594.03
  Q 728.45 593.28 749.50 594.22
  C 754.63 594.45 760.29 593.80 764.85 593.80
  Q 797.15 593.83 806.53 593.80
  C 809.03 593.79 811.66 592.95 814.39 593.38
  A 1.68 1.67 4.7 0 1 815.80 595.03
  Q 815.82 601.06 815.28 620.02
  Q 814.72 640.02 815.75 656.50
  Q 815.79 657.09 815.34 657.46
  Q 813.75 658.78 811.24 658.65
  Q 803.53 658.27 799.09 658.46
  C 789.66 658.87 780.94 658.12 771.85 657.77
  C 767.20 657.59 762.78 658.00 758.48 657.72
  Q 757.96 657.69 757.85 658.19
  Q 757.58 659.36 757.39 663.50
  Q 757.09 670.40 756.78 689.83
  C 756.75 691.37 757.09 693.64 757.13 695.59
  Q 757.44 712.71 756.15 745.57
  Q 755.90 751.93 756.33 758.45
  C 756.89 767.02 756.43 775.38 756.81 784.23
  C 757.34 796.32 757.04 807.90 757.16 819.97
  A 2.56 2.56 0.0 0 1 755.29 822.46
  C 753.74 822.90 751.81 822.27 750.20 822.31
  Q 749.57 822.32 740.76 822.83
  Q 729.37 823.49 712.82 822.95
  C 707.69 822.78 701.24 823.12 695.52 822.53
  Q 695.14 822.49 694.21 822.89
  C 691.53 824.06 689.46 821.87 689.45 819.25
  Q 689.43 812.53 689.49 790.84
  C 689.50 787.71 689.13 784.70 689.32 781.52
  Q 689.60 776.78 689.43 774.65
  Q 689.30 773.09 689.43 767.60
  Q 689.48 765.70 690.15 730.65
  Q 690.19 728.47 690.15 726.28
  C 689.78 706.45 690.69 680.00 690.24 659.03
  A 0.59 0.58 89.0 0 0 689.66 658.46
  Z"
/>
<path fill="#ff3900" d="
  M 869.84 795.03
  Q 868.05 799.27 866.90 803.21
  C 865.04 809.57 862.27 815.65 859.82 820.99
  A 2.91 2.91 0.0 0 1 857.18 822.68
  L 792.76 822.68
  A 1.56 1.56 0.0 0 1 791.25 820.73
  Q 792.27 816.74 793.94 812.16
  C 798.43 799.88 806.10 782.23 812.10 766.91
  Q 818.22 751.30 824.39 736.47
  Q 824.72 735.67 825.72 733.16
  Q 833.29 714.20 842.52 690.48
  Q 842.97 689.33 844.00 687.13
  C 845.28 684.42 845.99 681.44 847.26 678.65
  C 851.71 668.92 855.52 659.09 858.67 651.04
  Q 861.87 642.83 862.97 640.52
  Q 865.01 636.23 866.96 629.90
  C 869.71 620.97 874.59 611.89 877.24 603.03
  C 878.06 600.28 879.34 598.03 880.55 595.74
  Q 880.79 595.27 881.31 595.14
  C 886.94 593.70 893.36 595.07 899.35 595.06
  Q 904.79 595.05 921.27 594.96
  C 925.36 594.94 930.67 595.55 935.21 595.40
  A 3.60 3.60 0.0 0 1 938.70 597.75
  C 940.51 602.63 943.12 607.51 944.83 611.92
  C 947.20 618.06 948.58 621.58 950.19 626.76
  Q 953.67 637.94 954.94 640.94
  Q 956.65 644.98 960.60 655.26
  Q 964.41 665.17 969.97 677.88
  C 971.52 681.43 972.21 684.33 973.62 687.19
  Q 974.41 688.80 975.21 690.87
  Q 981.79 707.80 992.06 733.45
  Q 992.21 733.84 992.79 735.33
  Q 993.36 736.80 1001.00 755.92
  Q 1007.57 772.37 1020.14 802.91
  Q 1024.13 812.61 1026.54 821.23
  A 1.13 1.12 82.2 0 1 1025.46 822.66
  L 960.39 822.66
  Q 958.57 822.66 957.80 821.01
  Q 955.30 815.61 953.12 810.25
  C 951.50 806.27 950.16 800.92 948.29 796.40
  Q 948.10 795.94 947.61 795.94
  L 870.22 794.78
  Q 869.94 794.78 869.84 795.03
  Z
  M 908.81 741.67
  Q 921.60 741.66 925.58 741.79
  A 0.47 0.47 0.0 0 0 926.04 741.14
  C 921.63 730.27 915.82 713.01 909.17 699.39
  Q 908.96 698.96 908.79 698.96
  Q 908.61 698.96 908.40 699.40
  C 901.77 713.02 895.98 730.28 891.58 741.16
  A 0.47 0.47 0.0 0 0 892.04 741.81
  Q 896.02 741.67 908.81 741.67
  Z"
/>
<path fill="#ff3900" d="
  M 130.73 718.20
  Q 136.22 707.10 137.86 702.58
  Q 147.72 675.53 158.63 648.87
  C 159.10 647.71 160.17 646.33 160.69 644.96
  Q 165.55 632.24 168.81 624.31
  Q 171.13 618.67 172.56 613.85
  C 174.36 607.82 177.21 601.68 179.44 596.68
  A 2.86 2.86 0.0 0 1 182.06 594.97
  L 246.49 594.97
  A 1.62 1.62 0.0 0 1 248.06 596.97
  Q 247.43 599.64 246.16 603.28
  C 241.98 615.28 234.54 632.22 229.36 645.36
  C 223.60 659.99 218.30 672.54 213.82 683.85
  C 207.07 700.89 198.05 724.54 189.20 745.57
  Q 183.16 759.94 178.07 773.05
  Q 177.13 775.46 175.40 779.23
  Q 174.14 781.98 173.11 785.53
  Q 171.15 792.31 164.59 807.12
  Q 163.77 808.97 161.41 816.63
  Q 161.22 817.22 158.79 821.78
  Q 158.55 822.24 158.05 822.41
  C 152.76 824.18 144.88 822.54 138.91 822.62
  Q 121.18 822.86 104.57 822.23
  C 102.26 822.15 101.22 821.59 100.44 819.39
  C 98.93 815.18 96.23 810.25 94.57 805.93
  C 93.20 802.36 91.35 797.96 90.07 793.88
  Q 86.13 781.38 85.30 779.22
  Q 77.18 758.28 70.77 742.96
  C 69.65 740.29 68.54 738.25 67.79 736.11
  C 66.49 732.35 64.90 728.86 63.86 726.19
  C 57.91 710.91 51.77 695.71 45.88 680.41
  C 43.71 674.76 40.91 668.65 38.93 663.67
  Q 29.93 641.06 16.15 607.02
  C 14.78 603.65 13.93 600.40 12.96 596.98
  A 1.58 1.58 0.0 0 1 14.48 594.98
  L 78.97 594.98
  Q 80.60 594.98 81.34 596.43
  Q 84.73 603.05 87.21 610.32
  Q 90.88 621.09 92.24 624.45
  Q 96.13 634.05 99.84 643.71
  C 100.64 645.79 102.03 648.02 102.75 649.79
  Q 112.39 673.30 122.21 700.09
  Q 125.10 707.96 130.27 718.20
  Q 130.50 718.66 130.73 718.20
  Z"
/>
<path fill="#ff3900" d="
  M 501.12 782.79
  L 503.77 779.12
  Q 504.06 778.72 504.54 778.80
  Q 514.28 780.49 516.85 770.85
  Q 517.11 769.86 517.41 768.21
  A 1.38 1.36 -14.9 0 1 517.89 767.40
  Q 520.40 765.30 520.89 764.38
  Q 525.38 755.91 519.52 748.89
  Q 519.19 748.50 519.27 748.00
  C 520.30 741.20 516.14 735.49 510.32 732.65
  Q 509.84 732.42 509.84 731.89
  Q 509.88 722.64 500.47 719.49
  Q 500.50 694.28 501.64 669.75
  Q 501.76 667.19 501.31 659.25
  C 500.85 651.23 501.21 642.48 500.88 635.24
  C 500.32 622.65 500.65 611.77 500.51 598.22
  A 2.54 2.53 -5.3 0 1 502.62 595.69
  C 504.18 595.42 505.98 595.92 507.62 595.90
  Q 508.49 595.89 517.74 595.39
  Q 532.15 594.61 547.56 595.41
  C 551.53 595.62 556.84 594.95 561.53 595.77
  Q 562.02 595.85 562.49 595.66
  C 565.33 594.49 568.15 595.23 568.19 598.82
  Q 568.25 605.13 568.16 624.95
  C 568.14 628.73 568.61 634.57 568.20 639.17
  C 568.02 641.26 568.48 643.75 568.32 646.11
  Q 568.16 648.38 568.15 648.89
  Q 567.57 693.92 567.66 700.52
  Q 567.80 712.10 567.57 722.52
  Q 567.18 740.69 567.42 758.88
  Q 567.42 759.30 567.84 759.33
  C 571.63 759.55 575.42 760.17 579.16 760.17
  Q 630.76 760.23 645.63 760.19
  C 648.05 760.19 650.64 759.21 653.41 759.86
  A 1.63 1.62 -83.7 0 1 654.66 761.43
  Q 654.72 766.59 654.12 786.00
  Q 653.54 804.82 654.58 822.02
  C 654.72 824.47 653.03 824.94 650.89 824.92
  Q 644.43 824.87 641.14 825.14
  Q 635.74 825.60 631.40 825.19
  Q 627.10 824.79 612.25 824.28
  C 601.06 823.89 589.99 824.98 578.83 824.51
  Q 572.59 824.25 568.17 824.40
  Q 558.98 824.73 549.22 824.69
  C 534.32 824.64 523.22 825.21 505.82 825.99
  C 504.06 826.07 500.22 825.40 500.28 822.73
  Q 500.77 803.12 501.12 782.79
  Z"
/>
<path fill="#ff3900" d="
  M 1276.06 807.71
  L 1276.12 805.54
  L 1276.12 804.54
  L 1276.14 802.54
  L 1275.72 598.03
  Q 1275.71 595.24 1278.49 595.10
  Q 1284.30 594.81 1290.25 595.06
  Q 1299.77 595.46 1315.00 595.84
  Q 1315.55 595.85 1321.49 595.73
  C 1324.35 595.66 1327.41 596.06 1330.19 595.97
  Q 1336.62 595.77 1340.57 596.02
  C 1350.03 596.63 1358.48 595.56 1368.02 596.08
  C 1381.22 596.81 1390.92 596.24 1406.53 595.39
  C 1413.87 594.99 1419.75 595.68 1427.45 595.64
  A 2.51 2.51 0.0 0 1 1429.97 598.01
  C 1430.11 600.43 1429.54 603.31 1429.49 606.06
  C 1429.31 617.17 1429.22 628.60 1429.78 641.14
  Q 1429.88 643.51 1430.03 657.39
  A 1.70 1.69 -2.7 0 1 1428.47 659.10
  C 1425.29 659.34 1422.36 658.60 1418.85 658.61
  Q 1366.84 658.68 1354.39 658.61
  C 1350.89 658.59 1347.46 659.21 1343.77 659.43
  A 0.37 0.37 0.0 0 0 1343.42 659.80
  L 1343.09 681.97
  A 0.50 0.50 0.0 0 0 1343.64 682.48
  C 1348.80 681.91 1354.55 682.87 1359.13 682.87
  Q 1385.66 682.86 1412.19 682.87
  C 1414.42 682.88 1416.95 682.30 1419.42 682.58
  A 1.41 1.40 -85.8 0 1 1420.66 684.02
  C 1420.13 705.15 1419.55 718.29 1420.52 734.55
  A 1.97 1.97 0.0 0 1 1418.54 736.64
  C 1412.01 736.56 1406.20 737.28 1399.87 736.81
  Q 1386.82 735.85 1373.27 736.21
  Q 1362.60 736.49 1358.30 736.34
  Q 1348.88 736.01 1343.20 736.48
  Q 1342.71 736.52 1342.71 737.01
  L 1342.71 758.69
  Q 1342.71 759.27 1343.29 759.32
  C 1347.49 759.67 1351.76 760.19 1356.90 760.19
  Q 1410.33 760.20 1421.19 760.20
  C 1423.53 760.20 1425.97 759.26 1428.69 759.82
  A 1.74 1.74 0.0 0 1 1430.08 761.55
  C 1429.84 779.42 1428.64 802.26 1429.96 820.85
  Q 1430.17 823.67 1427.34 823.70
  Q 1420.31 823.79 1417.15 823.99
  Q 1411.64 824.33 1406.98 824.06
  C 1392.09 823.18 1382.45 822.69 1369.45 823.27
  Q 1363.40 823.53 1357.60 823.39
  C 1350.87 823.22 1347.30 822.93 1341.84 823.30
  C 1336.78 823.65 1330.37 823.18 1324.51 823.59
  C 1321.43 823.81 1318.72 823.40 1315.16 823.51
  Q 1300.09 823.94 1282.23 824.80
  C 1280.14 824.90 1278.23 824.59 1276.53 823.62
  A 1.66 1.66 0.0 0 1 1275.70 822.15
  L 1276.06 807.71
  Z"
/>
<path fill="#000000" d="
  M 324.67 615.16
  L 329.71 616.63
  L 355.16 627.92
  Q 363.03 631.90 357.82 636.67
  Q 357.44 637.01 357.39 637.51
  Q 357.31 638.40 357.74 639.15
  Q 358.00 639.60 358.51 639.47
  Q 360.69 638.91 363.12 639.39
  Q 363.63 639.49 363.86 639.03
  C 365.31 636.21 360.61 635.07 362.60 631.49
  Q 363.33 630.18 365.70 628.87
  Q 369.31 626.88 373.07 625.23
  Q 373.14 625.21 375.67 623.79
  C 377.02 623.03 378.62 623.04 379.88 622.35
  Q 389.24 617.25 399.52 614.44
  Q 400.62 614.14 402.68 614.87
  Q 406.07 617.01 401.29 620.49
  Q 400.14 621.33 398.71 622.60
  Q 396.79 624.30 399.29 623.74
  C 402.07 623.11 406.27 622.65 408.85 623.72
  A 2.41 2.40 -49.9 0 1 409.21 627.97
  C 405.77 630.16 402.20 630.41 398.60 631.15
  A 0.67 0.67 0.0 0 0 398.17 632.16
  C 399.02 633.52 399.82 634.74 399.90 636.61
  Q 400.19 643.39 399.88 644.38
  Q 397.41 652.31 389.20 656.84
  Q 383.23 659.27 376.35 656.65
  A 0.45 0.44 4.4 0 0 375.75 657.16
  Q 376.63 661.14 375.31 665.36
  Q 375.08 666.06 375.82 666.10
  C 388.17 666.62 399.24 667.51 410.73 673.54
  Q 418.69 677.65 422.40 683.62
  Q 427.64 692.04 431.21 701.29
  Q 432.33 704.19 432.59 707.78
  C 432.84 711.13 427.75 711.61 425.56 710.58
  Q 418.31 707.13 413.16 700.84
  Q 408.64 695.34 402.54 689.14
  Q 395.56 686.49 385.24 685.08
  Q 372.70 683.38 366.75 683.56
  C 359.18 683.79 352.38 683.24 344.78 684.07
  C 337.08 684.91 328.42 685.73 320.99 688.48
  Q 317.75 689.68 315.11 693.00
  Q 308.54 701.38 304.89 704.63
  Q 300.60 708.44 296.36 710.34
  Q 293.10 711.79 289.61 709.55
  Q 289.17 709.26 289.13 708.74
  Q 288.94 706.30 289.61 704.07
  Q 290.57 700.89 290.98 699.39
  Q 291.44 697.72 297.65 686.08
  C 298.54 684.41 300.10 682.75 300.99 681.17
  C 302.02 679.37 304.79 677.77 306.89 675.90
  Q 309.42 673.65 316.56 670.97
  C 326.57 667.03 335.52 666.50 345.81 666.13
  Q 346.55 666.10 346.32 665.40
  Q 345.05 661.66 345.72 657.32
  Q 345.82 656.71 345.22 656.88
  Q 327.79 661.78 321.05 645.27
  Q 320.35 638.25 323.48 632.27
  A 0.74 0.74 0.0 0 0 322.92 631.19
  Q 317.78 630.46 312.72 627.83
  A 2.20 2.19 38.8 0 1 312.32 624.20
  C 314.64 622.27 320.57 623.35 323.95 623.84
  Q 324.51 623.93 324.15 623.49
  Q 323.28 622.46 320.07 620.31
  Q 317.68 618.71 318.33 615.68
  Q 318.44 615.19 318.91 615.01
  Q 321.87 613.88 324.67 615.16
  Z
  M 351.36 645.31
  Q 351.49 645.10 351.91 644.62
  Q 352.14 644.34 352.20 643.82
  C 352.52 640.86 352.46 635.35 347.86 635.84
  Q 347.29 635.90 347.35 636.46
  C 347.78 640.52 343.75 642.42 340.47 640.95
  C 337.46 639.61 338.26 637.41 338.12 634.76
  Q 338.09 634.31 337.65 634.24
  L 330.63 633.03
  A 0.70 0.69 15.8 0 0 329.87 633.45
  Q 327.97 637.93 327.78 638.78
  C 326.66 643.68 328.42 647.76 332.83 650.27
  Q 339.21 653.89 346.14 650.32
  Q 349.05 648.82 351.36 645.31
  Z
  M 377.63 651.28
  Q 377.51 651.34 377.67 651.59
  Q 377.75 651.70 377.89 651.77
  Q 383.29 654.29 387.58 651.31
  Q 389.60 650.26 391.44 647.45
  Q 395.15 641.81 394.23 637.00
  Q 394.18 636.73 393.89 636.55
  Q 393.83 636.51 393.60 636.33
  Q 393.36 636.13 393.32 635.80
  Q 393.14 634.51 392.18 633.49
  Q 391.85 633.14 391.37 633.12
  Q 387.14 632.88 382.03 634.16
  Q 381.51 634.29 381.80 634.75
  Q 384.40 638.70 381.08 642.04
  Q 379.56 643.56 377.51 643.04
  Q 373.65 642.07 373.30 637.81
  Q 373.16 636.16 371.70 636.68
  L 370.98 636.94
  A 2.47 2.47 0.0 0 0 369.35 639.26
  L 369.35 643.68
  Q 369.35 644.17 369.63 644.56
  L 370.66 646.04
  Q 370.68 646.06 370.69 646.04
  Q 370.72 645.99 370.73 645.98
  Q 370.82 645.86 370.91 645.99
  Q 373.46 649.67 377.63 651.28
  Z
  M 360.81 668.17
  C 363.85 668.16 368.78 667.15 369.85 663.84
  C 371.59 658.46 368.19 652.28 365.08 647.93
  Q 363.61 645.87 360.79 645.87
  Q 357.97 645.87 356.50 647.94
  C 353.40 652.29 350.01 658.48 351.76 663.86
  C 352.85 667.17 357.77 668.17 360.81 668.17
  Z
  M 303.04 698.36
  C 304.17 697.01 305.32 696.04 306.08 695.09
  C 310.32 689.80 314.75 684.00 320.43 682.48
  C 337.13 678.00 355.06 677.21 373.83 678.20
  Q 385.40 678.81 397.78 681.59
  Q 402.40 682.63 404.60 683.98
  C 409.46 686.93 412.16 691.01 417.11 696.94
  Q 420.69 701.24 425.58 704.36
  Q 427.42 705.54 426.42 703.59
  C 423.85 698.65 421.78 693.17 418.61 688.73
  C 414.80 683.40 412.38 680.72 407.46 678.28
  C 396.35 672.77 385.23 672.18 372.34 671.53
  Q 370.50 671.44 367.66 672.36
  Q 362.63 673.99 357.19 673.21
  Q 357.17 673.20 353.26 672.15
  Q 350.72 671.47 347.28 671.65
  Q 335.45 672.28 332.34 672.72
  C 324.28 673.87 315.30 676.56 308.99 681.44
  Q 305.33 684.27 304.14 686.14
  Q 300.46 691.92 299.60 694.07
  Q 297.99 698.14 295.18 703.49
  Q 294.25 705.26 296.00 704.29
  Q 299.88 702.14 303.04 698.36
  Z"
/>
<path fill="#871400" d="
  M 355.16 627.92
  L 329.71 616.63
  Q 335.73 618.25 341.28 621.23
  Q 343.33 622.33 345.24 623.10
  Q 347.27 623.91 349.27 624.83
  Q 352.36 626.25 355.16 627.92
  Z"
/>
<path fill="#ffffff" d="
  M 351.36 645.31
  Q 349.05 648.82 346.14 650.32
  Q 339.21 653.89 332.83 650.27
  C 328.42 647.76 326.66 643.68 327.78 638.78
  Q 327.97 637.93 329.87 633.45
  A 0.70 0.69 15.8 0 1 330.63 633.03
  L 337.65 634.24
  Q 338.09 634.31 338.12 634.76
  C 338.26 637.41 337.46 639.61 340.47 640.95
  C 343.75 642.42 347.78 640.52 347.35 636.46
  Q 347.29 635.90 347.86 635.84
  C 352.46 635.35 352.52 640.86 352.20 643.82
  Q 352.14 644.34 351.91 644.62
  Q 351.49 645.10 351.36 645.31
  Z"
/>
<path fill="#ffffff" d="
  M 387.58 651.31
  L 379.63 651.58
  Q 379.13 651.60 378.77 651.25
  Q 378.08 650.59 377.63 651.28
  Q 373.46 649.67 370.91 645.99
  Q 370.82 645.86 370.73 645.98
  Q 370.72 645.99 370.69 646.04
  Q 370.68 646.06 370.66 646.04
  L 369.63 644.56
  Q 369.35 644.17 369.35 643.68
  L 369.35 639.26
  A 2.47 2.47 0.0 0 1 370.98 636.94
  L 371.70 636.68
  Q 373.16 636.16 373.30 637.81
  Q 373.65 642.07 377.51 643.04
  Q 379.56 643.56 381.08 642.04
  Q 384.40 638.70 381.80 634.75
  Q 381.51 634.29 382.03 634.16
  Q 387.14 632.88 391.37 633.12
  Q 391.85 633.14 392.18 633.49
  Q 393.14 634.51 393.32 635.80
  Q 393.36 636.13 393.60 636.33
  Q 393.83 636.51 393.89 636.55
  Q 394.18 636.73 394.23 637.00
  Q 395.15 641.81 391.44 647.45
  Q 389.60 650.26 387.58 651.31
  Z"
/>
<path fill="#ff3900" d="
  M 321.05 645.27
  Q 327.79 661.78 345.22 656.88
  Q 345.82 656.71 345.72 657.32
  Q 345.05 661.66 346.32 665.40
  Q 346.55 666.10 345.81 666.13
  C 335.52 666.50 326.57 667.03 316.56 670.97
  Q 317.15 668.91 317.41 666.85
  Q 318.43 658.87 319.82 650.94
  Q 319.93 650.34 320.10 648.05
  Q 320.25 646.10 321.05 645.27
  Z"
/>
<path fill="#e798bb" d="
  M 360.79 645.87
  Q 363.61 645.87 365.08 647.93
  C 368.19 652.28 371.59 658.46 369.85 663.84
  C 368.78 667.15 363.85 668.16 360.81 668.17
  C 357.77 668.17 352.85 667.17 351.76 663.86
  C 350.01 658.48 353.40 652.29 356.50 647.94
  Q 357.97 645.87 360.79 645.87
  Z"
/>
<path fill="#817775" d="
  M 387.58 651.31
  Q 383.29 654.29 377.89 651.77
  Q 377.75 651.70 377.67 651.59
  Q 377.51 651.34 377.63 651.28
  Q 378.08 650.59 378.77 651.25
  Q 379.13 651.60 379.63 651.58
  L 387.58 651.31
  Z"
/>
<path fill="#ff3900" d="
  M 389.20 656.84
  Q 393.15 659.40 398.52 658.73
  Q 401.69 658.32 403.32 658.57
  Q 408.96 659.43 411.87 659.26
  C 415.39 659.05 417.08 661.66 415.76 664.74
  Q 414.08 668.67 410.73 673.54
  C 399.24 667.51 388.17 666.62 375.82 666.10
  Q 375.08 666.06 375.31 665.36
  Q 376.63 661.14 375.75 657.16
  A 0.45 0.44 4.4 0 1 376.35 656.65
  Q 383.23 659.27 389.20 656.84
  Z"
/>
<path fill="#c43f83" d="
  M 303.04 698.36
  Q 299.88 702.14 296.00 704.29
  Q 294.25 705.26 295.18 703.49
  Q 297.99 698.14 299.60 694.07
  Q 300.46 691.92 304.14 686.14
  Q 305.33 684.27 308.99 681.44
  C 315.30 676.56 324.28 673.87 332.34 672.72
  Q 335.45 672.28 347.28 671.65
  Q 350.72 671.47 353.26 672.15
  Q 357.17 673.20 357.19 673.21
  Q 362.63 673.99 367.66 672.36
  Q 370.50 671.44 372.34 671.53
  C 385.23 672.18 396.35 672.77 407.46 678.28
  C 412.38 680.72 414.80 683.40 418.61 688.73
  C 421.78 693.17 423.85 698.65 426.42 703.59
  Q 427.42 705.54 425.58 704.36
  Q 420.69 701.24 417.11 696.94
  C 412.16 691.01 409.46 686.93 404.60 683.98
  Q 402.40 682.63 397.78 681.59
  Q 385.40 678.81 373.83 678.20
  C 355.06 677.21 337.13 678.00 320.43 682.48
  C 314.75 684.00 310.32 689.80 306.08 695.09
  C 305.32 696.04 304.17 697.01 303.04 698.36
  Z"
/>
<path fill="#ff3900" d="
  M 402.54 689.14
  Q 396.83 697.26 392.20 706.21
  Q 385.22 719.68 385.15 719.81
  Q 381.23 727.15 377.67 734.91
  C 374.57 741.67 370.32 747.50 366.70 754.28
  Q 364.38 758.64 361.51 763.11
  Q 357.25 769.76 352.81 778.30
  C 350.39 782.97 345.89 779.75 345.94 775.62
  C 346.00 771.60 346.87 766.78 347.05 762.33
  Q 347.33 755.46 348.18 746.71
  C 348.76 740.69 348.44 736.34 348.88 731.11
  Q 349.17 727.69 349.18 724.87
  Q 349.23 713.13 349.20 693.23
  A 0.27 0.26 1.1 0 0 348.94 692.97
  Q 334.43 692.43 320.26 694.17
  Q 317.97 694.45 315.11 693.00
  Q 317.75 689.68 320.99 688.48
  C 328.42 685.73 337.08 684.91 344.78 684.07
  C 352.38 683.24 359.18 683.79 366.75 683.56
  Q 372.70 683.38 385.24 685.08
  Q 395.56 686.49 402.54 689.14
  Z"
/>
<path fill="#866c2b" d="
  M 470.48 754.50
  L 470.68 748.56
  Q 471.87 751.68 470.48 754.50
  Z"
/>
<path fill="#efaf42" d="
  M 459.56 783.39
  L 458.83 783.78
  L 458.64 782.70
  Q 459.17 781.87 459.56 783.39
  Z"
/>
<path fill="#817775" d="
  M 458.64 782.70
  L 458.83 783.78
  Q 458.58 783.98 458.32 784.06
  Q 457.85 783.59 458.64 782.70
  Z"
/>
<path fill="#ffffff" d="
  M 459.56 783.39
  L 461.78 786.89
  Q 462.06 787.32 461.88 787.80
  C 461.26 789.54 461.57 791.60 460.56 792.96
  Q 458.63 795.56 457.64 796.15
  Q 454.60 797.97 453.38 799.12
  C 451.43 800.97 452.88 804.21 455.69 803.86
  C 457.57 803.63 460.07 800.66 461.80 801.33
  C 465.37 802.72 463.54 805.76 461.60 807.56
  Q 458.46 810.47 455.72 810.51
  Q 447.39 810.64 442.81 804.62
  Q 442.20 803.81 442.81 803.00
  Q 444.98 800.12 446.11 796.51
  A 1.04 1.04 0.0 0 1 446.74 795.84
  Q 447.25 795.65 447.94 795.61
  C 453.66 795.26 457.32 789.06 458.32 784.06
  Q 458.58 783.98 458.83 783.78
  L 459.56 783.39
  Z"
/>
<path fill="#000000" d="
  M 1276.14 802.54
  L 1276.12 804.54
  L 1276.14 802.54
  Z"
/>
<path fill="#000000" d="
  M 1276.12 805.54
  L 1276.06 807.71
  L 1276.12 805.54
  Z"
/>
<path fill="#ffffff" d="
  M 240.06 832.02
  C 239.25 829.20 235.64 829.08 234.32 831.57
  C 232.51 834.98 236.08 843.27 238.01 846.44
  Q 239.90 849.53 236.58 850.97
  Q 236.33 851.08 236.32 851.08
  Q 232.24 851.74 230.53 848.82
  C 225.64 840.45 225.74 832.52 226.39 823.14
  Q 226.62 819.89 227.45 817.51
  Q 227.63 817.00 228.16 817.12
  Q 230.08 817.54 230.69 818.50
  C 234.16 823.84 239.49 826.03 245.51 822.70
  A 0.33 0.33 0.0 0 1 246.00 823.00
  Q 245.75 830.47 247.51 838.01
  Q 248.09 840.47 246.78 842.49
  A 1.84 1.83 30.9 0 1 244.34 843.10
  C 242.86 842.28 242.13 841.20 241.79 839.36
  Q 241.12 835.70 240.06 832.02
  Z"
/>
<path fill="#866c2b" d="
  M 317.04 923.94
  Q 317.13 923.61 317.12 923.23
  Q 317.11 922.57 317.67 922.92
  C 321.00 925.00 324.48 927.26 328.21 924.96
  Q 330.60 923.48 330.86 923.30
  Q 331.30 923.01 331.78 923.21
  Q 333.69 924.02 335.24 923.88
  C 336.99 923.73 338.77 925.15 339.35 926.38
  Q 341.03 929.93 342.06 931.87
  C 343.80 935.13 337.24 938.19 335.42 938.93
  C 328.97 941.52 319.07 947.06 309.76 947.41
  C 306.74 947.53 298.90 947.65 301.13 942.63
  Q 305.99 931.68 316.22 924.82
  Q 316.94 924.33 317.04 923.94
  Z"
/>
<path fill="#866c2b" d="
  M 382.50 927.96
  Q 387.37 928.63 391.20 925.38
  A 0.80 0.80 0.0 0 1 392.12 925.29
  Q 398.80 929.00 405.26 926.67
  Q 405.75 926.50 406.18 926.79
  Q 415.71 933.41 420.27 942.97
  C 422.12 946.87 419.44 948.32 416.04 948.42
  C 404.74 948.75 396.37 944.28 385.61 939.42
  Q 381.83 937.71 379.21 935.15
  A 1.89 1.88 -52.9 0 1 378.90 932.86
  L 381.42 928.50
  A 1.09 1.09 0.0 0 1 382.50 927.96
  Z"
/>
</svg>
