<?xml version="1.0" encoding="UTF-8"?>
<!DOCTYPE svg PUBLIC "-//W3C//DTD SVG 1.1//EN" "http://www.w3.org/Graphics/SVG/1.1/DTD/svg11.dtd">
<svg xmlns="http://www.w3.org/2000/svg" version="1.1" width="2480px" height="2480px" style="shape-rendering:geometricPrecision; text-rendering:geometricPrecision; image-rendering:optimizeQuality; fill-rule:evenodd; clip-rule:evenodd" xmlns:xlink="http://www.w3.org/1999/xlink">
<g><path style="opacity:0.986" fill="#050402" d="M 1972.5,2238.5 C 1969.38,2237.13 1966.05,2236.13 1962.5,2235.5C 1952.39,2232.45 1942.72,2228.28 1933.5,2223C 1916.19,2211.77 1898.69,2200.93 1881,2190.5C 1867.93,2198.55 1855.1,2207.05 1842.5,2216C 1830.82,2223.17 1818.82,2229.84 1806.5,2236C 1802.66,2238.42 1798.99,2241.09 1795.5,2244C 1773.87,2255.48 1752.54,2267.48 1731.5,2280C 1723.24,2284.64 1714.41,2287.47 1705,2288.5C 1702.85,2288.36 1701.18,2287.36 1700,2285.5C 1699.23,2265.87 1698.23,2245.87 1697,2225.5C 1696.33,2224.42 1695.33,2223.75 1694,2223.5C 1687.92,2224.96 1682.08,2227.12 1676.5,2230C 1668.5,2236 1660.5,2242 1652.5,2248C 1637.48,2257.71 1620.98,2262.21 1603,2261.5C 1581.54,2257.07 1560.37,2258.24 1539.5,2265C 1526.2,2272.98 1512.2,2279.32 1497.5,2284C 1493.25,2284.2 1489.08,2284.7 1485,2285.5C 1464.92,2283.05 1444.76,2281.05 1424.5,2279.5C 1415.98,2280.95 1407.65,2283.12 1399.5,2286C 1377.94,2297.64 1354.94,2302.64 1330.5,2301C 1313.63,2297.53 1296.63,2295.03 1279.5,2293.5C 1273.79,2293.57 1268.13,2294.07 1262.5,2295C 1251.43,2298.14 1240.43,2301.47 1229.5,2305C 1223.78,2305.62 1218.28,2306.12 1213,2306.5C 1201.46,2304.38 1189.96,2301.88 1178.5,2299C 1164.91,2294.2 1151.58,2288.87 1138.5,2283C 1130.18,2280.14 1121.68,2278.3 1113,2277.5C 1108.11,2278.66 1103.28,2278.66 1098.5,2277.5C 1084.08,2279.57 1069.74,2282.07 1055.5,2285C 1041.6,2286.68 1028.27,2284.68 1015.5,2279C 997.056,2269.61 978.056,2261.61 958.5,2255C 953.582,2254.81 948.749,2254.31 944,2253.5C 915.692,2253.63 888.525,2247.46 862.5,2235C 857.117,2231.87 851.951,2228.37 847,2224.5C 846.822,2236.41 846.322,2248.24 845.5,2260C 845.235,2264.69 845.568,2269.52 846.5,2274.5C 845.738,2278.11 845.238,2281.78 845,2285.5C 843.818,2287.36 842.151,2288.36 840,2288.5C 830.591,2287.47 821.757,2284.64 813.5,2280C 776.305,2258.91 739.305,2237.57 702.5,2216C 691.928,2208.13 681.095,2200.63 670,2193.5C 667.5,2195.33 665,2197.17 662.5,2199C 642.04,2209.4 621.707,2220.06 601.5,2231C 574.153,2240.16 547.82,2241.5 522.5,2235C 519.623,2234.04 516.956,2232.71 514.5,2231C 478.405,2222.41 442.738,2212.41 407.5,2201C 401.559,2198.45 396.059,2195.28 391,2191.5C 386.548,2182.14 382.881,2172.48 380,2162.5C 378.14,2136.19 390.307,2121.53 416.5,2118.5C 416.444,2095.83 423.777,2075.99 438.5,2059C 449.719,2051.89 461.386,2045.56 473.5,2040C 477.11,2038.06 480.443,2035.72 483.5,2033C 467.752,2024.23 462.585,2011.06 468,1993.5C 470.029,1980.46 477.363,1973.46 490,1972.5C 490.917,1956.77 490.251,1941.1 488,1925.5C 482.964,1896.95 476.964,1868.61 470,1840.5C 469.108,1837.72 467.942,1835.05 466.5,1832.5C 433.603,1829.15 409.77,1812.82 395,1783.5C 378.233,1744.72 379.9,1706.72 400,1669.5C 405.55,1659.56 411.717,1650.06 418.5,1641C 414.382,1626.97 414.049,1612.97 417.5,1599C 414.558,1592.45 411.891,1585.78 409.5,1579C 410.07,1568.86 414.736,1561.2 423.5,1556C 426.864,1554.9 430.03,1553.4 433,1551.5C 448.789,1521.57 467.789,1493.91 490,1468.5C 495,1464.17 500,1459.83 505,1455.5C 503.524,1441.84 507.191,1429.84 516,1419.5C 539.48,1398.68 564.647,1380.18 591.5,1364C 601.435,1355.4 611.935,1347.56 623,1340.5C 632.206,1309.34 641.873,1278.34 652,1247.5C 654.646,1235.1 657.48,1222.76 660.5,1210.5C 653.265,1209.48 646.598,1206.98 640.5,1203C 633.364,1196.87 626.531,1190.37 620,1183.5C 609.824,1169.16 605.824,1153.16 608,1135.5C 607.28,1131.28 605.947,1127.28 604,1123.5C 600.885,1121.35 598.052,1118.85 595.5,1116C 570.439,1104.42 555.606,1084.92 551,1057.5C 549.552,1039.83 552.885,1023.16 561,1007.5C 563.488,1006.35 565.488,1004.69 567,1002.5C 570.09,995.323 570.756,987.99 569,980.5C 551.06,958.31 545.727,933.31 553,905.5C 556.68,894.486 563.847,886.653 574.5,882C 585.384,878.226 596.05,873.892 606.5,869C 610.016,867.744 613.016,865.744 615.5,863C 613.324,862.837 611.491,862.004 610,860.5C 603.603,845.641 598.603,830.308 595,814.5C 580.923,754.635 590.923,698.968 625,647.5C 634.13,636.701 643.63,626.201 653.5,616C 661.164,610.499 669.164,605.499 677.5,601C 693.822,595.951 710.322,592.784 727,591.5C 742.717,590.662 758.05,589.995 773,589.5C 794.021,593.29 815.187,594.29 836.5,592.5C 838.413,593.373 840.247,594.373 842,595.5C 864.247,579.748 889.081,570.915 916.5,569C 923.591,559.239 931.758,550.406 941,542.5C 937.024,523.906 931.024,505.906 923,488.5C 915.065,471.459 906.231,454.959 896.5,439C 888.957,435.895 881.624,432.228 874.5,428C 862.853,416.475 859.019,402.642 863,386.5C 870.2,370.41 882.534,362.41 900,362.5C 912.181,364.329 921.848,370.329 929,380.5C 935.919,392.031 936.085,403.698 929.5,415.5C 942.55,439.718 961.55,457.552 986.5,469C 992.433,470.938 998.433,471.438 1004.5,470.5C 1001.58,465.895 999.743,460.895 999,455.5C 998.333,447.167 998.333,438.833 999,430.5C 1000.44,421.445 1004.61,413.945 1011.5,408C 1027.23,395.634 1044.56,386.134 1063.5,379.5C 1061.87,363.663 1058.2,348.33 1052.5,333.5C 1029.33,321.487 1022.16,303.154 1031,278.5C 1044,258.587 1061.5,253.754 1083.5,264C 1100.91,276.579 1105.07,292.746 1096,312.5C 1094.3,314.699 1092.8,317.032 1091.5,319.5C 1093.56,328.846 1095.73,338.179 1098,347.5C 1099.88,352.988 1102.05,358.321 1104.5,363.5C 1109.71,360.727 1115.05,358.227 1120.5,356C 1143.83,347.667 1167.17,339.333 1190.5,331C 1210.14,326.608 1229.64,322.108 1249,317.5C 1250.27,300.782 1251.1,284.449 1251.5,268.5C 1250.06,263.55 1247.22,259.55 1243,256.5C 1234.39,241.182 1234.39,225.849 1243,210.5C 1253.45,199.375 1266.28,195.209 1281.5,198C 1294.9,201.065 1303.4,209.232 1307,222.5C 1310.98,238.033 1307.31,251.366 1296,262.5C 1295.07,264.459 1294.24,266.459 1293.5,268.5C 1293.9,284.449 1294.73,300.782 1296,317.5C 1315.36,322.108 1334.86,326.608 1354.5,331C 1377.83,339.333 1401.17,347.667 1424.5,356C 1429.95,358.227 1435.29,360.727 1440.5,363.5C 1442.95,358.321 1445.12,352.988 1447,347.5C 1449.27,338.179 1451.44,328.846 1453.5,319.5C 1441.17,302.341 1441.5,285.507 1454.5,269C 1467.57,259.284 1481.9,256.951 1497.5,262C 1519.2,276.999 1523.7,296.166 1511,319.5C 1505.81,325.506 1499.64,330.173 1492.5,333.5C 1486.8,348.33 1483.13,363.663 1481.5,379.5C 1500.44,386.134 1517.77,395.634 1533.5,408C 1540.39,413.945 1544.56,421.445 1546,430.5C 1546.67,438.833 1546.67,447.167 1546,455.5C 1545.26,460.895 1543.42,465.895 1540.5,470.5C 1546.57,471.438 1552.57,470.938 1558.5,469C 1583.45,457.552 1602.45,439.718 1615.5,415.5C 1606.54,395.033 1611.54,378.699 1630.5,366.5C 1644.66,360.538 1658.32,362.038 1671.5,371C 1685.45,386.356 1687.28,403.189 1677,421.5C 1674.97,423.772 1672.81,425.939 1670.5,428C 1663.38,432.228 1656.04,435.895 1648.5,439C 1628.5,470.517 1613.5,504.351 1603.5,540.5C 1613.32,550.819 1621.82,562.153 1629,574.5C 1650.15,574.568 1670.98,578.735 1691.5,587C 1695.16,588.497 1698.5,590.497 1701.5,593C 1722.52,594.27 1743.35,593.104 1764,589.5C 1778.95,589.995 1794.28,590.662 1810,591.5C 1826.68,592.784 1843.18,595.951 1859.5,601C 1867.84,605.499 1875.84,610.499 1883.5,616C 1922.45,652.739 1944.12,697.905 1948.5,751.5C 1948.61,761.992 1948.44,772.658 1948,783.5C 1946.33,792.5 1944.67,801.5 1943,810.5C 1940.06,819.001 1937.72,827.667 1936,836.5C 1933.85,843.955 1931.01,851.121 1927.5,858C 1956.59,863.754 1973.42,881.254 1978,910.5C 1978.67,917.5 1978.67,924.5 1978,931.5C 1972.97,949.747 1969.81,968.247 1968.5,987C 1969.71,989.351 1970.55,991.851 1971,994.5C 1978.03,1005.23 1984.03,1016.56 1989,1028.5C 1993.15,1045.56 1990.15,1061.23 1980,1075.5C 1972.98,1084.02 1965.15,1091.68 1956.5,1098.5C 1951.76,1104.69 1948.76,1111.69 1947.5,1119.5C 1955.23,1148.8 1945.23,1169.63 1917.5,1182C 1909.23,1183.91 1900.89,1185.58 1892.5,1187C 1888.83,1188.67 1885.17,1190.33 1881.5,1192C 1880.1,1193.06 1879.1,1194.39 1878.5,1196C 1892.59,1244.26 1907.09,1292.43 1922,1340.5C 1947.56,1359.06 1973.39,1377.22 1999.5,1395C 2009.63,1402.79 2019.46,1410.96 2029,1419.5C 2037.81,1429.84 2041.48,1441.84 2040,1455.5C 2050.98,1465.08 2061.32,1475.41 2071,1486.5C 2084.45,1505.29 2097.12,1524.63 2109,1544.5C 2120.62,1567.37 2127.79,1591.54 2130.5,1617C 2130.13,1625.13 2128.8,1633.13 2126.5,1641C 2141.67,1660.18 2152.51,1681.68 2159,1705.5C 2166.74,1742.49 2159.07,1775.82 2136,1805.5C 2120.2,1821.5 2101.03,1830.5 2078.5,1832.5C 2074.51,1843.99 2071.01,1855.65 2068,1867.5C 2063.02,1892.74 2058.69,1918.07 2055,1943.5C 2054.33,1953.17 2054.33,1962.83 2055,1972.5C 2067.64,1973.46 2074.97,1980.46 2077,1993.5C 2079.56,2003.11 2078.89,2012.45 2075,2021.5C 2071.44,2025.72 2067.28,2029.22 2062.5,2032C 2063.26,2033.51 2064.26,2034.85 2065.5,2036C 2108.26,2047.93 2129.6,2076.1 2129.5,2120.5C 2142.32,2121.33 2153.16,2126.33 2162,2135.5C 2167.24,2153.59 2165.24,2170.92 2156,2187.5C 2154.83,2188.67 2153.67,2189.83 2152.5,2191C 2109.82,2211 2065.16,2225 2018.5,2233C 2003.62,2238.19 1988.29,2240.02 1972.5,2238.5 Z M 673.5,1200.5 C 672.167,1200.5 670.833,1200.5 669.5,1200.5C 671.046,1193.95 672.38,1193.95 673.5,1200.5 Z"/></g>
<g><path style="opacity:1" fill="#fdc912" d="M 1266.5,209.5 C 1291.21,208.713 1300.71,220.379 1295,244.5C 1292.07,250.033 1288.4,255.033 1284,259.5C 1282.92,264.585 1282.42,269.752 1282.5,275C 1283.1,294.867 1284.26,314.701 1286,334.5C 1290.2,353.834 1295.53,372.834 1302,391.5C 1316.29,416.601 1337.79,431.267 1366.5,435.5C 1404.79,435.795 1431.29,418.461 1446,383.5C 1455.41,361.607 1461.75,338.94 1465,315.5C 1458,307.825 1455,298.825 1456,288.5C 1462.1,274.198 1472.93,268.365 1488.5,271C 1500.68,274.496 1506.68,282.663 1506.5,295.5C 1506.15,310.354 1498.82,319.854 1484.5,324C 1482.04,326.408 1480.21,329.241 1479,332.5C 1473.23,356.588 1468.56,380.922 1465,405.5C 1461.3,449.802 1481.46,475.302 1525.5,482C 1549.39,485.561 1570.73,479.894 1589.5,465C 1600.72,454.783 1610.88,443.616 1620,431.5C 1623.15,426.375 1625.32,420.875 1626.5,415C 1625.78,410.725 1624.62,406.558 1623,402.5C 1621.83,391.012 1626.33,382.512 1636.5,377C 1648.61,372.703 1659.11,375.203 1668,384.5C 1673.81,394.094 1673.81,403.761 1668,413.5C 1661.34,420.819 1653.17,425.653 1643.5,428C 1621.21,460.087 1604.37,494.921 1593,532.5C 1566.87,511.546 1537.04,503.046 1503.5,507C 1496.93,507.537 1490.76,509.371 1485,512.5C 1479.77,510.098 1474.27,508.598 1468.5,508C 1458.91,506.29 1449.24,505.456 1439.5,505.5C 1435.33,495.178 1427.66,489.011 1416.5,487C 1407.5,486.333 1398.5,486.333 1389.5,487C 1385.73,487.406 1382.06,488.239 1378.5,489.5C 1375.42,484.914 1371.75,480.747 1367.5,477C 1354.74,471.949 1341.74,471.283 1328.5,475C 1321.59,477.638 1314.75,480.471 1308,483.5C 1298.22,472.671 1286.05,468.837 1271.5,472C 1261.46,473.325 1254.46,478.492 1250.5,487.5C 1241.5,484.443 1232.5,481.276 1223.5,478C 1214.89,476.495 1206.22,476.161 1197.5,477C 1193.95,477.774 1190.62,479.107 1187.5,481C 1183.3,484.861 1179.47,489.028 1176,493.5C 1159.51,487.297 1142.68,486.13 1125.5,490C 1118.59,493.698 1113.09,498.864 1109,505.5C 1107.8,507.677 1107.3,510.011 1107.5,512.5C 1094.93,510.159 1082.27,509.326 1069.5,510C 1061.27,510.572 1054.27,513.739 1048.5,519.5C 1013.76,508.255 981.598,513.255 952,534.5C 941.164,496.001 924.331,460.501 901.5,428C 891.836,425.663 883.669,420.83 877,413.5C 868.959,399.311 871.459,387.478 884.5,378C 901.645,371.046 914.145,375.879 922,392.5C 922.667,395.833 922.667,399.167 922,402.5C 920.384,406.558 919.217,410.725 918.5,415C 919.681,420.875 921.848,426.375 925,431.5C 936.184,446.349 949.017,459.516 963.5,471C 971.942,476.055 980.942,479.722 990.5,482C 1012.41,485.015 1033.08,481.349 1052.5,471C 1067.66,461.24 1076.83,447.407 1080,429.5C 1080.67,421.5 1080.67,413.5 1080,405.5C 1076.44,380.922 1071.77,356.588 1066,332.5C 1064.88,329.751 1063.38,327.251 1061.5,325C 1040.89,316.849 1034.39,302.349 1042,281.5C 1048.5,272.339 1057.33,268.839 1068.5,271C 1083.42,274.244 1090.26,283.41 1089,298.5C 1087.3,304.896 1084.3,310.562 1080,315.5C 1083.25,338.94 1089.59,361.607 1099,383.5C 1115.28,421.24 1144.11,438.406 1185.5,435C 1211.08,428.723 1230.25,414.223 1243,391.5C 1249.47,372.834 1254.8,353.834 1259,334.5C 1260.74,314.701 1261.9,294.867 1262.5,275C 1262.58,269.752 1262.08,264.585 1261,259.5C 1256.6,255.033 1252.93,250.033 1250,244.5C 1247.49,235.542 1248.15,226.875 1252,218.5C 1253.5,217 1255,215.5 1256.5,214C 1260.19,213.092 1263.53,211.592 1266.5,209.5 Z"/></g>
<g><path style="opacity:1" fill="#d5000a" d="M 1242.5,330.5 C 1244.17,330.5 1245.83,330.5 1247.5,330.5C 1244.68,355.121 1237.18,378.121 1225,399.5C 1198.46,427.763 1168.29,432.263 1134.5,413C 1122.01,402.839 1113.01,390.173 1107.5,375C 1115.26,370.786 1123.26,367.119 1131.5,364C 1153.05,356.061 1174.72,348.394 1196.5,341C 1212.03,337.78 1227.37,334.28 1242.5,330.5 Z"/></g>
<g><path style="opacity:1" fill="#d5000a" d="M 1297.5,330.5 C 1314.22,333.679 1330.89,337.179 1347.5,341C 1371.33,348.942 1395,357.276 1418.5,366C 1424.95,368.727 1431.29,371.727 1437.5,375C 1431.61,391.459 1421.61,404.792 1407.5,415C 1391.13,422.242 1374.13,424.908 1356.5,423C 1339.87,417.35 1326.37,407.517 1316,393.5C 1306.58,373.483 1300.41,352.483 1297.5,330.5 Z"/></g>
<g><path style="opacity:1" fill="#d5000a" d="M 1064.5,390.5 C 1065.93,390.881 1066.76,391.881 1067,393.5C 1069.82,406.777 1070.15,420.11 1068,433.5C 1059,456.577 1042.17,468.743 1017.5,470C 1006.93,452.777 1006.93,435.61 1017.5,418.5C 1031.81,406.848 1047.47,397.515 1064.5,390.5 Z"/></g>
<g><path style="opacity:1" fill="#d5000a" d="M 1478.5,390.5 C 1497.48,397.066 1514.31,407.066 1529,420.5C 1537.98,437.266 1537.48,453.766 1527.5,470C 1499.8,468.642 1482.64,454.475 1476,427.5C 1474.96,415.026 1475.79,402.693 1478.5,390.5 Z"/></g>
<g><path style="opacity:1" fill="#eeae41" d="M 1446.5,1323.5 C 1444.55,1298.77 1434.89,1277.61 1417.5,1260C 1408.35,1252.92 1398.68,1246.59 1388.5,1241C 1417.51,1222.34 1429.34,1195.84 1424,1161.5C 1421.63,1145.92 1414.46,1133.09 1402.5,1123C 1388.05,1110.11 1371.38,1101.44 1352.5,1097C 1343.17,1096.5 1333.84,1096.33 1324.5,1096.5C 1324.67,1075.83 1324.5,1055.16 1324,1034.5C 1322.79,1032.95 1321.29,1031.78 1319.5,1031C 1310.17,1030.67 1300.83,1030.33 1291.5,1030C 1285.56,1027.09 1281.89,1028.92 1280.5,1035.5C 1281.48,1055.81 1281.81,1076.14 1281.5,1096.5C 1270.17,1096.5 1258.83,1096.5 1247.5,1096.5C 1247.94,1074.79 1247.44,1053.12 1246,1031.5C 1245.1,1030.3 1243.93,1029.47 1242.5,1029C 1231.2,1027.47 1219.86,1027.47 1208.5,1029C 1207.67,1029.83 1206.83,1030.67 1206,1031.5C 1205.67,1051.83 1205.33,1072.17 1205,1092.5C 1203.98,1093.35 1203.14,1094.35 1202.5,1095.5C 1173.17,1096.33 1143.84,1096.83 1114.5,1097C 1113.67,1097.83 1112.83,1098.67 1112,1099.5C 1111.04,1110.93 1111.38,1122.26 1113,1133.5C 1113.83,1134.33 1114.67,1135.17 1115.5,1136C 1128.21,1136.48 1140.54,1138.81 1152.5,1143C 1158.55,1146.4 1162.38,1151.57 1164,1158.5C 1164.67,1161.83 1165.33,1165.17 1166,1168.5C 1166.83,1227.57 1166.66,1286.57 1165.5,1345.5C 1114.34,1328.72 1063.34,1311.22 1012.5,1293C 966.688,1277.88 920.688,1263.38 874.5,1249.5C 848.27,1181.6 814.77,1117.6 774,1057.5C 755.333,1030.17 736.667,1002.83 718,975.5C 717.968,969.207 719.968,963.541 724,958.5C 733.59,946.239 743.924,934.572 755,923.5C 756.13,918.617 754.13,915.95 749,915.5C 744.932,917.561 741.432,920.395 738.5,924C 736.527,924.495 734.527,924.662 732.5,924.5C 730.8,915.366 731.3,906.366 734,897.5C 734.899,895.673 736.233,894.34 738,893.5C 750.989,899.076 764.156,904.243 777.5,909C 819.415,918.75 857.749,911.084 892.5,886C 911.657,870.19 923.157,850.024 927,825.5C 929.308,806.11 928.975,786.777 926,767.5C 924.361,763.722 922.861,759.889 921.5,756C 930.46,746.075 939.627,736.241 949,726.5C 960.051,710.339 965.718,692.339 966,672.5C 966.167,658.488 966.667,644.488 967.5,630.5C 987.568,618.276 1005.07,602.942 1020,584.5C 1028.16,573.858 1032.66,561.858 1033.5,548.5C 1042.87,548.865 1052.2,549.365 1061.5,550C 1064.55,547.552 1065.05,544.719 1063,541.5C 1059.76,539.648 1056.26,538.648 1052.5,538.5C 1053.4,527.53 1059.4,521.697 1070.5,521C 1087.77,520.566 1104.77,522.566 1121.5,527C 1129.23,528.923 1132.73,526.09 1132,518.5C 1127.72,516.718 1123.22,515.718 1118.5,515.5C 1120.19,506.641 1125.52,501.141 1134.5,499C 1153.69,497.171 1171.69,500.838 1188.5,510C 1195.17,511.608 1198.34,509.108 1198,502.5C 1194.66,500.548 1191.5,498.381 1188.5,496C 1190.76,491.41 1194.42,488.743 1199.5,488C 1206.9,487.152 1214.23,487.485 1221.5,489C 1232.07,492.125 1242.07,496.292 1251.5,501.5C 1253.48,501.563 1255.15,500.896 1256.5,499.5C 1257.98,492.362 1261.98,487.196 1268.5,484C 1275.43,482.494 1282.43,482.161 1289.5,483C 1294.25,484.07 1296.75,486.903 1297,491.5C 1291.9,496.324 1292.57,499.991 1299,502.5C 1301.52,501.493 1304.02,500.326 1306.5,499C 1308.96,495.942 1311.96,493.608 1315.5,492C 1321.5,489.667 1327.5,487.333 1333.5,485C 1342.96,482.759 1352.29,483.092 1361.5,486C 1363.96,487.787 1365.62,490.121 1366.5,493C 1362.35,495.578 1358.35,498.411 1354.5,501.5C 1351.8,507.943 1353.8,510.776 1360.5,510C 1379.22,497.31 1399.56,493.977 1421.5,500C 1424.31,501.644 1426.64,503.81 1428.5,506.5C 1421.75,507.219 1415.08,508.386 1408.5,510C 1404.86,512.756 1404.53,515.923 1407.5,519.5C 1409,519.833 1410.5,520.167 1412,520.5C 1432.12,515.473 1452.29,515.307 1472.5,520C 1480.34,520.918 1486.67,524.418 1491.5,530.5C 1482.18,530.714 1480.18,534.547 1485.5,542C 1494.91,542.625 1504.24,543.791 1513.5,545.5C 1519.68,588.902 1535.51,628.236 1561,663.5C 1569.23,673.398 1578.4,682.231 1588.5,690C 1594.08,693.04 1599.58,696.207 1605,699.5C 1603.52,708.457 1601.85,717.457 1600,726.5C 1597.96,756.55 1608.12,781.55 1630.5,801.5C 1621.78,823.857 1622.61,845.857 1633,867.5C 1635.06,871.961 1637.4,876.294 1640,880.5C 1648.55,890.055 1658.05,898.555 1668.5,906C 1683.35,912.282 1698.68,916.949 1714.5,920C 1743.57,923.427 1767.73,914.26 1787,892.5C 1788.96,889.415 1790.79,886.248 1792.5,883C 1796.18,882.282 1799.84,881.949 1803.5,882C 1819.22,893.047 1830.39,907.547 1837,925.5C 1837.79,931.552 1837.62,937.552 1836.5,943.5C 1836,944.521 1835.33,944.688 1834.5,944C 1831.49,940.957 1828.49,937.957 1825.5,935C 1819.67,934.167 1817.17,936.667 1818,942.5C 1824.6,949.098 1830.44,956.264 1835.5,964C 1793.56,1021.35 1754.73,1080.85 1719,1142.5C 1710.24,1161.02 1701.24,1179.35 1692,1197.5C 1685.87,1215.01 1678.71,1232.01 1670.5,1248.5C 1664.74,1251.48 1658.74,1253.98 1652.5,1256C 1616.6,1267.74 1580.6,1279.08 1544.5,1290C 1511.63,1300.68 1478.96,1311.85 1446.5,1323.5 Z"/></g>
<g><path style="opacity:1" fill="#8c97a0" d="M 1505.5,517.5 C 1535.25,514.501 1561.91,522.001 1585.5,540C 1592.33,546.833 1599.17,553.667 1606,560.5C 1612.04,569.421 1618.21,578.254 1624.5,587C 1668.49,583.416 1702.99,599.583 1728,635.5C 1737.98,652.459 1746.65,670.126 1754,688.5C 1760.9,698.784 1769.06,707.95 1778.5,716C 1789.22,723.032 1800.22,729.699 1811.5,736C 1824.23,745.721 1834.39,757.554 1842,771.5C 1845.91,788.675 1846.57,806.008 1844,823.5C 1840.3,838.074 1833.13,850.574 1822.5,861C 1815.9,865.53 1808.74,868.696 1801,870.5C 1800.5,870.333 1800,870.167 1799.5,870C 1802.33,862.836 1799.99,859.836 1792.5,861C 1787.09,870.744 1781.26,880.244 1775,889.5C 1758.49,905.78 1738.66,912.28 1715.5,909C 1689.35,905.971 1667.52,894.805 1650,875.5C 1636.63,856.293 1632.63,835.293 1638,812.5C 1639.72,808.232 1641.55,804.065 1643.5,800C 1643.37,798.373 1642.87,796.873 1642,795.5C 1618.73,778.048 1608.39,754.715 1611,725.5C 1613.88,715.65 1615.55,705.65 1616,695.5C 1614.47,694.271 1613.3,692.771 1612.5,691C 1603.83,685.667 1595.17,680.333 1586.5,675C 1551.36,637.879 1530.86,593.713 1525,542.5C 1523.99,541.663 1522.82,541.33 1521.5,541.5C 1521.71,539.856 1521.38,538.356 1520.5,537C 1515.02,534.879 1509.35,533.546 1503.5,533C 1501.84,530.493 1501.01,527.659 1501,524.5C 1499.34,523.183 1498.17,521.517 1497.5,519.5C 1500.31,518.832 1502.97,518.166 1505.5,517.5 Z"/></g>
<g><path style="opacity:1" fill="#8c97a0" d="M 1003.5,524.5 C 1016.78,523.785 1029.78,525.285 1042.5,529C 1042.83,529.333 1043.17,529.667 1043.5,530C 1041.89,532.228 1041.22,534.728 1041.5,537.5C 1036.82,537.334 1032.15,537.501 1027.5,538C 1026.67,538.833 1025.83,539.667 1025,540.5C 1023.48,555.877 1017.81,569.543 1008,581.5C 996.785,593.715 984.618,604.882 971.5,615C 967.719,617.225 963.719,618.891 959.5,620C 958.378,622.124 956.878,623.957 955,625.5C 955.923,644.514 955.59,663.514 954,682.5C 952.226,700.846 944.893,716.512 932,729.5C 924.311,736.191 916.978,743.191 910,750.5C 909.333,752.833 909.333,755.167 910,757.5C 913.749,765.082 916.083,773.082 917,781.5C 917.632,796.518 917.298,811.518 916,826.5C 907.764,860.115 887.264,882.615 854.5,894C 833.751,901.686 812.417,903.686 790.5,900C 772.148,896.164 754.815,889.498 738.5,880C 731.39,876.363 724.89,871.863 719,866.5C 714,858.5 709,850.5 704,842.5C 690.388,805.831 697.221,773.664 724.5,746C 729.983,741.094 735.649,736.428 741.5,732C 757.649,724.094 773.316,715.428 788.5,706C 797.323,698.214 801.489,688.381 801,676.5C 809.047,642.129 828.213,615.963 858.5,598C 873.374,589.709 889.207,584.209 906,581.5C 907.894,581.58 909.727,581.913 911.5,582.5C 915.784,581.179 920.117,580.012 924.5,579C 926.962,574.574 929.796,570.407 933,566.5C 939.482,559.583 945.982,552.583 952.5,545.5C 958.971,541.428 965.638,537.594 972.5,534C 982.707,530.038 993.041,526.871 1003.5,524.5 Z"/></g>
<g><path style="opacity:1" fill="#010100" d="M 1081.5,570.5 C 1086.9,570.309 1092.23,570.809 1097.5,572C 1124.42,579.296 1150.09,589.629 1174.5,603C 1189.83,612.667 1205.17,622.333 1220.5,632C 1230.59,639.418 1240.09,647.585 1249,656.5C 1257.76,667.876 1256.26,677.376 1244.5,685C 1241.5,685.667 1238.5,685.667 1235.5,685C 1218.41,678.291 1201.41,671.291 1184.5,664C 1141.89,652.424 1098.56,645.09 1054.5,642C 1045.52,640.234 1037.35,636.734 1030,631.5C 1027.21,627.33 1026.88,622.997 1029,618.5C 1030.66,615.836 1032.49,613.336 1034.5,611C 1037.1,610.08 1039.77,609.413 1042.5,609C 1057.18,608.506 1071.85,608.506 1086.5,609C 1078.76,604.591 1072.26,598.758 1067,591.5C 1064.97,579.705 1069.8,572.705 1081.5,570.5 Z"/></g>
<g><path style="opacity:1" fill="#010100" d="M 1444.5,570.5 C 1450.66,570.216 1456.66,571.049 1462.5,573C 1470.04,577.032 1472.54,583.198 1470,591.5C 1464.74,598.758 1458.24,604.591 1450.5,609C 1464.47,608.425 1478.47,608.425 1492.5,609C 1502.59,609.097 1508.26,614.097 1509.5,624C 1509.17,628 1507.5,631.333 1504.5,634C 1497.32,637.06 1489.99,639.727 1482.5,642C 1437.25,644.695 1392.92,652.362 1349.5,665C 1337.26,669.784 1325.26,675.117 1313.5,681C 1308.83,682.333 1304.17,683.667 1299.5,685C 1296.37,685.79 1293.37,685.457 1290.5,684C 1280.7,675.889 1279.86,666.723 1288,656.5C 1298.92,646.245 1310.42,636.745 1322.5,628C 1335.83,619.667 1349.17,611.333 1362.5,603C 1388.5,588.506 1415.83,577.673 1444.5,570.5 Z"/></g>
<g><path style="opacity:1" fill="#fdca12" d="M 744.5,601.5 C 765.96,600.846 787.293,602.179 808.5,605.5C 815.819,604.53 823.152,604.363 830.5,605C 817.625,616.947 806.792,630.447 798,645.5C 795.464,656.935 792.63,668.269 789.5,679.5C 774.886,679.231 760.552,681.064 746.5,685C 735.592,689.453 724.926,694.453 714.5,700C 692.722,715.227 682.722,736.227 684.5,763C 685.024,774.55 686.024,786.05 687.5,797.5C 665.312,793.682 647.145,800.349 633,817.5C 628.605,823.566 624.605,829.9 621,836.5C 620.552,841.53 619.886,846.53 619,851.5C 618.667,851.167 618.333,850.833 618,850.5C 611.111,829.163 605.444,807.497 601,785.5C 597.568,751.953 602.234,719.62 615,688.5C 617.589,682.984 620.922,677.984 625,673.5C 626.21,667.74 628.543,662.407 632,657.5C 643.888,641.612 657.721,627.779 673.5,616C 676.608,613.894 679.941,612.228 683.5,611C 693.172,608.666 702.838,606.333 712.5,604C 723.311,603.055 733.978,602.222 744.5,601.5 Z"/></g>
<g><path style="opacity:1" fill="#feca12" d="M 1758.5,601.5 C 1777.84,601.581 1797.18,602.081 1816.5,603C 1830.7,605.572 1844.7,608.905 1858.5,613C 1880.04,627.204 1897.54,645.371 1911,667.5C 1911.33,669.5 1911.67,671.5 1912,673.5C 1919.69,682.547 1925.02,692.88 1928,704.5C 1938.12,739.907 1939.12,775.574 1931,811.5C 1927.24,822.719 1923.91,834.053 1921,845.5C 1919.67,848.167 1918.33,850.833 1917,853.5C 1911.96,849.461 1907.63,844.794 1904,839.5C 1901.47,832.909 1899.14,826.242 1897,819.5C 1888.42,803.959 1875.25,796.292 1857.5,796.5C 1856.77,786.252 1854.77,776.252 1851.5,766.5C 1855.42,739.848 1846.75,718.348 1825.5,702C 1806.53,689.898 1785.86,682.565 1763.5,680C 1755.38,662.933 1746.88,646.1 1738,629.5C 1731.92,620.082 1724.42,611.915 1715.5,605C 1730.05,605.345 1744.38,604.178 1758.5,601.5 Z"/></g>
<g><path style="opacity:1" fill="#d2000a" d="M 775.5,690.5 C 778.85,690.335 782.183,690.502 785.5,691C 784.36,692.973 783.027,694.807 781.5,696.5C 775.509,701.164 769.176,705.33 762.5,709C 744.693,716.062 728.693,725.895 714.5,738.5C 708.097,747.628 701.93,756.962 696,766.5C 692.631,744.42 699.464,726.253 716.5,712C 727.586,705.791 738.919,700.124 750.5,695C 758.776,692.466 767.11,690.966 775.5,690.5 Z"/></g>
<g><path style="opacity:1" fill="#070401" d="M 1093.5,691.5 C 1096.98,691.184 1100.31,691.684 1103.5,693C 1128.37,719.718 1158.37,728.051 1193.5,718C 1205.28,713.11 1215.28,705.776 1223.5,696C 1228.05,693.711 1232.38,694.045 1236.5,697C 1238.44,699.153 1238.94,701.653 1238,704.5C 1228.03,717.294 1215.53,726.96 1200.5,733.5C 1204.42,740.745 1206.59,748.412 1207,756.5C 1203.58,760.367 1200.25,760.367 1197,756.5C 1195.48,749.602 1192.98,743.102 1189.5,737C 1180.9,737.913 1172.24,738.58 1163.5,739C 1162.28,740.648 1161.45,742.481 1161,744.5C 1160.08,752.178 1159.08,759.844 1158,767.5C 1154.98,772.265 1151.65,772.598 1148,768.5C 1147.67,758.333 1148.83,748.333 1151.5,738.5C 1142.56,736.298 1133.89,733.298 1125.5,729.5C 1119.31,736.185 1113.31,743.018 1107.5,750C 1099.49,749.47 1097.65,745.636 1102,738.5C 1106.72,734.28 1110.89,729.613 1114.5,724.5C 1104.71,717.385 1096.71,708.719 1090.5,698.5C 1091.24,696.03 1092.24,693.696 1093.5,691.5 Z"/></g>
<g><path style="opacity:1" fill="#070401" d="M 1435.5,691.5 C 1442.95,690.126 1446.45,693.126 1446,700.5C 1439.35,709.647 1431.52,717.647 1422.5,724.5C 1426.11,729.613 1430.28,734.28 1435,738.5C 1439.37,745.588 1437.54,749.421 1429.5,750C 1423.69,743.018 1417.69,736.185 1411.5,729.5C 1402.95,732.906 1394.28,735.906 1385.5,738.5C 1388.17,748.333 1389.33,758.333 1389,768.5C 1385.3,772.582 1381.97,772.249 1379,767.5C 1377.92,759.844 1376.92,752.178 1376,744.5C 1375.55,742.481 1374.72,740.648 1373.5,739C 1364.74,738.643 1356.08,737.976 1347.5,737C 1344.02,743.102 1341.52,749.602 1340,756.5C 1336.75,760.367 1333.42,760.367 1330,756.5C 1330.41,748.412 1332.58,740.745 1336.5,733.5C 1321.47,726.96 1308.97,717.294 1299,704.5C 1297.42,699.404 1299.25,696.237 1304.5,695C 1307.51,694.799 1310.51,695.132 1313.5,696C 1336.4,720.881 1364.07,728.215 1396.5,718C 1411.57,712.071 1424.57,703.238 1435.5,691.5 Z"/></g>
<g><path style="opacity:1" fill="#d1000a" d="M 1771.5,692.5 C 1780.84,693.669 1789.84,696.169 1798.5,700C 1805.83,704 1813.17,708 1820.5,712C 1832.44,721.383 1838.94,733.55 1840,748.5C 1833.83,741.667 1827.33,735.167 1820.5,729C 1808.1,721.226 1795.76,713.559 1783.5,706C 1778.9,701.906 1774.9,697.406 1771.5,692.5 Z"/></g>
<g><path style="opacity:1" fill="#070303" d="M 1264.5,703.5 C 1273.69,704.063 1282.36,706.563 1290.5,711C 1305.04,728.578 1315.54,748.412 1322,770.5C 1325.33,783.167 1325.33,795.833 1322,808.5C 1320.76,813.473 1318.6,817.973 1315.5,822C 1337.17,823.805 1358.83,825.805 1380.5,828C 1401.88,831.388 1423.22,835.055 1444.5,839C 1459.68,843.422 1474.01,849.755 1487.5,858C 1531.28,894.048 1563.45,938.548 1584,991.5C 1585.35,999.309 1582.18,1003.98 1574.5,1005.5C 1566.66,1004.5 1559.33,1002 1552.5,998C 1535.5,983.332 1521,966.498 1509,947.5C 1504.05,942.959 1500.05,937.626 1497,931.5C 1488.19,921.356 1477.69,913.523 1465.5,908C 1440.44,899.876 1414.78,894.209 1388.5,891C 1348.52,886.875 1308.52,883.708 1268.5,881.5C 1230.11,883.385 1191.77,886.219 1153.5,890C 1136.17,893 1118.83,896 1101.5,899C 1086.11,902.408 1071.44,907.741 1057.5,915C 1046.82,923.012 1038.32,932.846 1032,944.5C 1030.49,945.257 1029.15,946.257 1028,947.5C 1017.37,964.799 1004.54,980.299 989.5,994C 980.456,1001.36 970.123,1005.02 958.5,1005C 953.466,1001.77 951.632,997.269 953,991.5C 973.552,938.548 1005.72,894.048 1049.5,858C 1062.8,850.016 1076.8,843.683 1091.5,839C 1115.14,834.84 1138.81,830.84 1162.5,827C 1182.17,825.375 1201.84,823.708 1221.5,822C 1215.29,812.127 1212.29,801.294 1212.5,789.5C 1213.67,770.504 1219.17,752.837 1229,736.5C 1234.33,728.5 1239.67,720.5 1245,712.5C 1251.2,708.612 1257.7,705.612 1264.5,703.5 Z"/></g>
<g><path style="opacity:1" fill="#e597ba" d="M 1262.5,715.5 C 1268.93,714.698 1274.93,715.864 1280.5,719C 1303.15,741.467 1313.65,768.633 1312,800.5C 1308.98,817.419 1299.14,827.919 1282.5,832C 1263.04,837.094 1246.21,832.594 1232,818.5C 1226.74,809.894 1224.24,800.56 1224.5,790.5C 1226.33,762.682 1236.99,738.849 1256.5,719C 1258.43,717.541 1260.43,716.375 1262.5,715.5 Z"/></g>
<g><path style="opacity:1" fill="#060401" d="M 1455.5,791.5 C 1466.49,789.992 1471.32,794.658 1470,805.5C 1467.27,812.053 1462.44,814.22 1455.5,812C 1446.23,805.171 1446.23,798.338 1455.5,791.5 Z"/></g>
<g><path style="opacity:1" fill="#fefefe" d="M 1857.5,805.5 C 1871.26,807.063 1881.42,814.063 1888,826.5C 1891.7,843.863 1901.2,857.029 1916.5,866C 1924.97,869.601 1933.64,872.601 1942.5,875C 1962.19,888.399 1970.03,906.899 1966,930.5C 1963.47,943.606 1960.47,956.606 1957,969.5C 1955.82,979.401 1956.82,989.067 1960,998.5C 1966.43,1008.35 1972.1,1018.69 1977,1029.5C 1981.69,1049.1 1976.52,1065.6 1961.5,1079C 1940.75,1092.75 1932.75,1111.91 1937.5,1136.5C 1938.21,1150.59 1932.54,1161.09 1920.5,1168C 1917.17,1169.33 1913.83,1170.67 1910.5,1172C 1895.7,1172.71 1882.37,1177.38 1870.5,1186C 1866.88,1189.62 1864.05,1193.79 1862,1198.5C 1860.67,1206.15 1858.34,1213.48 1855,1220.5C 1850.03,1226.8 1843.86,1231.63 1836.5,1235C 1826.29,1238.14 1815.96,1240.8 1805.5,1243C 1791.94,1248.23 1782.77,1257.73 1778,1271.5C 1776.8,1279.44 1776.14,1287.44 1776,1295.5C 1772.62,1313.46 1762.12,1324.62 1744.5,1329C 1730.66,1330.95 1717.66,1335.28 1705.5,1342C 1702.39,1345.06 1699.89,1348.56 1698,1352.5C 1694.79,1364.22 1691.46,1375.88 1688,1387.5C 1683.06,1395.77 1676.23,1401.94 1667.5,1406C 1656.8,1407.51 1646.13,1409.18 1635.5,1411C 1630.83,1413.33 1626.17,1415.67 1621.5,1418C 1613.89,1429.94 1605.89,1441.61 1597.5,1453C 1587.97,1459.03 1577.64,1461.2 1566.5,1459.5C 1581.07,1435.43 1596.24,1411.76 1612,1388.5C 1635.13,1346.91 1657.13,1304.91 1678,1262.5C 1684.55,1242.73 1692.22,1223.39 1701,1204.5C 1710.26,1186.32 1719.26,1167.99 1728,1149.5C 1736.05,1137.4 1743.05,1124.74 1749,1111.5C 1777.34,1068.18 1806.01,1025.18 1835,982.5C 1848.67,965.5 1862.33,948.5 1876,931.5C 1876.99,925.498 1874.49,923.332 1868.5,925C 1860.03,933.098 1852.36,941.932 1845.5,951.5C 1845.17,951.167 1844.83,950.833 1844.5,950.5C 1849.58,938.665 1849.74,926.665 1845,914.5C 1838.96,899.55 1829.46,887.383 1816.5,878C 1821.77,875.059 1826.77,871.726 1831.5,868C 1847.66,850.379 1856.32,829.546 1857.5,805.5 Z"/></g>
<g><path style="opacity:1" fill="#fefefe" d="M 673.5,1200.5 C 672.38,1193.95 671.046,1193.95 669.5,1200.5C 661.722,1199.89 654.389,1197.72 647.5,1194C 625.662,1178.48 616.162,1157.32 619,1130.5C 615.059,1116.56 606.226,1107.06 592.5,1102C 586.641,1096.8 580.808,1091.64 575,1086.5C 562.639,1069.34 558.972,1050.34 564,1029.5C 568.839,1019.15 574.172,1009.15 580,999.5C 581.397,992.548 581.73,985.548 581,978.5C 574.867,969.682 569.534,960.348 565,950.5C 560.708,936.61 560.375,922.61 564,908.5C 565.54,904.581 567.707,901.081 570.5,898C 575.577,894.599 580.911,891.599 586.5,889C 596.671,885.587 606.671,881.587 616.5,877C 626.088,871.263 630.588,862.763 630,851.5C 632.837,838.656 638.67,827.49 647.5,818C 658.953,809.061 671.953,805.895 686.5,808.5C 686.196,831.757 693.696,852.091 709,869.5C 714.886,875.721 721.052,881.555 727.5,887C 722.45,894.365 720.116,902.531 720.5,911.5C 720.631,917.2 721.131,922.866 722,928.5C 723.5,931.333 725.667,933.5 728.5,935C 720.48,943.537 713.813,953.037 708.5,963.5C 699.124,949.572 688.457,936.738 676.5,925C 671.014,923.175 668.514,925.008 669,930.5C 682.286,948.121 695.952,965.454 710,982.5C 738.992,1025.18 767.659,1068.18 796,1111.5C 801.952,1124.74 808.952,1137.4 817,1149.5C 832.41,1179.65 846.744,1210.32 860,1241.5C 861.934,1248.64 864.268,1255.64 867,1262.5C 887.874,1304.91 909.874,1346.91 933,1388.5C 947.625,1410.91 962.125,1433.41 976.5,1456C 954.473,1458.21 936.64,1450.71 923,1433.5C 916.85,1422.7 910.516,1412.04 904,1401.5C 899.12,1395.62 892.953,1391.79 885.5,1390C 872.458,1387.66 859.458,1384.99 846.5,1382C 837.989,1379.15 830.822,1374.32 825,1367.5C 820.416,1360.67 816.083,1353.67 812,1346.5C 809.391,1340.07 807.725,1333.4 807,1326.5C 803.829,1317.16 799.829,1308.16 795,1299.5C 791.642,1295.24 787.475,1292.07 782.5,1290C 772.4,1286.25 762.067,1283.25 751.5,1281C 736.632,1274.46 726.132,1263.63 720,1248.5C 716.514,1237.19 711.181,1226.86 704,1217.5C 696.072,1207.79 685.905,1202.12 673.5,1200.5 Z M 673.5,1200.5 C 672.167,1200.5 670.833,1200.5 669.5,1200.5C 671.046,1193.95 672.38,1193.95 673.5,1200.5 Z"/></g>
<g><path style="opacity:1" fill="#c23e81" d="M 1206.5,833.5 C 1215.51,833.334 1224.51,833.5 1233.5,834C 1257.09,849.254 1280.75,849.254 1304.5,834C 1324.18,834.26 1343.85,835.26 1363.5,837C 1389.92,840.792 1416.25,845.126 1442.5,850C 1454.26,852.918 1465.26,857.585 1475.5,864C 1481.55,869.053 1487.89,873.719 1494.5,878C 1529.08,910.739 1555.08,949.239 1572.5,993.5C 1564.43,992.134 1557.43,988.634 1551.5,983C 1534.42,964.931 1519.26,945.431 1506,924.5C 1495.54,912.524 1483.04,903.357 1468.5,897C 1442.06,888.778 1415.06,883.112 1387.5,880C 1337.67,873.904 1287.67,871.237 1237.5,872C 1209.51,874.407 1181.51,876.74 1153.5,879C 1124.55,882.324 1096.21,888.324 1068.5,897C 1053.96,903.357 1041.46,912.524 1031,924.5C 1017.74,945.431 1002.58,964.931 985.5,983C 979.572,988.631 972.572,992.131 964.5,993.5C 981.92,949.239 1007.92,910.739 1042.5,878C 1053.7,869.15 1065.7,861.483 1078.5,855C 1084.64,852.397 1090.98,850.397 1097.5,849C 1115.49,846.002 1133.49,843.002 1151.5,840C 1169.96,837.635 1188.3,835.468 1206.5,833.5 Z"/></g>
<g><path style="opacity:1" fill="#fefefe" d="M 1446.5,1323.5 C 1417.93,1333.14 1389.26,1342.48 1360.5,1351.5C 1366.8,1334.94 1365.64,1318.94 1357,1303.5C 1353.7,1299.37 1349.87,1295.87 1345.5,1293C 1334.62,1289.06 1323.45,1286.23 1312,1284.5C 1289.89,1284.59 1267.72,1284.59 1245.5,1284.5C 1245.5,1314.17 1245.5,1343.83 1245.5,1373.5C 1217.82,1366.72 1191.16,1357.39 1165.5,1345.5C 1166.66,1286.57 1166.83,1227.57 1166,1168.5C 1165.33,1165.17 1164.67,1161.83 1164,1158.5C 1162.38,1151.57 1158.55,1146.4 1152.5,1143C 1140.54,1138.81 1128.21,1136.48 1115.5,1136C 1114.67,1135.17 1113.83,1134.33 1113,1133.5C 1111.38,1122.26 1111.04,1110.93 1112,1099.5C 1112.83,1098.67 1113.67,1097.83 1114.5,1097C 1143.84,1096.83 1173.17,1096.33 1202.5,1095.5C 1203.14,1094.35 1203.98,1093.35 1205,1092.5C 1205.33,1072.17 1205.67,1051.83 1206,1031.5C 1206.83,1030.67 1207.67,1029.83 1208.5,1029C 1219.86,1027.47 1231.2,1027.47 1242.5,1029C 1243.93,1029.47 1245.1,1030.3 1246,1031.5C 1247.44,1053.12 1247.94,1074.79 1247.5,1096.5C 1258.83,1096.5 1270.17,1096.5 1281.5,1096.5C 1281.81,1076.14 1281.48,1055.81 1280.5,1035.5C 1281.89,1028.92 1285.56,1027.09 1291.5,1030C 1300.83,1030.33 1310.17,1030.67 1319.5,1031C 1321.29,1031.78 1322.79,1032.95 1324,1034.5C 1324.5,1055.16 1324.67,1075.83 1324.5,1096.5C 1333.84,1096.33 1343.17,1096.5 1352.5,1097C 1371.38,1101.44 1388.05,1110.11 1402.5,1123C 1414.46,1133.09 1421.63,1145.92 1424,1161.5C 1429.34,1195.84 1417.51,1222.34 1388.5,1241C 1398.68,1246.59 1408.35,1252.92 1417.5,1260C 1434.89,1277.61 1444.55,1298.77 1446.5,1323.5 Z"/></g>
<g><path style="opacity:1" fill="#efaf43" d="M 1246.5,1145.5 C 1266.5,1145.33 1286.5,1145.5 1306.5,1146C 1319.68,1149.2 1330.84,1155.7 1340,1165.5C 1350.97,1187.43 1347.14,1206.27 1328.5,1222C 1315.4,1228.22 1302.06,1233.88 1288.5,1239C 1274.5,1239.5 1260.5,1239.67 1246.5,1239.5C 1246.5,1208.17 1246.5,1176.83 1246.5,1145.5 Z"/></g>
<g><path style="opacity:1" fill="#2e91e4" d="M 1973.5,1391.5 C 1962.74,1392.28 1952.08,1393.78 1941.5,1396C 1931.28,1399.78 1921.61,1404.61 1912.5,1410.5C 1894.07,1390.95 1877.57,1369.95 1863,1347.5C 1857.71,1323.33 1850.71,1299.66 1842,1276.5C 1840.27,1266.6 1837.77,1256.93 1834.5,1247.5C 1853.93,1241.56 1866.1,1228.56 1871,1208.5C 1876.01,1223.57 1880.01,1238.9 1883,1254.5C 1893.46,1286.01 1903.46,1317.68 1913,1349.5C 1924.92,1356.21 1936.09,1364.05 1946.5,1373C 1955.57,1379.19 1964.57,1385.36 1973.5,1391.5 Z"/></g>
<g><path style="opacity:1" fill="#2e91e4" d="M 704.5,1242.5 C 700.114,1253.36 696.948,1264.69 695,1276.5C 686.293,1299.66 679.293,1323.33 674,1347.5C 659.429,1369.95 642.929,1390.95 624.5,1410.5C 608.229,1399.37 590.229,1393.37 570.5,1392.5C 586.967,1381.42 602.967,1369.59 618.5,1357C 622.629,1353.85 627.129,1351.35 632,1349.5C 641.538,1317.68 651.538,1286.01 662,1254.5C 664.826,1241.04 668.159,1227.7 672,1214.5C 682.618,1213.39 690.952,1217.39 697,1226.5C 699.768,1231.7 702.268,1237.04 704.5,1242.5 Z"/></g>
<g><path style="opacity:1" fill="#fcc917" d="M 704.5,1242.5 C 708.146,1246.8 710.48,1251.8 711.5,1257.5C 708.861,1264.16 707.027,1271.16 706,1278.5C 696.859,1301.87 689.859,1325.87 685,1350.5C 670.348,1374.12 653.515,1396.12 634.5,1416.5C 642.486,1423.99 650.319,1431.65 658,1439.5C 663.427,1447.25 668.427,1455.25 673,1463.5C 697.787,1428.65 716.454,1390.65 729,1349.5C 734.839,1330.13 740.339,1310.8 745.5,1291.5C 748.823,1292.49 752.156,1293.49 755.5,1294.5C 744.469,1344.89 726.969,1392.89 703,1438.5C 695.083,1451.34 686.916,1464 678.5,1476.5C 689.044,1500.76 695.211,1526.1 697,1552.5C 715.029,1526.11 731.029,1498.44 745,1469.5C 751.549,1450.42 757.215,1431.09 762,1411.5C 765.3,1396.34 767.3,1381 768,1365.5C 768.842,1361.13 769.842,1356.8 771,1352.5C 771.383,1351.94 771.883,1351.61 772.5,1351.5C 775.831,1356.14 777.831,1361.47 778.5,1367.5C 778.455,1381.32 776.955,1394.98 774,1408.5C 767.443,1441.74 756.443,1473.4 741,1503.5C 726.083,1527 711.416,1550.67 697,1574.5C 695.041,1590.1 694.208,1605.77 694.5,1621.5C 682.612,1640.23 670.112,1658.56 657,1676.5C 651.888,1683.29 645.388,1688.12 637.5,1691C 628.465,1693.6 621.299,1691.1 616,1683.5C 610.503,1675.5 606.336,1666.84 603.5,1657.5C 606.77,1655.73 609.603,1653.4 612,1650.5C 613.184,1658.05 615.184,1665.39 618,1672.5C 622.228,1677.09 627.394,1678.59 633.5,1677C 641.891,1673.9 648.057,1668.4 652,1660.5C 654.462,1654.32 656.462,1647.99 658,1641.5C 657.415,1621.14 656.081,1600.81 654,1580.5C 650.944,1563.61 648.611,1546.61 647,1529.5C 644.286,1505.75 635.286,1484.75 620,1466.5C 601.492,1447.67 578.992,1437.67 552.5,1436.5C 539.408,1437.58 527.575,1441.92 517,1449.5C 516.233,1445.41 516.566,1441.41 518,1437.5C 520.305,1433.7 522.805,1430.03 525.5,1426.5C 539.403,1413.58 554.403,1402.25 570.5,1392.5C 590.229,1393.37 608.229,1399.37 624.5,1410.5C 642.929,1390.95 659.429,1369.95 674,1347.5C 679.293,1323.33 686.293,1299.66 695,1276.5C 696.948,1264.69 700.114,1253.36 704.5,1242.5 Z"/></g>
<g><path style="opacity:1" fill="#fcc916" d="M 1834.5,1247.5 C 1837.77,1256.93 1840.27,1266.6 1842,1276.5C 1850.71,1299.66 1857.71,1323.33 1863,1347.5C 1877.57,1369.95 1894.07,1390.95 1912.5,1410.5C 1921.61,1404.61 1931.28,1399.78 1941.5,1396C 1952.08,1393.78 1962.74,1392.28 1973.5,1391.5C 1990.94,1402.43 2007.1,1415.09 2022,1429.5C 2027.23,1435.2 2029.23,1441.86 2028,1449.5C 2013.39,1439.2 1997.22,1435.37 1979.5,1438C 1943.35,1444.67 1918.52,1465.17 1905,1499.5C 1901.73,1509.28 1899.39,1519.28 1898,1529.5C 1896.39,1546.61 1894.06,1563.61 1891,1580.5C 1888.92,1600.81 1887.59,1621.14 1887,1641.5C 1889.11,1651.19 1892.78,1660.19 1898,1668.5C 1904.1,1675.09 1911.6,1677.92 1920.5,1677C 1922.75,1675.62 1924.92,1674.12 1927,1672.5C 1929.82,1665.39 1931.82,1658.05 1933,1650.5C 1935.4,1653.41 1938.24,1655.74 1941.5,1657.5C 1938.66,1666.84 1934.5,1675.5 1929,1683.5C 1919.33,1693.24 1908.83,1694.08 1897.5,1686C 1888.5,1676.81 1880.33,1666.98 1873,1656.5C 1862.19,1640.87 1852.02,1624.87 1842.5,1608.5C 1841.9,1597.16 1841.07,1585.82 1840,1574.5C 1825.58,1550.67 1810.92,1527 1796,1503.5C 1786.12,1485.74 1778.45,1467.07 1773,1447.5C 1768.81,1432.13 1764.98,1416.79 1761.5,1401.5C 1761.33,1393.16 1761.5,1384.83 1762,1376.5C 1763.7,1371.19 1765.87,1366.19 1768.5,1361.5C 1770.95,1398.65 1778.79,1434.65 1792,1469.5C 1805.97,1498.44 1821.97,1526.11 1840,1552.5C 1841.79,1526.1 1847.96,1500.76 1858.5,1476.5C 1833.46,1440.76 1813.96,1402.09 1800,1360.5C 1794.52,1343.23 1789.35,1325.9 1784.5,1308.5C 1786.81,1299.35 1787.81,1290.02 1787.5,1280.5C 1788.79,1281.29 1789.96,1282.29 1791,1283.5C 1801.32,1336.13 1818.99,1386.13 1844,1433.5C 1850.17,1443.84 1856.84,1453.84 1864,1463.5C 1868.57,1455.25 1873.57,1447.25 1879,1439.5C 1886.68,1431.65 1894.51,1423.99 1902.5,1416.5C 1883.48,1396.12 1866.65,1374.12 1852,1350.5C 1847.14,1325.87 1840.14,1301.87 1831,1278.5C 1829.4,1269 1827.24,1259.67 1824.5,1250.5C 1827.77,1249.25 1831.1,1248.25 1834.5,1247.5 Z"/></g>
<g><path style="opacity:1" fill="#3092e4" d="M 1824.5,1250.5 C 1827.24,1259.67 1829.4,1269 1831,1278.5C 1840.14,1301.87 1847.14,1325.87 1852,1350.5C 1866.65,1374.12 1883.48,1396.12 1902.5,1416.5C 1894.51,1423.99 1886.68,1431.65 1879,1439.5C 1873.57,1447.25 1868.57,1455.25 1864,1463.5C 1856.84,1453.84 1850.17,1443.84 1844,1433.5C 1818.99,1386.13 1801.32,1336.13 1791,1283.5C 1789.96,1282.29 1788.79,1281.29 1787.5,1280.5C 1789.42,1266.49 1797.08,1257.32 1810.5,1253C 1815.16,1252.06 1819.83,1251.22 1824.5,1250.5 Z"/></g>
<g><path style="opacity:1" fill="#3092e4" d="M 711.5,1257.5 C 719.192,1272.53 730.525,1283.86 745.5,1291.5C 740.339,1310.8 734.839,1330.13 729,1349.5C 716.454,1390.65 697.787,1428.65 673,1463.5C 668.427,1455.25 663.427,1447.25 658,1439.5C 650.319,1431.65 642.486,1423.99 634.5,1416.5C 653.515,1396.12 670.348,1374.12 685,1350.5C 689.859,1325.87 696.859,1301.87 706,1278.5C 707.027,1271.16 708.861,1264.16 711.5,1257.5 Z"/></g>
<g><path style="opacity:1" fill="#e697ba" d="M 880.5,1263.5 C 949.774,1284.09 1018.44,1306.59 1086.5,1331C 1094.7,1333.8 1103.04,1336.13 1111.5,1338C 1145.49,1350.66 1179.49,1363.33 1213.5,1376C 1231.85,1381.71 1250.35,1386.88 1269,1391.5C 1290.28,1384.96 1311.45,1377.8 1332.5,1370C 1341.88,1367.87 1351.22,1365.54 1360.5,1363C 1424.61,1342.07 1488.61,1320.74 1552.5,1299C 1560.21,1297.16 1567.88,1295.16 1575.5,1293C 1605.2,1282.71 1634.86,1273.21 1664.5,1264.5C 1662.73,1267.71 1661.23,1271.05 1660,1274.5C 1649.47,1295.75 1639.14,1317.08 1629,1338.5C 1605.83,1376.84 1582.17,1414.84 1558,1452.5C 1548.38,1465.12 1538.38,1477.46 1528,1489.5C 1526.99,1491.02 1526.49,1492.69 1526.5,1494.5C 1512.46,1497.21 1498.46,1499.71 1484.5,1502C 1496.77,1485.86 1503.94,1467.69 1506,1447.5C 1502.83,1442.59 1499.16,1442.25 1495,1446.5C 1492.42,1469.15 1483.26,1488.65 1467.5,1505C 1459.88,1506.91 1452.22,1507.41 1444.5,1506.5C 1445.82,1493.18 1445.66,1479.85 1444,1466.5C 1438.49,1460.67 1434.66,1461.67 1432.5,1469.5C 1434.5,1481.08 1435,1492.75 1434,1504.5C 1433.6,1505.87 1433.1,1507.21 1432.5,1508.5C 1386.83,1510.75 1341.16,1512.75 1295.5,1514.5C 1278.33,1513.28 1261.16,1513.28 1244,1514.5C 1205.86,1512.76 1167.69,1511.26 1129.5,1510C 1120.81,1497.59 1116.31,1483.76 1116,1468.5C 1112.67,1464.5 1109.33,1464.5 1106,1468.5C 1105.33,1472.83 1105.33,1477.17 1106,1481.5C 1107.94,1490.82 1110.77,1499.82 1114.5,1508.5C 1102.44,1508.54 1090.44,1507.71 1078.5,1506C 1058.42,1502.49 1038.42,1498.65 1018.5,1494.5C 1018.51,1492.69 1018.01,1491.02 1017,1489.5C 1006.57,1477.42 996.573,1465.08 987,1452.5C 962.833,1414.84 939.166,1376.84 916,1338.5C 904.701,1313.24 892.868,1288.24 880.5,1263.5 Z"/></g>
<g><path style="opacity:1" fill="#eeae42" d="M 1360.5,1351.5 C 1330.02,1359.05 1300.18,1368.72 1271,1380.5C 1262.65,1377.6 1254.15,1375.26 1245.5,1373.5C 1245.5,1343.83 1245.5,1314.17 1245.5,1284.5C 1267.72,1284.59 1289.89,1284.59 1312,1284.5C 1323.45,1286.23 1334.62,1289.06 1345.5,1293C 1349.87,1295.87 1353.7,1299.37 1357,1303.5C 1365.64,1318.94 1366.8,1334.94 1360.5,1351.5 Z"/></g>
<g><path style="opacity:1" fill="#2e91e5" d="M 755.5,1294.5 C 768.435,1294.42 779.268,1299.09 788,1308.5C 793.4,1325.7 799.4,1342.7 806,1359.5C 813.5,1372.33 823.667,1382.5 836.5,1390C 839.5,1391 842.5,1392 845.5,1393C 859.072,1395.48 872.405,1398.64 885.5,1402.5C 897.386,1437.99 910.553,1472.99 925,1507.5C 925.667,1510.17 925.667,1512.83 925,1515.5C 893.553,1555 866.887,1597.66 845,1643.5C 824.964,1693.61 807.297,1744.61 792,1796.5C 786.955,1823.16 780.622,1849.49 773,1875.5C 769.66,1899.55 765.994,1923.55 762,1947.5C 759.333,1984.16 756.667,2020.83 754,2057.5C 752.382,2114.22 749.882,2170.88 746.5,2227.5C 697.308,2201.65 652.808,2169.32 613,2130.5C 600.935,2117.85 596.602,2102.85 600,2085.5C 604.631,2047.68 610.298,2010.01 617,1972.5C 627.112,1937.48 636.445,1902.14 645,1866.5C 649.226,1857.16 652.226,1847.49 654,1837.5C 665.047,1799.35 679.047,1762.35 696,1726.5C 712.71,1695.05 729.043,1663.38 745,1631.5C 762.749,1602.33 780.749,1573.33 799,1544.5C 812.333,1527.83 825.667,1511.17 839,1494.5C 841.852,1490.8 844.185,1486.8 846,1482.5C 846.755,1479.7 846.422,1477.03 845,1474.5C 817.645,1432.12 796.478,1386.79 781.5,1338.5C 778.005,1335.63 774.838,1335.97 772,1339.5C 771.458,1342.8 771.958,1345.96 773.5,1349C 773.257,1349.9 772.923,1350.74 772.5,1351.5C 771.883,1351.61 771.383,1351.94 771,1352.5C 769.842,1356.8 768.842,1361.13 768,1365.5C 767.3,1381 765.3,1396.34 762,1411.5C 757.215,1431.09 751.549,1450.42 745,1469.5C 731.029,1498.44 715.029,1526.11 697,1552.5C 695.211,1526.1 689.044,1500.76 678.5,1476.5C 686.916,1464 695.083,1451.34 703,1438.5C 726.969,1392.89 744.469,1344.89 755.5,1294.5 Z"/></g>
<g><path style="opacity:1" fill="#2e91e5" d="M 1784.5,1308.5 C 1789.35,1325.9 1794.52,1343.23 1800,1360.5C 1813.96,1402.09 1833.46,1440.76 1858.5,1476.5C 1847.96,1500.76 1841.79,1526.1 1840,1552.5C 1821.97,1526.11 1805.97,1498.44 1792,1469.5C 1778.79,1434.65 1770.95,1398.65 1768.5,1361.5C 1769.68,1355.77 1771.18,1350.1 1773,1344.5C 1773.31,1336.98 1770.14,1334.98 1763.5,1338.5C 1748.52,1386.79 1727.36,1432.12 1700,1474.5C 1698.58,1477.03 1698.25,1479.7 1699,1482.5C 1700.81,1486.8 1703.15,1490.8 1706,1494.5C 1719.33,1511.17 1732.67,1527.83 1746,1544.5C 1764.25,1573.33 1782.25,1602.33 1800,1631.5C 1815.96,1663.38 1832.29,1695.05 1849,1726.5C 1865.95,1762.35 1879.95,1799.35 1891,1837.5C 1892.77,1847.49 1895.77,1857.16 1900,1866.5C 1906.59,1895.21 1914.26,1923.55 1923,1951.5C 1933.52,1999.02 1941.02,2047.02 1945.5,2095.5C 1946.21,2104.91 1944.04,2113.58 1939,2121.5C 1931.9,2130.6 1924.07,2139.1 1915.5,2147C 1891.4,2166.43 1866.73,2185.1 1841.5,2203C 1827.49,2211.67 1813.16,2219.84 1798.5,2227.5C 1795.12,2170.88 1792.62,2114.22 1791,2057.5C 1788.33,2020.83 1785.67,1984.16 1783,1947.5C 1779.01,1923.55 1775.34,1899.55 1772,1875.5C 1764.38,1849.49 1758.05,1823.16 1753,1796.5C 1737.7,1744.61 1720.04,1693.61 1700,1643.5C 1678.11,1597.66 1651.45,1555 1620,1515.5C 1619.33,1512.83 1619.33,1510.17 1620,1507.5C 1631.5,1481 1641.83,1454 1651,1426.5C 1651.5,1424.19 1651.66,1421.86 1651.5,1419.5C 1676.31,1418.85 1692.81,1406.85 1701,1383.5C 1703.33,1374.5 1705.67,1365.5 1708,1356.5C 1712.82,1349.21 1719.65,1345.04 1728.5,1344C 1742.02,1342.72 1754.68,1338.72 1766.5,1332C 1769.3,1330.21 1771.8,1328.04 1774,1325.5C 1778.03,1320.1 1781.53,1314.44 1784.5,1308.5 Z"/></g>
<g><path style="opacity:1" fill="#3191e2" d="M 778.5,1367.5 C 780.453,1370.14 781.953,1373.14 783,1376.5C 783.353,1410.68 779.353,1444.34 771,1477.5C 767.504,1488.83 763.171,1499.83 758,1510.5C 737.802,1548.16 716.635,1585.16 694.5,1621.5C 694.208,1605.77 695.041,1590.1 697,1574.5C 711.416,1550.67 726.083,1527 741,1503.5C 756.443,1473.4 767.443,1441.74 774,1408.5C 776.955,1394.98 778.455,1381.32 778.5,1367.5 Z"/></g>
<g><path style="opacity:1" fill="#c19d1a" d="M 792.5,1415.5 C 794.284,1416.57 795.451,1418.24 796,1420.5C 803.677,1444.2 813.677,1466.86 826,1488.5C 826.387,1492.17 824.887,1495 821.5,1497C 801.749,1502.71 783.083,1510.88 765.5,1521.5C 781.303,1488.33 790.303,1453 792.5,1415.5 Z"/></g>
<g><path style="opacity:1" fill="#3390e0" d="M 1761.5,1401.5 C 1764.98,1416.79 1768.81,1432.13 1773,1447.5C 1778.45,1467.07 1786.12,1485.74 1796,1503.5C 1810.92,1527 1825.58,1550.67 1840,1574.5C 1841.07,1585.82 1841.9,1597.16 1842.5,1608.5C 1819.54,1570.92 1798.37,1532.26 1779,1492.5C 1776.33,1483.82 1773.66,1475.16 1771,1466.5C 1766.93,1444.96 1763.77,1423.3 1761.5,1401.5 Z"/></g>
<g><path style="opacity:1" fill="#fdc912" d="M 1638.5,1421.5 C 1639.5,1421.47 1640.16,1421.97 1640.5,1423C 1630.64,1452.22 1619.81,1481.05 1608,1509.5C 1607.33,1511.83 1607.33,1514.17 1608,1516.5C 1618.33,1530.83 1628.67,1545.17 1639,1559.5C 1659.8,1589.41 1677.8,1621.08 1693,1654.5C 1697.27,1669.28 1702.61,1683.62 1709,1697.5C 1716.8,1720.56 1724.8,1743.56 1733,1766.5C 1742.66,1804.83 1752.33,1843.16 1762,1881.5C 1766.01,1910.85 1770.01,1940.19 1774,1969.5C 1780.18,2053.39 1784.35,2137.39 1786.5,2221.5C 1786.17,2226.17 1785.83,2230.83 1785.5,2235.5C 1765.17,2247.33 1744.83,2259.17 1724.5,2271C 1720.4,2273.2 1716.07,2274.7 1711.5,2275.5C 1710.69,2243.48 1709.53,2211.48 1708,2179.5C 1705.55,2133.8 1702.55,2088.13 1699,2042.5C 1695.59,2020.96 1693.25,1999.29 1692,1977.5C 1686.35,1940.92 1681.35,1904.25 1677,1867.5C 1663.14,1814.24 1649.47,1760.91 1636,1707.5C 1629.51,1684.87 1622.18,1662.53 1614,1640.5C 1612.85,1639.26 1611.51,1638.26 1610,1637.5C 1605.54,1625.91 1600.54,1614.58 1595,1603.5C 1576.49,1570.49 1558.49,1537.15 1541,1503.5C 1540.67,1500.51 1539.84,1497.68 1538.5,1495C 1544.59,1486.84 1550.92,1478.84 1557.5,1471C 1568.18,1469.68 1578.85,1469.02 1589.5,1469C 1600.34,1465.83 1608.5,1459.33 1614,1449.5C 1618.79,1441.41 1623.96,1433.58 1629.5,1426C 1632.59,1424.45 1635.59,1422.95 1638.5,1421.5 Z"/></g>
<g><path style="opacity:1" fill="#c19d1a" d="M 1752.5,1425.5 C 1755.77,1443.09 1759.27,1460.75 1763,1478.5C 1767.6,1493.62 1773.1,1507.95 1779.5,1521.5C 1761.82,1511.11 1743.15,1502.94 1723.5,1497C 1721.65,1495.32 1719.98,1493.48 1718.5,1491.5C 1730.39,1469.73 1741.72,1447.73 1752.5,1425.5 Z"/></g>
<g><path style="opacity:1" fill="#fdc912" d="M 907.5,1431.5 C 912.772,1438.47 918.438,1445.3 924.5,1452C 935.522,1460.12 947.856,1465.12 961.5,1467C 969.521,1467.17 977.521,1467.67 985.5,1468.5C 992.704,1477.2 999.704,1486.03 1006.5,1495C 1002.99,1505.52 998.492,1515.69 993,1525.5C 979.189,1551.79 964.855,1577.79 950,1603.5C 944.462,1614.58 939.462,1625.91 935,1637.5C 933.488,1638.26 932.154,1639.26 931,1640.5C 922.821,1662.53 915.488,1684.87 909,1707.5C 895.527,1760.91 881.861,1814.24 868,1867.5C 863.651,1904.25 858.651,1940.92 853,1977.5C 851.747,1999.29 849.413,2020.96 846,2042.5C 842.453,2088.13 839.453,2133.8 837,2179.5C 835.14,2211.47 834.307,2243.47 834.5,2275.5C 829.457,2275.19 824.79,2273.69 820.5,2271C 800.167,2259.17 779.833,2247.33 759.5,2235.5C 759.167,2230.83 758.833,2226.17 758.5,2221.5C 760.65,2137.39 764.817,2053.39 771,1969.5C 774.987,1940.19 778.987,1910.86 783,1881.5C 792.669,1843.16 802.336,1804.83 812,1766.5C 820.201,1743.56 828.201,1720.56 836,1697.5C 842.394,1683.62 847.727,1669.28 852,1654.5C 867.203,1621.08 885.203,1589.41 906,1559.5C 916.333,1545.17 926.667,1530.83 937,1516.5C 937.483,1510.93 936.483,1505.6 934,1500.5C 924.081,1477.91 915.247,1454.91 907.5,1431.5 Z"/></g>
<g><path style="opacity:1" fill="#fdfdfd" d="M 549.5,1447.5 C 593.086,1450.21 620.919,1472.54 633,1514.5C 634.503,1523.67 636.003,1532.84 637.5,1542C 631.166,1569.49 623.333,1596.65 614,1623.5C 610.545,1632.25 605.712,1640.09 599.5,1647C 594.403,1650.57 588.903,1651.07 583,1648.5C 581.494,1643.25 581.161,1637.92 582,1632.5C 584.332,1621.5 586.666,1610.5 589,1599.5C 591.326,1588.39 590.993,1577.39 588,1566.5C 584.319,1557.91 577.819,1554.41 568.5,1556C 557.549,1563.29 549.049,1572.79 543,1584.5C 538.138,1595.42 533.472,1606.42 529,1617.5C 523.364,1628.77 517.698,1640.1 512,1651.5C 509.5,1655.33 506.333,1658.5 502.5,1661C 498.961,1662.5 495.295,1662.84 491.5,1662C 488.142,1655.43 487.642,1648.59 490,1641.5C 497.584,1615.43 507.918,1590.43 521,1566.5C 521.812,1560 518.979,1557.83 512.5,1560C 499.1,1583.31 488.266,1607.81 480,1633.5C 477.202,1643.83 476.868,1654.17 479,1664.5C 475.759,1669.41 471.593,1673.24 466.5,1676C 463.833,1676.67 461.167,1676.67 458.5,1676C 455.433,1672.7 453.267,1668.87 452,1664.5C 450.785,1650.99 451.785,1637.66 455,1624.5C 462.656,1600.35 472.156,1577.02 483.5,1554.5C 481.767,1548.55 478.267,1547.22 473,1550.5C 471.491,1554.19 469.491,1557.53 467,1560.5C 460.456,1556.15 453.289,1553.31 445.5,1552C 459.233,1527.36 475.066,1504.19 493,1482.5C 505.313,1468.83 519.813,1458.33 536.5,1451C 541.042,1450.13 545.375,1448.97 549.5,1447.5 Z"/></g>
<g><path style="opacity:1" fill="#fdfdfd" d="M 1985.5,1447.5 C 1994.02,1447.84 2002.35,1449.34 2010.5,1452C 2019.98,1456.61 2028.98,1461.94 2037.5,1468C 2045.7,1475.86 2053.53,1484.03 2061,1492.5C 2072.73,1509.23 2084.06,1526.23 2095,1543.5C 2110.43,1569.78 2118.09,1598.11 2118,1628.5C 2117.58,1637.69 2112.75,1641.36 2103.5,1639.5C 2102.15,1627.11 2099.15,1615.11 2094.5,1603.5C 2101.37,1599.27 2104.37,1593.1 2103.5,1585C 2100.21,1559.52 2085.88,1548.85 2060.5,1553C 2053.63,1555.35 2047.47,1558.85 2042,1563.5C 2024.65,1557.81 2009.49,1561.47 1996.5,1574.5C 1990.94,1567.77 1984.61,1561.94 1977.5,1557C 1965.96,1553.52 1958.79,1557.69 1956,1569.5C 1954.12,1579.49 1954.12,1589.49 1956,1599.5C 1958.33,1610.5 1960.67,1621.5 1963,1632.5C 1963.97,1638.19 1963.47,1643.69 1961.5,1649C 1955.66,1651.22 1950.33,1650.56 1945.5,1647C 1939.29,1640.09 1934.45,1632.25 1931,1623.5C 1921.67,1596.65 1913.83,1569.49 1907.5,1542C 1909,1532.84 1910.5,1523.67 1912,1514.5C 1922.36,1476.44 1946.86,1454.11 1985.5,1447.5 Z"/></g>
<g><path style="opacity:1" fill="#030509" d="M 877.5,1456.5 C 880.365,1456.05 882.865,1456.72 885,1458.5C 885.379,1473.68 889.046,1488.02 896,1501.5C 900.763,1505.31 906.263,1507.14 912.5,1507C 917.407,1513.07 915.907,1516.57 908,1517.5C 903.546,1517.01 899.213,1516.01 895,1514.5C 877.702,1523.79 863.535,1536.63 852.5,1553C 845.735,1555.24 842.902,1552.74 844,1545.5C 854.167,1531.33 866.333,1519.17 880.5,1509C 872.712,1505.61 865.045,1501.94 857.5,1498C 851.684,1492.92 852.35,1489.09 859.5,1486.5C 866.708,1490.02 873.875,1493.69 881,1497.5C 878.761,1489.66 876.761,1481.66 875,1473.5C 874.333,1468.83 874.333,1464.17 875,1459.5C 875.698,1458.31 876.531,1457.31 877.5,1456.5 Z"/></g>
<g><path style="opacity:1" fill="#020408" d="M 1664.5,1455.5 C 1669.46,1454.32 1672.46,1456.15 1673.5,1461C 1670.81,1472.71 1666.47,1483.71 1660.5,1494C 1669.56,1491.14 1678.23,1487.14 1686.5,1482C 1693.97,1479.49 1697.14,1481.99 1696,1489.5C 1681.34,1498.08 1665.84,1504.91 1649.5,1510C 1643.17,1511.33 1640.33,1508.83 1641,1502.5C 1644.67,1497.5 1648.33,1492.5 1652,1487.5C 1657.08,1477.09 1661.24,1466.42 1664.5,1455.5 Z"/></g>
<g><path style="opacity:1" fill="#c6a11a" d="M 964.5,1476.5 C 966.989,1476.3 969.323,1476.8 971.5,1478C 975.49,1482.83 978.823,1488 981.5,1493.5C 979.029,1499.12 976.529,1504.78 974,1510.5C 973.447,1524.25 972.114,1537.91 970,1551.5C 969.296,1555.63 967.463,1559.13 964.5,1562C 953.039,1572.29 940.373,1580.79 926.5,1587.5C 923.959,1593.28 920.459,1598.28 916,1602.5C 912.588,1609.66 908.922,1616.66 905,1623.5C 904.667,1641.17 904.333,1658.83 904,1676.5C 903.333,1677.83 902.667,1679.17 902,1680.5C 889.299,1691.53 877.632,1703.53 867,1716.5C 862.539,1729.13 858.706,1741.96 855.5,1755C 858.959,1771.17 863.959,1786.84 870.5,1802C 864.329,1815.18 856.162,1827.01 846,1837.5C 841.42,1843.66 837.086,1849.99 833,1856.5C 829.82,1871.08 826.653,1885.58 823.5,1900C 830.087,1920.93 835.754,1942.09 840.5,1963.5C 840.196,1967.11 839.029,1970.45 837,1973.5C 827.75,1987.66 818.75,2002 810,2016.5C 807.512,2029.07 806.178,2041.74 806,2054.5C 813.333,2069.83 820.667,2085.17 828,2100.5C 828.667,2103.5 828.667,2106.5 828,2109.5C 819.084,2124.33 809.917,2139 800.5,2153.5C 801.964,2155.99 801.797,2158.33 800,2160.5C 798.786,2176.15 798.453,2191.82 799,2207.5C 802.576,2221.23 807.91,2234.23 815,2246.5C 815.667,2249.17 815.667,2251.83 815,2254.5C 808.638,2259.47 804.971,2257.8 804,2249.5C 798.947,2239.67 794.28,2229.67 790,2219.5C 786.871,2224.93 783.371,2230.09 779.5,2235C 774.439,2237.79 771.439,2236.29 770.5,2230.5C 775.483,2221.2 780.983,2212.2 787,2203.5C 787.301,2189.3 788.135,2175.13 789.5,2161C 789.333,2158.5 789.167,2156 789,2153.5C 782.74,2138.39 777.073,2123.05 772,2107.5C 771.333,2104.17 771.333,2100.83 772,2097.5C 778.763,2082.2 786.096,2067.2 794,2052.5C 794.91,2038.87 796.743,2025.37 799.5,2012C 795.682,1992.24 790.849,1972.74 785,1953.5C 783.393,1948.16 784.726,1943.83 789,1940.5C 797.447,1923.27 806.114,1906.27 815,1889.5C 817.32,1877.89 819.154,1866.23 820.5,1854.5C 819.437,1841.45 817.937,1828.45 816,1815.5C 815.333,1808.5 815.333,1801.5 816,1794.5C 828.709,1777.76 839.375,1759.76 848,1740.5C 851.055,1730.11 853.555,1719.61 855.5,1709C 854.59,1698.49 853.59,1687.99 852.5,1677.5C 853.277,1666.29 858.444,1657.62 868,1651.5C 876.624,1640.54 885.624,1629.87 895,1619.5C 901.162,1607.84 907.829,1596.5 915,1585.5C 916.667,1581.17 918.333,1576.83 920,1572.5C 921.539,1561.81 923.206,1551.14 925,1540.5C 938.272,1527.55 951.772,1515.05 965.5,1503C 966.697,1500.11 968.03,1497.27 969.5,1494.5C 967.243,1490.99 964.743,1487.65 962,1484.5C 961.018,1481.23 961.851,1478.56 964.5,1476.5 Z"/></g>
<g><path style="opacity:1" fill="#c6a11a" d="M 1574.5,1476.5 C 1578.96,1475.8 1581.63,1477.64 1582.5,1482C 1579.98,1486.19 1577.32,1490.36 1574.5,1494.5C 1576.5,1500.04 1579.5,1504.87 1583.5,1509C 1587.11,1510.94 1590.44,1513.28 1593.5,1516C 1601.9,1524.28 1610.4,1532.45 1619,1540.5C 1620.79,1551.14 1622.46,1561.81 1624,1572.5C 1625.67,1576.83 1627.33,1581.17 1629,1585.5C 1636.17,1596.5 1642.84,1607.84 1649,1619.5C 1658.38,1629.87 1667.38,1640.54 1676,1651.5C 1685.56,1657.62 1690.72,1666.29 1691.5,1677.5C 1690.41,1687.99 1689.41,1698.49 1688.5,1709C 1691.18,1724.71 1695.68,1739.88 1702,1754.5C 1709.67,1768.52 1718.34,1781.85 1728,1794.5C 1728.67,1801.5 1728.67,1808.5 1728,1815.5C 1726.06,1828.45 1724.56,1841.45 1723.5,1854.5C 1724.85,1866.23 1726.68,1877.89 1729,1889.5C 1737.89,1906.27 1746.55,1923.27 1755,1940.5C 1758.28,1942.44 1759.78,1945.27 1759.5,1949C 1753.88,1969.83 1748.88,1990.83 1744.5,2012C 1747.26,2025.37 1749.09,2038.87 1750,2052.5C 1757.9,2067.2 1765.24,2082.2 1772,2097.5C 1771.92,2107.15 1769.92,2116.49 1766,2125.5C 1762.33,2134.83 1758.67,2144.17 1755,2153.5C 1754.83,2156 1754.67,2158.5 1754.5,2161C 1755.87,2175.13 1756.7,2189.3 1757,2203.5C 1763.02,2212.2 1768.52,2221.2 1773.5,2230.5C 1772.7,2235.07 1770.03,2236.9 1765.5,2236C 1761.28,2230.78 1757.44,2225.28 1754,2219.5C 1748.52,2232.28 1742.69,2244.78 1736.5,2257C 1730.73,2258.73 1728.06,2256.56 1728.5,2250.5C 1732.69,2239.79 1737.19,2229.12 1742,2218.5C 1743.41,2214.94 1744.41,2211.28 1745,2207.5C 1745.55,2191.82 1745.21,2176.15 1744,2160.5C 1742.2,2158.33 1742.04,2155.99 1743.5,2153.5C 1732.6,2138.13 1723.27,2121.97 1715.5,2105C 1715.67,2103.5 1715.83,2102 1716,2100.5C 1723.33,2085.17 1730.67,2069.83 1738,2054.5C 1737.82,2041.74 1736.49,2029.07 1734,2016.5C 1725.25,2002 1716.25,1987.66 1707,1973.5C 1704.97,1970.45 1703.8,1967.11 1703.5,1963.5C 1708.25,1942.09 1713.91,1920.93 1720.5,1900C 1717.35,1885.58 1714.18,1871.08 1711,1856.5C 1702.82,1843.32 1693.49,1830.98 1683,1819.5C 1678.98,1814.14 1675.81,1808.31 1673.5,1802C 1680.04,1786.84 1685.04,1771.17 1688.5,1755C 1685.29,1741.96 1681.46,1729.13 1677,1716.5C 1666.37,1703.53 1654.7,1691.53 1642,1680.5C 1641.33,1679.17 1640.67,1677.83 1640,1676.5C 1639.67,1658.83 1639.33,1641.17 1639,1623.5C 1635.08,1616.66 1631.41,1609.66 1628,1602.5C 1623.54,1598.28 1620.04,1593.28 1617.5,1587.5C 1601.53,1580.35 1587.7,1570.35 1576,1557.5C 1572.26,1542.08 1570.26,1526.42 1570,1510.5C 1567.47,1504.78 1564.97,1499.12 1562.5,1493.5C 1565.73,1487.27 1569.73,1481.6 1574.5,1476.5 Z"/></g>
<g><path style="opacity:1" fill="#fcc812" d="M 1014.5,1505.5 C 1033.5,1508.93 1052.5,1512.43 1071.5,1516C 1079.82,1517.11 1088.15,1518.11 1096.5,1519C 1208.82,1525.88 1321.15,1526.22 1433.5,1520C 1465.15,1517.29 1496.48,1512.46 1527.5,1505.5C 1528.5,1505.83 1529.5,1506.17 1530.5,1506.5C 1534.22,1515.61 1538.72,1524.27 1544,1532.5C 1544.49,1533.79 1544.66,1535.13 1544.5,1536.5C 1522.69,1543.7 1500.36,1548.87 1477.5,1552C 1414.71,1559.52 1351.71,1564.35 1288.5,1566.5C 1206.05,1566.09 1124.05,1559.92 1042.5,1548C 1028.46,1545.23 1014.8,1541.4 1001.5,1536.5C 1001.17,1535.83 1000.83,1535.17 1000.5,1534.5C 1005.96,1525.24 1010.63,1515.58 1014.5,1505.5 Z"/></g>
<g><path style="opacity:1" fill="#d5000a" d="M 808.5,1512.5 C 809.239,1512.37 809.906,1512.54 810.5,1513C 798.796,1525.37 788.629,1538.87 780,1553.5C 764.918,1578.67 749.584,1603.67 734,1628.5C 719.376,1657.71 704.376,1686.71 689,1715.5C 678.297,1740.85 667.63,1766.19 657,1791.5C 648.365,1818.43 640.032,1845.43 632,1872.5C 630.862,1861.01 628.862,1849.67 626,1838.5C 622.243,1824.64 618.41,1810.81 614.5,1797C 617.856,1786.75 619.856,1776.25 620.5,1765.5C 620.519,1753.09 617.686,1741.42 612,1730.5C 606.231,1723.37 598.731,1719.53 589.5,1719C 586.167,1718.67 582.833,1718.33 579.5,1718C 583.624,1712.92 587.124,1707.42 590,1701.5C 594.396,1696.44 599.396,1692.1 605,1688.5C 607.767,1691.27 610.6,1694.1 613.5,1697C 621.351,1702.21 630.018,1703.88 639.5,1702C 645.381,1700.39 650.714,1697.73 655.5,1694C 664.044,1684.46 672.21,1674.63 680,1664.5C 706.28,1625.62 730.28,1585.29 752,1543.5C 769.788,1531.19 788.621,1520.86 808.5,1512.5 Z"/></g>
<g><path style="opacity:1" fill="#d5000a" d="M 1734.5,1513.5 C 1734.56,1512.96 1734.89,1512.62 1735.5,1512.5C 1755.96,1520.64 1775.13,1530.98 1793,1543.5C 1814.72,1585.29 1838.72,1625.62 1865,1664.5C 1872.79,1674.63 1880.96,1684.46 1889.5,1694C 1894.06,1697.45 1899.06,1700.11 1904.5,1702C 1914.26,1703.91 1923.26,1702.24 1931.5,1697C 1934.4,1694.1 1937.23,1691.27 1940,1688.5C 1945.6,1692.1 1950.6,1696.44 1955,1701.5C 1957.88,1707.42 1961.38,1712.92 1965.5,1718C 1950.91,1716.66 1939.41,1721.83 1931,1733.5C 1922.52,1754.58 1922.35,1775.75 1930.5,1797C 1926.59,1810.81 1922.76,1824.64 1919,1838.5C 1916.14,1849.67 1914.14,1861.01 1913,1872.5C 1904.97,1845.43 1896.64,1818.43 1888,1791.5C 1877.37,1766.19 1866.7,1740.85 1856,1715.5C 1840,1684.83 1824,1654.17 1808,1623.5C 1789.75,1592.66 1770.75,1562.33 1751,1532.5C 1746.01,1525.68 1740.51,1519.35 1734.5,1513.5 Z"/></g>
<g><path style="opacity:1" fill="#fdca13" d="M 962.5,1520.5 C 963.124,1520.92 963.457,1521.58 963.5,1522.5C 961.809,1532.5 959.976,1542.5 958,1552.5C 949.904,1559.93 941.237,1566.6 932,1572.5C 932.772,1563.85 933.772,1555.19 935,1546.5C 943.76,1537.24 952.927,1528.57 962.5,1520.5 Z"/></g>
<g><path style="opacity:1" fill="#fdca13" d="M 1580.5,1520.5 C 1590.73,1528.22 1600.23,1536.89 1609,1546.5C 1609.95,1554.87 1611.12,1563.21 1612.5,1571.5C 1602.76,1566.61 1593.92,1560.28 1586,1552.5C 1583.84,1541.85 1582,1531.18 1580.5,1520.5 Z"/></g>
<g><path style="opacity:1" fill="#e697ba" d="M 994.5,1545.5 C 999.845,1547.56 1005.18,1549.73 1010.5,1552C 1019,1553.37 1027.33,1555.37 1035.5,1558C 1191.07,1582.83 1346.73,1583.17 1502.5,1559C 1518.89,1555.53 1534.89,1551.2 1550.5,1546C 1570.7,1580.57 1589.2,1616.07 1606,1652.5C 1610.67,1669.51 1616.34,1686.18 1623,1702.5C 1629.16,1725.47 1635.16,1748.47 1641,1771.5C 1641.33,1776.83 1641.67,1782.17 1642,1787.5C 1651.81,1831.03 1658.81,1875.03 1663,1919.5C 1666.72,1940.43 1670.05,1961.43 1673,1982.5C 1674.49,2027.9 1676.49,2073.23 1679,2118.5C 1679.33,2149.83 1679.67,2181.17 1680,2212.5C 1680.69,2213.03 1681.19,2213.69 1681.5,2214.5C 1669.27,2220.23 1658.27,2227.73 1648.5,2237C 1635.88,2245.71 1621.88,2249.87 1606.5,2249.5C 1583.56,2245.97 1560.89,2247.13 1538.5,2253C 1528.71,2257.73 1519.04,2262.73 1509.5,2268C 1499.01,2273.01 1488.01,2274.68 1476.5,2273C 1457.26,2269.96 1437.93,2268.63 1418.5,2269C 1411.58,2269.64 1404.91,2271.31 1398.5,2274C 1384.01,2281.61 1368.67,2286.61 1352.5,2289C 1344.83,2289.67 1337.17,2289.67 1329.5,2289C 1317.89,2286.72 1306.23,2284.72 1294.5,2283C 1284.17,2282.33 1273.83,2282.33 1263.5,2283C 1251.78,2286.13 1240.11,2289.46 1228.5,2293C 1224.54,2293.83 1220.54,2294.33 1216.5,2294.5C 1204.69,2293.13 1193.03,2290.97 1181.5,2288C 1170.15,2284.16 1159.15,2279.49 1148.5,2274C 1131.71,2267.8 1114.38,2265.8 1096.5,2268C 1082.09,2269.49 1067.76,2271.49 1053.5,2274C 1042.39,2275.22 1031.72,2273.55 1021.5,2269C 1011.92,2264.4 1002.58,2259.4 993.5,2254C 972.814,2246.58 951.48,2242.58 929.5,2242C 912.874,2239.63 896.54,2235.96 880.5,2231C 873.824,2229 868.158,2225.5 863.5,2220.5C 863.808,2219.69 864.308,2219.03 865,2218.5C 865.333,2185.17 865.667,2151.83 866,2118.5C 868.511,2073.23 870.511,2027.9 872,1982.5C 874.947,1961.43 878.28,1940.43 882,1919.5C 886.189,1875.03 893.189,1831.03 903,1787.5C 903.333,1782.17 903.667,1776.83 904,1771.5C 909.841,1748.47 915.841,1725.47 922,1702.5C 928.663,1686.18 934.329,1669.51 939,1652.5C 946.137,1636.23 953.804,1620.23 962,1604.5C 973.353,1585.13 984.187,1565.46 994.5,1545.5 Z"/></g>
<g><path style="opacity:1" fill="#fac712" d="M 2065.5,1563.5 C 2083.27,1562.44 2092.1,1570.77 2092,1588.5C 2091.58,1589.67 2090.91,1590.67 2090,1591.5C 2081.22,1580.15 2070.22,1577.15 2057,1582.5C 2053.66,1579.15 2051.99,1575.15 2052,1570.5C 2052.83,1569.67 2053.67,1568.83 2054.5,1568C 2058.31,1566.57 2061.97,1565.07 2065.5,1563.5 Z"/></g>
<g><path style="opacity:1" fill="#f8c612" d="M 433.5,1563.5 C 442.238,1562.88 450.572,1564.38 458.5,1568C 461.148,1569.63 462.481,1571.97 462.5,1575C 461.462,1578.23 460.128,1581.4 458.5,1584.5C 458.167,1584.83 457.833,1585.17 457.5,1585.5C 451.524,1581.59 445.024,1579.26 438,1578.5C 432.597,1579.09 427.431,1580.26 422.5,1582C 420.584,1576.99 421.584,1572.65 425.5,1569C 428.07,1566.91 430.737,1565.08 433.5,1563.5 Z"/></g>
<g><path style="opacity:1" fill="#f9c612" d="M 2024.5,1571.5 C 2029.45,1570.96 2034.12,1571.79 2038.5,1574C 2041.53,1577.02 2043.7,1580.52 2045,1584.5C 2045.81,1586.9 2045.65,1589.24 2044.5,1591.5C 2031.67,1585.83 2020.5,1588.17 2011,1598.5C 2008.17,1602.46 2006.01,1606.8 2004.5,1611.5C 1994.07,1599 1995.4,1587.83 2008.5,1578C 2013.56,1574.93 2018.89,1572.76 2024.5,1571.5 Z"/></g>
<g><path style="opacity:1" fill="#fcc912" d="M 2018.5,1828.5 C 2022.37,1825.3 2025.04,1821.3 2026.5,1816.5C 2033.08,1808.32 2037.25,1798.99 2039,1788.5C 2042.86,1756.14 2036.86,1725.81 2021,1697.5C 2017.41,1691.3 2013.57,1685.3 2009.5,1679.5C 2007.22,1674.22 2003.56,1670.22 1998.5,1667.5C 1998.63,1666.76 1998.46,1666.09 1998,1665.5C 1994.44,1661.75 1990.27,1659.09 1985.5,1657.5C 1982.57,1655.35 1979.57,1653.19 1976.5,1651C 1974.96,1649.89 1974.3,1648.39 1974.5,1646.5C 1974.67,1641.16 1974.5,1635.82 1974,1630.5C 1971.2,1617.52 1968.54,1604.52 1966,1591.5C 1965.05,1585.33 1965.38,1579.33 1967,1573.5C 1972.6,1576.94 1977.44,1581.27 1981.5,1586.5C 1983.06,1587.07 1984.56,1587.74 1986,1588.5C 1986.2,1601.77 1990.7,1613.27 1999.5,1623C 2002.43,1623.61 2005.26,1624.44 2008,1625.5C 2013.22,1637.61 2019.22,1649.27 2026,1660.5C 2031.81,1668.35 2039.48,1672.68 2049,1673.5C 2051.71,1673.42 2054.37,1673.09 2057,1672.5C 2060.82,1675.6 2064.32,1679.1 2067.5,1683C 2086.82,1692.43 2098.99,1686.59 2104,1665.5C 2104.5,1660.51 2104.67,1655.51 2104.5,1650.5C 2108.37,1650.64 2112.21,1650.31 2116,1649.5C 2118.59,1651.08 2120.93,1653.08 2123,1655.5C 2136.34,1674.19 2145.34,1694.86 2150,1717.5C 2152.38,1735.83 2150.05,1753.5 2143,1770.5C 2139.52,1773.72 2137.52,1777.72 2137,1782.5C 2122.43,1809.21 2099.93,1821.37 2069.5,1819C 2093.11,1798.52 2103.61,1772.69 2101,1741.5C 2097.38,1738.66 2094.05,1738.99 2091,1742.5C 2092.39,1773.55 2080.56,1798.05 2055.5,1816C 2044.13,1823.09 2031.8,1827.26 2018.5,1828.5 Z"/></g>
<g><path style="opacity:1" fill="#fcc912" d="M 571.5,1650.5 C 567.664,1652.58 563.997,1654.92 560.5,1657.5C 558.345,1657.37 556.345,1657.87 554.5,1659C 515.658,1695.52 499.825,1740.35 507,1793.5C 509.598,1804.04 514.764,1813.04 522.5,1820.5C 524.743,1821.47 527.076,1821.81 529.5,1821.5C 533.538,1824.51 537.538,1827.51 541.5,1830.5C 516.782,1831.74 495.948,1823.07 479,1804.5C 465.924,1786.94 459.424,1767.1 459.5,1745C 460.26,1740.17 460.426,1735.34 460,1730.5C 452.379,1727.17 448.712,1729.84 449,1738.5C 447.93,1759.96 452.263,1780.3 462,1799.5C 466.406,1806.58 471.572,1813.08 477.5,1819C 466.205,1821.21 455.205,1820.21 444.5,1816C 429.56,1810.05 418.06,1800.22 410,1786.5C 408.073,1783.05 406.739,1779.39 406,1775.5C 405.047,1773.54 403.713,1771.88 402,1770.5C 390.365,1739 392.365,1708.33 408,1678.5C 412.918,1671 417.584,1663.33 422,1655.5C 424.074,1653.08 426.408,1651.08 429,1649.5C 432.792,1650.31 436.625,1650.64 440.5,1650.5C 439.082,1661.91 441.749,1672.24 448.5,1681.5C 455.94,1688.14 464.273,1689.3 473.5,1685C 478.985,1681.51 483.819,1677.34 488,1672.5C 500.874,1675.24 511.207,1671.24 519,1660.5C 525.448,1649.94 531.114,1638.94 536,1627.5C 548.555,1610.61 562.889,1595.27 579,1581.5C 579.53,1587.2 579.197,1592.87 578,1598.5C 575.539,1609.14 573.205,1619.81 571,1630.5C 570.335,1637.19 570.502,1643.86 571.5,1650.5 Z"/></g>
<g><path style="opacity:1" fill="#f9f9f9" d="M 433.5,1589.5 C 441.363,1588.95 448.029,1591.45 453.5,1597C 447.397,1610.24 443.231,1624.08 441,1638.5C 432.01,1641.33 427.343,1638 427,1628.5C 426.135,1616.68 427.135,1605.02 430,1593.5C 430.69,1591.65 431.856,1590.32 433.5,1589.5 Z"/></g>
<g><path style="opacity:1" fill="#fcfcfc" d="M 2063.5,1591.5 C 2066.85,1591.33 2070.18,1591.5 2073.5,1592C 2078.48,1595.67 2081.98,1600.5 2084,1606.5C 2091.77,1625.09 2094.77,1644.43 2093,1664.5C 2091.73,1668.87 2089.57,1672.7 2086.5,1676C 2081.8,1677.04 2077.47,1676.2 2073.5,1673.5C 2070.81,1670.65 2068.31,1667.65 2066,1664.5C 2066.68,1660.09 2067.18,1655.59 2067.5,1651C 2067.36,1646.79 2066.86,1642.62 2066,1638.5C 2062.23,1625.87 2058.07,1613.37 2053.5,1601C 2053.7,1598.59 2054.7,1596.59 2056.5,1595C 2058.93,1593.79 2061.26,1592.62 2063.5,1591.5 Z"/></g>
<g><path style="opacity:1" fill="#fbfbfb" d="M 2027.5,1599.5 C 2031.6,1599.23 2035.6,1599.73 2039.5,1601C 2046.98,1615.42 2052.48,1630.59 2056,1646.5C 2056.98,1651.99 2056.15,1657.16 2053.5,1662C 2046.26,1663.63 2040.43,1661.47 2036,1655.5C 2027.64,1641.6 2020.47,1627.1 2014.5,1612C 2014.74,1610.02 2015.41,1608.18 2016.5,1606.5C 2019.49,1602.8 2023.15,1600.47 2027.5,1599.5 Z"/></g>
<g><path style="opacity:1" fill="#feca13" d="M 892.5,1638.5 C 893.659,1649.99 893.826,1661.66 893,1673.5C 883.333,1681.83 874.333,1690.83 866,1700.5C 864.228,1691.24 863.562,1681.91 864,1672.5C 873.746,1661.32 883.246,1649.99 892.5,1638.5 Z"/></g>
<g><path style="opacity:1" fill="#feca13" d="M 1650.5,1638.5 C 1660.55,1649.57 1670.39,1660.91 1680,1672.5C 1680.44,1681.91 1679.77,1691.24 1678,1700.5C 1669.67,1690.83 1660.67,1681.83 1651,1673.5C 1650.5,1661.84 1650.33,1650.17 1650.5,1638.5 Z"/></g>
<g><path style="opacity:1" fill="#c39e1a" d="M 1974.5,1646.5 C 1974.3,1648.39 1974.96,1649.89 1976.5,1651C 1979.57,1653.19 1982.57,1655.35 1985.5,1657.5C 1982.44,1658.25 1980.78,1660.25 1980.5,1663.5C 1983.22,1669.74 1987.88,1672.91 1994.5,1673C 1996.93,1671.98 1998.26,1670.15 1998.5,1667.5C 2003.56,1670.22 2007.22,1674.22 2009.5,1679.5C 2004.38,1677.54 2001.04,1679.21 1999.5,1684.5C 2014.73,1704.65 2024.23,1727.32 2028,1752.5C 2028.88,1765.88 2028.55,1779.21 2027,1792.5C 2024.45,1800.61 2020.11,1807.61 2014,1813.5C 2012.42,1818.13 2013.92,1821.13 2018.5,1822.5C 2021.44,1820.89 2024.11,1818.89 2026.5,1816.5C 2025.04,1821.3 2022.37,1825.3 2018.5,1828.5C 1999.57,1831.01 1981.24,1828.84 1963.5,1822C 1952.68,1813.14 1944.85,1801.98 1940,1788.5C 1934,1772.5 1934,1756.5 1940,1740.5C 1946.01,1731.22 1954.51,1727.72 1965.5,1730C 1973.25,1733.65 1977.42,1739.82 1978,1748.5C 1979.87,1755.18 1979.87,1761.85 1978,1768.5C 1976.67,1771.17 1974.67,1773.17 1972,1774.5C 1970.27,1780.59 1972.44,1783.42 1978.5,1783C 1983.4,1781.1 1986.57,1777.6 1988,1772.5C 1991.07,1762.53 1991.07,1752.53 1988,1742.5C 1986.33,1735.16 1983.66,1728.16 1980,1721.5C 1973.75,1712 1967.75,1702.33 1962,1692.5C 1956.36,1687.61 1950.86,1682.61 1945.5,1677.5C 1947.77,1672.69 1949.44,1667.69 1950.5,1662.5C 1956.29,1661.57 1961.96,1660.07 1967.5,1658C 1971.02,1654.77 1973.35,1650.94 1974.5,1646.5 Z"/></g>
<g><path style="opacity:1" fill="#c39e1a" d="M 571.5,1650.5 C 576.473,1659.3 584.14,1663.3 594.5,1662.5C 595.562,1667.69 597.229,1672.69 599.5,1677.5C 594.136,1682.61 588.636,1687.61 583,1692.5C 575.269,1704.57 567.935,1716.91 561,1729.5C 560.074,1735.4 558.408,1741.06 556,1746.5C 553.121,1757.72 554.454,1768.38 560,1778.5C 562.167,1780 564.333,1781.5 566.5,1783C 572.313,1783.17 574.48,1780.34 573,1774.5C 567.396,1771.15 564.896,1766.15 565.5,1759.5C 565.998,1751.51 567.831,1743.84 571,1736.5C 578.245,1728.83 586.745,1727.33 596.5,1732C 599.295,1733.79 601.795,1735.96 604,1738.5C 612.3,1759.43 610.966,1779.77 600,1799.5C 596.44,1806.13 592.274,1812.3 587.5,1818C 583.112,1820.86 578.446,1823.19 573.5,1825C 562.877,1827.38 552.211,1829.21 541.5,1830.5C 537.538,1827.51 533.538,1824.51 529.5,1821.5C 531.391,1819.16 531.891,1816.5 531,1813.5C 523.26,1806.09 518.593,1797.09 517,1786.5C 512.639,1738.23 528.306,1697.89 564,1665.5C 564.741,1661.98 563.575,1659.32 560.5,1657.5C 563.997,1654.92 567.664,1652.58 571.5,1650.5 Z"/></g>
<g><path style="opacity:1" fill="#080601" d="M 560.5,1657.5 C 563.575,1659.32 564.741,1661.98 564,1665.5C 528.306,1697.89 512.639,1738.23 517,1786.5C 518.593,1797.09 523.26,1806.09 531,1813.5C 531.891,1816.5 531.391,1819.16 529.5,1821.5C 527.076,1821.81 524.743,1821.47 522.5,1820.5C 514.764,1813.04 509.598,1804.04 507,1793.5C 499.825,1740.35 515.658,1695.52 554.5,1659C 556.345,1657.87 558.345,1657.37 560.5,1657.5 Z"/></g>
<g><path style="opacity:1" fill="#0c0801" d="M 1985.5,1657.5 C 1990.27,1659.09 1994.44,1661.75 1998,1665.5C 1998.46,1666.09 1998.63,1666.76 1998.5,1667.5C 1998.26,1670.15 1996.93,1671.98 1994.5,1673C 1987.88,1672.91 1983.22,1669.74 1980.5,1663.5C 1980.78,1660.25 1982.44,1658.25 1985.5,1657.5 Z"/></g>
<g><path style="opacity:1" fill="#080500" d="M 2009.5,1679.5 C 2013.57,1685.3 2017.41,1691.3 2021,1697.5C 2036.86,1725.81 2042.86,1756.14 2039,1788.5C 2037.25,1798.99 2033.08,1808.32 2026.5,1816.5C 2024.11,1818.89 2021.44,1820.89 2018.5,1822.5C 2013.92,1821.13 2012.42,1818.13 2014,1813.5C 2020.11,1807.61 2024.45,1800.61 2027,1792.5C 2028.55,1779.21 2028.88,1765.88 2028,1752.5C 2024.23,1727.32 2014.73,1704.65 1999.5,1684.5C 2001.04,1679.21 2004.38,1677.54 2009.5,1679.5 Z"/></g>
<g><path style="opacity:1" fill="#0d0901" d="M 454.5,1707.5 C 463.21,1707.4 465.71,1711.4 462,1719.5C 460.309,1723.21 457.475,1724.38 453.5,1723C 450.639,1717.59 450.972,1712.43 454.5,1707.5 Z"/></g>
<g><path style="opacity:1" fill="#feca13" d="M 846.5,1767.5 C 850.068,1779.2 854.068,1790.87 858.5,1802.5C 856.234,1806.61 853.734,1810.61 851,1814.5C 843.953,1822.54 837.287,1830.88 831,1839.5C 827.879,1825.99 826.546,1812.33 827,1798.5C 834.511,1788.81 841.011,1778.48 846.5,1767.5 Z"/></g>
<g><path style="opacity:1" fill="#feca13" d="M 1696.5,1767.5 C 1702.81,1778.11 1709.65,1788.44 1717,1798.5C 1717.45,1812.33 1716.12,1825.99 1713,1839.5C 1706.71,1830.88 1700.05,1822.54 1693,1814.5C 1690.27,1810.61 1687.77,1806.61 1685.5,1802.5C 1690.18,1791.14 1693.84,1779.47 1696.5,1767.5 Z"/></g>
<g><path style="opacity:1" fill="#c29d1a" d="M 595.5,2008.5 C 596.116,2005.92 596.449,2003.25 596.5,2000.5C 595.082,1991.22 594.415,1981.89 594.5,1972.5C 597.099,1972.45 599.266,1971.45 601,1969.5C 600.5,1926.66 595.5,1884.33 586,1842.5C 583.524,1838.25 580.358,1837.59 576.5,1840.5C 576.5,1839.83 576.167,1839.5 575.5,1839.5C 582,1834.21 589,1829.37 596.5,1825C 600.595,1821.3 604.095,1817.13 607,1812.5C 617.302,1842.67 622.968,1873.67 624,1905.5C 613.056,1939.17 604.889,1973.5 599.5,2008.5C 598.167,2008.5 596.833,2008.5 595.5,2008.5 Z"/></g>
<g><path style="opacity:1" fill="#c29d1a" d="M 1951.5,1972.5 C 1949.84,1984.39 1949.17,1996.39 1949.5,2008.5C 1948.17,2008.5 1946.83,2008.5 1945.5,2008.5C 1940.11,1973.5 1931.94,1939.17 1921,1905.5C 1922.03,1873.67 1927.7,1842.67 1938,1812.5C 1941.16,1816.16 1943.83,1820.16 1946,1824.5C 1951.02,1829.35 1955.85,1834.35 1960.5,1839.5C 1957.38,1849.99 1954.88,1860.66 1953,1871.5C 1949.63,1893.78 1946.63,1916.11 1944,1938.5C 1943.33,1948.83 1943.33,1959.17 1944,1969.5C 1945.85,1972.04 1948.35,1973.04 1951.5,1972.5 Z"/></g>
<g><path style="opacity:1" fill="#fcc912" d="M 575.5,1839.5 C 576.167,1839.5 576.5,1839.83 576.5,1840.5C 575.362,1843.3 575.195,1846.3 576,1849.5C 584.811,1888.7 589.811,1928.36 591,1968.5C 591.66,1970.32 592.827,1971.66 594.5,1972.5C 594.415,1981.89 595.082,1991.22 596.5,2000.5C 596.449,2003.25 596.116,2005.92 595.5,2008.5C 589.551,2009.58 583.551,2009.75 577.5,2009C 555.693,2006.97 534.026,2003.97 512.5,2000C 508.632,1998.99 504.966,1997.49 501.5,1995.5C 501.971,1972.51 501.471,1949.51 500,1926.5C 496.073,1906.87 492.407,1887.2 489,1867.5C 486.595,1858.12 484.095,1848.79 481.5,1839.5C 485.739,1838.78 489.906,1837.78 494,1836.5C 503.031,1841.01 512.531,1844.01 522.5,1845.5C 526.474,1864.87 530.641,1884.21 535,1903.5C 536.845,1916.1 537.845,1928.76 538,1941.5C 540.467,1945.99 543.8,1946.66 548,1943.5C 549.143,1925.98 547.81,1908.64 544,1891.5C 540.816,1876.76 537.316,1862.1 533.5,1847.5C 539.138,1846.67 544.804,1846.17 550.5,1846C 558.814,1843.67 567.147,1841.51 575.5,1839.5 Z"/></g>
<g><path style="opacity:1" fill="#070500" d="M 594.5,1972.5 C 592.827,1971.66 591.66,1970.32 591,1968.5C 589.811,1928.36 584.811,1888.7 576,1849.5C 575.195,1846.3 575.362,1843.3 576.5,1840.5C 580.358,1837.59 583.524,1838.25 586,1842.5C 595.5,1884.33 600.5,1926.66 601,1969.5C 599.266,1971.45 597.099,1972.45 594.5,1972.5 Z"/></g>
<g><path style="opacity:1" fill="#fcc912" d="M 1949.5,2008.5 C 1949.17,1996.39 1949.84,1984.39 1951.5,1972.5C 1952.5,1971.32 1953.34,1969.98 1954,1968.5C 1955.2,1927.29 1960.53,1886.63 1970,1846.5C 1971.68,1845.48 1973.34,1844.48 1975,1843.5C 1979.75,1844.78 1984.59,1845.61 1989.5,1846C 2005.6,1847.13 2021.6,1846.47 2037.5,1844C 2042.17,1842.58 2046.67,1840.75 2051,1838.5C 2053.57,1839.87 2056.07,1841.37 2058.5,1843C 2059.79,1843.49 2061.13,1843.66 2062.5,1843.5C 2060.04,1851.4 2057.87,1859.4 2056,1867.5C 2052.59,1887.2 2048.93,1906.87 2045,1926.5C 2043.53,1949.51 2043.03,1972.51 2043.5,1995.5C 2039.44,1997.77 2035.11,1999.27 2030.5,2000C 2023.25,2001.71 2015.92,2002.87 2008.5,2003.5C 2003.59,1964.46 2004.92,1925.79 2012.5,1887.5C 2011.42,1882.62 2008.42,1880.79 2003.5,1882C 2002.3,1882.9 2001.47,1884.07 2001,1885.5C 1995.27,1925.37 1994.11,1965.37 1997.5,2005.5C 1987.46,2006.22 1977.46,2007.38 1967.5,2009C 1961.45,2009.75 1955.45,2009.58 1949.5,2008.5 Z"/></g>
<g><path style="opacity:1" fill="#0e0a01" d="M 2011.5,1850.5 C 2015.8,1850.14 2018.47,1851.97 2019.5,1856C 2018.23,1861.24 2016.73,1866.41 2015,1871.5C 2009.49,1874.99 2006.32,1873.49 2005.5,1867C 2005.91,1860.82 2007.91,1855.32 2011.5,1850.5 Z"/></g>
<g><path style="opacity:1" fill="#feca13" d="M 814.5,1913.5 C 820.838,1928.7 825.505,1944.53 828.5,1961C 828.536,1963.63 828.036,1966.13 827,1968.5C 820.418,1978 814.085,1987.66 808,1997.5C 804.277,1982.16 800.444,1966.83 796.5,1951.5C 801.955,1938.59 807.955,1925.92 814.5,1913.5 Z"/></g>
<g><path style="opacity:1" fill="#feca13" d="M 1728.5,1913.5 C 1735.88,1925.6 1742.22,1938.27 1747.5,1951.5C 1743.56,1966.83 1739.72,1982.16 1736,1997.5C 1729.92,1987.66 1723.58,1978 1717,1968.5C 1715.96,1966.13 1715.46,1963.63 1715.5,1961C 1718.72,1944.85 1723.05,1929.02 1728.5,1913.5 Z"/></g>
<g><path style="opacity:1" fill="#0a0701" d="M 541.5,1954.5 C 544.272,1954.22 546.772,1954.89 549,1956.5C 549.667,1963.83 549.667,1971.17 549,1978.5C 544.77,1982.78 541.437,1982.11 539,1976.5C 538.333,1970.17 538.333,1963.83 539,1957.5C 540.045,1956.63 540.878,1955.63 541.5,1954.5 Z"/></g>
<g><path style="opacity:1" fill="#fbc712" d="M 485.5,1984.5 C 486.833,1984.5 488.167,1984.5 489.5,1984.5C 490.443,1988.52 490.443,1992.52 489.5,1996.5C 490.054,1998.61 490.888,2000.61 492,2002.5C 497.583,2006.54 503.749,2009.37 510.5,2011C 532.376,2014.91 554.376,2017.91 576.5,2020C 583.536,2020.72 590.536,2020.55 597.5,2019.5C 596.176,2027.44 595.509,2035.44 595.5,2043.5C 564.904,2045.62 535.237,2041.45 506.5,2031C 499.058,2028.11 492.058,2024.45 485.5,2020C 484.207,2019.51 482.873,2019.34 481.5,2019.5C 477.444,2008.88 477.611,1998.21 482,1987.5C 483.518,1986.84 484.685,1985.84 485.5,1984.5 Z"/></g>
<g><path style="opacity:1" fill="#fac712" d="M 2055.5,1984.5 C 2062.42,1985.26 2065.92,1989.26 2066,1996.5C 2066.67,2002.17 2066.67,2007.83 2066,2013.5C 2064.44,2015.22 2063.61,2017.22 2063.5,2019.5C 2062.13,2019.34 2060.79,2019.51 2059.5,2020C 2044.72,2029.26 2028.72,2035.6 2011.5,2039C 1990.93,2042.38 1970.26,2043.88 1949.5,2043.5C 1949.63,2036.26 1948.97,2029.09 1947.5,2022C 1947.83,2021.17 1948.17,2020.33 1948.5,2019.5C 1955.12,2020.63 1961.78,2020.79 1968.5,2020C 1991.32,2017.65 2013.98,2014.31 2036.5,2010C 2042.56,2008.65 2048.06,2006.15 2053,2002.5C 2054.11,2000.61 2054.95,1998.61 2055.5,1996.5C 2054.56,1992.52 2054.56,1988.52 2055.5,1984.5 Z"/></g>
<g><path style="opacity:1" fill="#fdc912" d="M 590.5,2055.5 C 588.009,2060.48 585.009,2065.14 581.5,2069.5C 579.629,2069.86 578.129,2070.86 577,2072.5C 566.103,2087.36 559.437,2104.03 557,2122.5C 554.837,2138.47 553.004,2154.47 551.5,2170.5C 538.698,2169.47 526.031,2167.63 513.5,2165C 485.111,2157.99 456.778,2150.82 428.5,2143.5C 423.32,2117.92 427.82,2094.25 442,2072.5C 444.167,2070.33 446.333,2068.17 448.5,2066C 459.548,2059.48 470.882,2053.48 482.5,2048C 486.718,2045.72 490.384,2042.72 493.5,2039C 494.833,2038.33 496.167,2038.33 497.5,2039C 505.402,2042.47 513.402,2045.63 521.5,2048.5C 512.879,2058.29 504.046,2067.96 495,2077.5C 485.441,2091.68 480.608,2107.35 480.5,2124.5C 480.295,2127.79 481.128,2130.79 483,2133.5C 486.339,2136.3 489.339,2135.97 492,2132.5C 490.566,2115.65 494.232,2099.99 503,2085.5C 510.302,2077.2 517.969,2069.2 526,2061.5C 528.377,2057.91 530.877,2054.41 533.5,2051C 552.267,2054.29 571.267,2055.79 590.5,2055.5 Z"/></g>
<g><path style="opacity:1" fill="#fdc912" d="M 1987.5,2171.5 C 1988.22,2169.24 1988.55,2166.9 1988.5,2164.5C 1992.4,2132.03 1985.9,2101.69 1969,2073.5C 1966.7,2071.07 1963.86,2070.07 1960.5,2070.5C 1958.53,2067.78 1957.03,2064.78 1956,2061.5C 1954.99,2060.66 1953.82,2060.33 1952.5,2060.5C 1952.58,2059.07 1952.25,2057.74 1951.5,2056.5C 1971.45,2055.65 1991.29,2053.65 2011,2050.5C 2012.17,2050.83 2013.33,2051.17 2014.5,2051.5C 2015.75,2054.33 2017.25,2057 2019,2059.5C 2043.66,2079.16 2055.66,2104.83 2055,2136.5C 2058.21,2138.12 2060.87,2137.46 2063,2134.5C 2065.87,2115.57 2062.54,2097.91 2053,2081.5C 2045.62,2069.74 2036.62,2059.4 2026,2050.5C 2025.51,2049.21 2025.34,2047.87 2025.5,2046.5C 2034.43,2044.79 2042.93,2041.79 2051,2037.5C 2053.27,2040.87 2056.11,2043.7 2059.5,2046C 2068.37,2050.06 2077.37,2053.73 2086.5,2057C 2102.94,2067.04 2113.11,2081.54 2117,2100.5C 2117.67,2113.83 2117.67,2127.17 2117,2140.5C 2092.62,2147.72 2068.12,2154.55 2043.5,2161C 2029.72,2163.49 2016.05,2166.49 2002.5,2170C 1997.55,2171.05 1992.55,2171.55 1987.5,2171.5 Z"/></g>
<g><path style="opacity:1" fill="#c19d1a" d="M 590.5,2055.5 C 591.675,2055.28 592.675,2055.61 593.5,2056.5C 591.083,2070.26 589.083,2084.09 587.5,2098C 588.209,2110.04 592.042,2120.87 599,2130.5C 603.93,2136.69 609.097,2142.69 614.5,2148.5C 598.036,2157.44 580.703,2164.44 562.5,2169.5C 564.035,2146.1 567.869,2123.1 574,2100.5C 576.808,2092.21 581.141,2084.88 587,2078.5C 588.986,2072.94 587.153,2069.94 581.5,2069.5C 585.009,2065.14 588.009,2060.48 590.5,2055.5 Z"/></g>
<g><path style="opacity:1" fill="#c19d1a" d="M 1952.5,2060.5 C 1953.82,2060.33 1954.99,2060.66 1956,2061.5C 1957.03,2064.78 1958.53,2067.78 1960.5,2070.5C 1958.61,2072.84 1958.11,2075.5 1959,2078.5C 1973.99,2103.71 1980.99,2131.04 1980,2160.5C 1981.7,2163.91 1984.53,2165.24 1988.5,2164.5C 1988.55,2166.9 1988.22,2169.24 1987.5,2171.5C 1966.48,2168.66 1947.15,2161.32 1929.5,2149.5C 1939.89,2139.69 1948.06,2128.35 1954,2115.5C 1955.65,2109.76 1956.82,2103.93 1957.5,2098C 1955.97,2085.47 1954.31,2072.97 1952.5,2060.5 Z"/></g>
<g><path style="opacity:1" fill="#feca13" d="M 798.5,2067.5 C 801.559,2071.94 804.392,2076.6 807,2081.5C 810.731,2088.96 813.898,2096.63 816.5,2104.5C 810.463,2116.9 803.63,2128.9 796,2140.5C 790.32,2128.13 785.82,2115.3 782.5,2102C 787.935,2090.52 793.269,2079.02 798.5,2067.5 Z"/></g>
<g><path style="opacity:1" fill="#feca13" d="M 1744.5,2067.5 C 1750.63,2078.68 1756.29,2090.18 1761.5,2102C 1758.18,2115.3 1753.68,2128.13 1748,2140.5C 1740.37,2128.9 1733.54,2116.9 1727.5,2104.5C 1732.36,2091.77 1738.03,2079.44 1744.5,2067.5 Z"/></g>
<g><path style="opacity:1" fill="#080601" d="M 1960.5,2070.5 C 1963.86,2070.07 1966.7,2071.07 1969,2073.5C 1985.9,2101.69 1992.4,2132.03 1988.5,2164.5C 1984.53,2165.24 1981.7,2163.91 1980,2160.5C 1980.99,2131.04 1973.99,2103.71 1959,2078.5C 1958.11,2075.5 1958.61,2072.84 1960.5,2070.5 Z"/></g>
<g><path style="opacity:1" fill="#fdc912" d="M 414.5,2130.5 C 415.483,2134.3 415.817,2138.3 415.5,2142.5C 413.939,2147.87 415.939,2151.37 421.5,2153C 455.864,2161.54 490.197,2170.21 524.5,2179C 536.512,2180.01 548.512,2180.68 560.5,2181C 567.222,2179.54 573.888,2177.87 580.5,2176C 592.045,2170.87 603.712,2166.04 615.5,2161.5C 618.869,2165.87 622.869,2169.54 627.5,2172.5C 615.423,2179.04 602.756,2184.54 589.5,2189C 581.235,2192.71 573.735,2197.54 567,2203.5C 565.48,2207.37 565.146,2211.37 566,2215.5C 567.513,2219.19 569.013,2222.85 570.5,2226.5C 559.803,2227.93 549.136,2227.76 538.5,2226C 505.559,2217.21 472.559,2208.54 439.5,2200C 429.459,2195.54 419.125,2191.87 408.5,2189C 406.33,2187.41 403.996,2186.08 401.5,2185C 394.153,2173.93 390.986,2161.77 392,2148.5C 395.737,2137.87 403.237,2131.87 414.5,2130.5 Z"/></g>
<g><path style="opacity:1" fill="#775f09" d="M 414.5,2130.5 C 414.56,2129.96 414.893,2129.62 415.5,2129.5C 416.811,2133.98 416.811,2138.32 415.5,2142.5C 415.817,2138.3 415.483,2134.3 414.5,2130.5 Z"/></g>
<g><path style="opacity:1" fill="#fdc912" d="M 1980.5,2227.5 C 1980.67,2223.15 1980.5,2218.82 1980,2214.5C 1975.31,2205.47 1968.81,2197.97 1960.5,2192C 1954.89,2188.72 1949.56,2185.06 1944.5,2181C 1938.04,2177.29 1931.38,2173.96 1924.5,2171C 1923.29,2169.96 1922.29,2168.79 1921.5,2167.5C 1922.78,2165.05 1924.28,2162.72 1926,2160.5C 1944.8,2172.49 1965.3,2179.82 1987.5,2182.5C 1996.57,2181.91 2005.57,2180.74 2014.5,2179C 2051.37,2170.22 2088.04,2160.56 2124.5,2150C 2126.33,2149.5 2127.5,2148.33 2128,2146.5C 2128.5,2141.85 2128.67,2137.18 2128.5,2132.5C 2139.07,2131.97 2147.24,2135.97 2153,2144.5C 2154.35,2156.76 2152.35,2168.43 2147,2179.5C 2135.66,2185.92 2123.83,2191.42 2111.5,2196C 2069.01,2211.56 2025.34,2222.06 1980.5,2227.5 Z"/></g>
<g><path style="opacity:1" fill="#c39e1a" d="M 1921.5,2167.5 C 1922.29,2168.79 1923.29,2169.96 1924.5,2171C 1931.38,2173.96 1938.04,2177.29 1944.5,2181C 1949.56,2185.06 1954.89,2188.72 1960.5,2192C 1968.81,2197.97 1975.31,2205.47 1980,2214.5C 1980.5,2218.82 1980.67,2223.15 1980.5,2227.5C 1969.29,2226.26 1958.62,2223.1 1948.5,2218C 1931.5,2208.17 1914.83,2197.83 1898.5,2187C 1906.57,2180.97 1914.24,2174.47 1921.5,2167.5 Z"/></g>
<g><path style="opacity:1" fill="#c49f1a" d="M 627.5,2172.5 C 634.181,2179.18 641.181,2185.51 648.5,2191.5C 649.833,2192.17 649.833,2192.83 648.5,2193.5C 632.341,2201.75 616.341,2210.25 600.5,2219C 590.551,2221.81 580.551,2224.31 570.5,2226.5C 569.013,2222.85 567.513,2219.19 566,2215.5C 565.146,2211.37 565.48,2207.37 567,2203.5C 573.735,2197.54 581.235,2192.71 589.5,2189C 602.756,2184.54 615.423,2179.04 627.5,2172.5 Z"/></g>
<g><path style="opacity:0.673" fill="#b99619" d="M 1962.5,2235.5 C 1966.05,2236.13 1969.38,2237.13 1972.5,2238.5C 1969.81,2238.66 1967.15,2238.5 1964.5,2238C 1963.62,2237.29 1962.95,2236.46 1962.5,2235.5 Z"/></g>
<g><path style="opacity:1" fill="#fbedf3" d="M 992.5,2241.5 C 998.21,2240.66 1003.88,2241.5 1009.5,2244C 1003.74,2243.96 998.076,2243.13 992.5,2241.5 Z"/></g>
</svg>
